SplineFontDB: 3.2
FontName: SeriousShanns
FullName: Serious Shanns
FamilyName: Serious Shanns
Weight: Book
Copyright: https://github.com/kaBeech/serious-shanns/blob/main/LICENSE
Version: 6.0.0
ItalicAngle: 0
UnderlinePosition: 0
UnderlineWidth: 0
Ascent: 800
Descent: 200
InvalidEm: 0
sfntRevision: 0x00003333
LayerCount: 2
Layer: 0 0 "Back" 1
Layer: 1 0 "Fore" 0
XUID: [1021 45 630387186 12505762]
StyleMap: 0x0040
FSType: 4
OS2Version: 3
OS2_WeightWidthSlopeOnly: 0
OS2_UseTypoMetrics: 0
CreationTime: 1532631502
ModificationTime: 315532800
PfmFamily: 81
TTFWeight: 400
TTFWidth: 5
LineGap: 0
VLineGap: 0
Panose: 0 0 0 0 0 0 0 0 0 0
OS2TypoAscent: 613
OS2TypoAOffset: 0
OS2TypoDescent: -188
OS2TypoDOffset: 0
OS2TypoLinegap: 98
OS2WinAscent: 778
OS2WinAOffset: 0
OS2WinDescent: 308
OS2WinDOffset: 0
HheadAscent: 796
HheadAOffset: 0
HheadDescent: -317
HheadDOffset: 0
OS2SubXSize: 317
OS2SubYSize: 293
OS2SubXOff: 0
OS2SubYOff: 37
OS2SupXSize: 317
OS2SupYSize: 293
OS2SupXOff: 0
OS2SupYOff: 171
OS2StrikeYSize: 0
OS2StrikeYPos: 132
OS2CapHeight: 576
OS2XHeight: 485
OS2Vendor: 'NONE'
OS2CodePages: 00000001.00000000
OS2UnicodeRanges: 00000001.00000000.00000000.00000000
MarkAttachClasses: 1
DEI: 91125
LangName: 1033 "" "" "Normal" "FontForge 2.0 : Serious Shanns : 11-6-2024" "" "Version 0.2.0"
Encoding: UnicodeBmp
Compacted: 1
UnicodeInterp: none
NameList: AGL For New Fonts
DisplaySize: -48
AntiAlias: 1
FitToEm: 0
WinInfo: 0 16 11
BeginPrivate: 8
BlueValues 32 [-40 -6 502 523 708 718 765 769]
OtherBlues 11 [-297 -287]
BlueScale 9 0.0291667
BlueShift 1 2
StdHW 4 [85]
StdVW 4 [96]
StemSnapH 7 [65 85]
StemSnapV 4 [96]
EndPrivate
BeginChars: 65537 97

StartChar: .notdef
Encoding: 65536 -1 0
Width: 590
GlyphClass: 1
Flags: W
HStem: -268 54<134 455> 695 54<134 455>
VStem: 81 53<-214 695> 455 54<-214 695>
LayerCount: 2
Fore
SplineSet
81 -268 m 1
 81 749 l 1
 509 749 l 1
 509 -268 l 1
 81 -268 l 1
134 -214 m 1
 455 -214 l 1
 455 695 l 1
 134 695 l 1
 134 -214 l 1
EndSplineSet
Validated: 1
EndChar

StartChar: exclam
Encoding: 33 33 1
Width: 590
GlyphClass: 2
Flags: HMW
HStem: -24.5727 153.613
VStem: 212.999 164.001 253.999 92.3857
LayerCount: 2
Fore
SplineSet
354.002929688 738 m 0xa0
 354.002929688 732 352.500976562 688.16796875 349.500976562 606.500976562 c 0
 347.423828125 549.961914062 346.385742188 500.692382812 346.385742188 458.692382812 c 0
 346.385742188 440.026367188 346.590820312 422.795898438 347.000976562 407.000976562 c 0
 347.666992188 382.000976562 347.999023438 362.04296875 347.999023438 347.125976562 c 0
 347.999023438 332.208984375 347.666992188 322.333984375 346.999023438 317.5 c 0
 346.111328125 311.056640625 345.666992188 302.022460938 345.666992188 290.397460938 c 0
 345.666992188 284.580078125 345.778320312 278.114257812 346.000976562 271 c 0
 344.666992188 256.333007812 339.000976562 244.833007812 329.000976562 236.5 c 0
 319.741210938 228.784179688 308.768554688 224.926757812 296.081054688 224.926757812 c 0
 295.065429688 224.926757812 294.038085938 224.951171875 293.001953125 225.000976562 c 0
 279.668945312 225.000976562 268.668945312 229.333984375 260.001953125 238.000976562 c 0
 252.490234375 245.512695312 248.733398438 256.029296875 248.733398438 269.55078125 c 0
 248.733398438 271.629882812 248.823242188 273.780273438 249.000976562 276.001953125 c 0
 249.666992188 286.001953125 250.666992188 295.668945312 252.000976562 305.001953125 c 0
 253.333984375 314.334960938 254.166992188 322.16796875 254.499023438 328.500976562 c 0
 254.833007812 334.833984375 255.333007812 349.833984375 255.999023438 373.500976562 c 0
 256.166992188 379.41796875 256.249023438 385.762695312 256.249023438 392.534179688 c 0
 256.249023438 412.846679688 255.499023438 437.001953125 253.999023438 465.000976562 c 0
 253.333007812 491.000976562 252.833007812 518.500976562 252.499023438 547.500976562 c 0
 252.388671875 557.158203125 252.333007812 566.279296875 252.333007812 574.864257812 c 0
 252.333007812 592.059570312 252.555664062 607.10546875 253.000976562 620 c 0
 253.666992188 639.333007812 254.334960938 661.333007812 255.001953125 686 c 0
 255.668945312 710.666992188 256.001953125 727 256.001953125 735 c 0
 256.668945312 753 261.834960938 766.666992188 271.502929688 776 c 0
 281.169921875 785.333007812 293.002929688 790 307.002929688 790 c 0
 308.002929688 790.047851562 308.989257812 790.071289062 309.962890625 790.071289062 c 0
 322.608398438 790.071289062 332.955078125 786.047851562 341.002929688 778 c 0
 349.669921875 769.333007812 354.002929688 756 354.002929688 738 c 0xa0
297.000976562 -23.9990234375 m 0
 293.475585938 -24.3798828125 290.041992188 -24.5703125 286.700195312 -24.5703125 c 0
 266.661132812 -24.5703125 249.927734375 -17.7158203125 236.499023438 -4.0029296875 c 0
 220.833007812 11.9970703125 212.999023438 31.330078125 212.999023438 53.9970703125 c 0
 212.999023438 73.9970703125 221.833007812 91.330078125 239.499023438 105.997070312 c 0
 257.166992188 120.6640625 276.333984375 128.331054688 297.000976562 128.998046875 c 0
 298.038085938 129.02734375 299.067382812 129.041992188 300.088867188 129.041992188 c 0
 322.030273438 129.041992188 340.166992188 122.194335938 354.500976562 108.499023438 c 0
 369.500976562 94.166015625 377.000976562 76.3330078125 377.000976562 55 c 0xc0
 377.000976562 33.6669921875 369.666992188 15.833984375 355.000976562 1.5009765625 c 0
 340.333984375 -12.83203125 321.000976562 -21.33203125 297.000976562 -23.9990234375 c 0
EndSplineSet
Validated: 524289
EndChar

StartChar: quotedbl
Encoding: 34 34 2
Width: 590
GlyphClass: 2
Flags: HMW
VStem: 165.483 101.426 323.435 103.475
LayerCount: 2
Fore
SplineSet
267.912109375 738 m 0
 268.133789062 728.908203125 268.244140625 717.880859375 268.244140625 704.916015625 c 0
 268.244140625 678.904296875 267.797851562 645.09765625 266.908203125 603.498046875 c 0
 265.575195312 541.165039062 263.2421875 498.33203125 259.909179688 474.999023438 c 0
 257.909179688 461.666015625 252.2421875 451.666015625 242.909179688 444.999023438 c 0
 234.424804688 438.938476562 225.114257812 435.908203125 214.977539062 435.908203125 c 0
 213.963867188 435.908203125 212.94140625 435.938476562 211.911132812 435.999023438 c 0
 198.578125 436.666015625 186.745117188 440.833007812 176.412109375 448.5 c 0
 167.259765625 455.291015625 162.68359375 464.565429688 162.68359375 476.32421875 c 0
 162.68359375 480.546875 165.483398438 511.731445312 165.483398438 589.744140625 c 0
 165.483398438 596.965820312 165.459960938 604.383789062 165.412109375 611.999023438 c 0
 165.079101562 665.33203125 163.912109375 709.33203125 161.912109375 743.999023438 c 0
 161.245117188 751.999023438 162.745117188 758.83203125 166.412109375 764.499023438 c 0
 170.079101562 770.166015625 174.912109375 774.333007812 180.912109375 777 c 0
 186.912109375 779.666992188 193.079101562 781.5 199.412109375 782.5 c 0
 205.745117188 783.5 211.912109375 783.666992188 217.912109375 783 c 0
 223.912109375 783 229.579101562 782.333007812 234.912109375 781 c 0
 240.245117188 779.666992188 245.412109375 777.5 250.412109375 774.5 c 0
 255.412109375 771.5 259.579101562 766.833007812 262.912109375 760.5 c 0
 266.245117188 754.166992188 267.912109375 746.666992188 267.912109375 738 c 0
427.908203125 737.997070312 m 0
 428.130859375 728.875976562 428.241210938 717.805664062 428.241210938 704.786132812 c 0
 428.241210938 678.791015625 427.797851562 645.026367188 426.91015625 603.495117188 c 0
 425.577148438 541.162109375 423.577148438 498.329101562 420.91015625 474.99609375 c 0
 418.91015625 461.663085938 413.077148438 451.663085938 403.41015625 444.99609375 c 0
 394.622070312 438.935546875 385.420898438 435.905273438 375.806640625 435.905273438 c 0
 374.844726562 435.905273438 373.87890625 435.935546875 372.909179688 435.99609375 c 0
 359.576171875 436.663085938 347.576171875 440.830078125 336.909179688 448.497070312 c 0
 327.926757812 454.953125 323.435546875 463.654296875 323.435546875 474.6015625 c 0
 323.435546875 476.654296875 323.59375 478.786132812 323.909179688 480.997070312 c 0
 325.409179688 506.49609375 326.159179688 537.432617188 326.159179688 573.805664062 c 0
 326.159179688 585.931640625 326.076171875 598.662109375 325.909179688 611.99609375 c 0
 325.2421875 665.329101562 323.909179688 709.329101562 321.909179688 743.99609375 c 0
 321.909179688 751.99609375 323.7421875 758.829101562 327.409179688 764.49609375 c 0
 331.076171875 770.163085938 335.909179688 774.330078125 341.909179688 776.997070312 c 0
 347.909179688 779.6640625 353.909179688 781.497070312 359.909179688 782.497070312 c 0
 365.909179688 783.497070312 371.909179688 783.6640625 377.909179688 782.997070312 c 0
 383.909179688 782.997070312 389.576171875 782.330078125 394.909179688 780.997070312 c 0
 400.2421875 779.6640625 405.575195312 777.497070312 410.908203125 774.497070312 c 0
 416.241210938 771.497070312 420.408203125 766.830078125 423.408203125 760.497070312 c 0
 426.408203125 754.1640625 427.908203125 746.6640625 427.908203125 737.997070312 c 0
EndSplineSet
Validated: 524289
EndChar

StartChar: numbersign
Encoding: 35 35 3
Width: 590
GlyphClass: 2
Flags: HMW
HStem: 192 82 445 84 697.667 20G
LayerCount: 2
Fore
SplineSet
181.041015625 42 m 0
 176.374023438 28 166.706054688 16.4990234375 152.0390625 7.4990234375 c 0
 141.884765625 1.2685546875 132.209960938 -1.8466796875 123.014648438 -1.8466796875 c 0
 118.927734375 -1.8466796875 114.935546875 -1.2314453125 111.038085938 -0.0009765625 c 0
 98.37109375 2.666015625 89.0380859375 11.166015625 83.0380859375 25.4990234375 c 0
 79.861328125 33.0869140625 78.2734375 41.095703125 78.2734375 49.5244140625 c 0
 78.2734375 57.0166015625 79.5283203125 64.8408203125 82.0380859375 72.998046875 c 0
 87.37109375 90.998046875 96.7041015625 129.665039062 110.037109375 188.998046875 c 1
 80.037109375 188.998046875 l 2
 63.3701171875 188.998046875 50.703125 192.331054688 42.0361328125 198.998046875 c 0
 29.291015625 208.801757812 28.958984375 221.170898438 28.958984375 228.732421875 c 0
 28.958984375 239.524414062 32.6513671875 248.61328125 40.0361328125 255.998046875 c 0
 48.0361328125 263.998046875 60.703125 268.665039062 78.0361328125 269.998046875 c 0
 83.369140625 269.998046875 91.5361328125 270.165039062 102.536132812 270.498046875 c 0
 113.536132812 270.831054688 121.703125 270.998046875 127.036132812 270.998046875 c 1
 161.036132812 443.998046875 l 1
 155.703125 443.998046875 148.370117188 443.831054688 139.037109375 443.498046875 c 0
 129.704101562 443.165039062 123.37109375 442.998046875 120.038085938 442.998046875 c 0
 118.704101562 442.944335938 117.39453125 442.91796875 116.109375 442.91796875 c 0
 101.340820312 442.91796875 89.8173828125 446.444335938 81.5380859375 453.498046875 c 0
 68.28125 464.791015625 67.9658203125 477.244140625 67.9658203125 484.541992188 c 0
 67.9658203125 495.44140625 71.9892578125 504.759765625 80.037109375 512.497070312 c 0
 88.7041015625 520.830078125 101.704101562 525.330078125 119.037109375 525.997070312 c 0
 131.704101562 526.6640625 151.037109375 526.997070312 177.037109375 526.997070312 c 1
 195.704101562 627.6640625 205.37109375 679.6640625 206.038085938 682.997070312 c 0
 211.37109375 699.6640625 219.704101562 711.331054688 231.037109375 717.998046875 c 0
 238.592773438 722.443359375 246.296875 724.666015625 254.149414062 724.666015625 c 0
 258.075195312 724.666015625 262.038085938 724.110351562 266.038085938 722.999023438 c 0
 280.038085938 720.33203125 290.87109375 713.665039062 298.538085938 702.998046875 c 0
 303.881835938 695.563476562 306.553710938 686.509765625 306.553710938 675.836914062 c 0
 306.553710938 671.197265625 306.048828125 666.250976562 305.0390625 660.999023438 c 2
 278.0390625 528.999023438 l 1
 391.0390625 528.999023438 l 1
 418.0390625 674.999023438 l 2
 423.372070312 692.33203125 431.5390625 704.33203125 442.5390625 710.999023438 c 0
 449.873046875 715.444335938 457.725585938 717.666992188 466.096679688 717.666992188 c 0
 470.28125 717.666992188 474.595703125 717.111328125 479.040039062 716 c 0
 493.70703125 713.333007812 504.70703125 706.666015625 512.040039062 695.999023438 c 0
 516.78515625 689.096679688 519.158203125 680.798828125 519.158203125 671.10546875 c 0
 519.158203125 665.818359375 518.452148438 660.116210938 517.040039062 653.999023438 c 0
 509.70703125 625.999023438 501.374023438 584.999023438 492.041015625 530.999023438 c 1
 503.041015625 530.999023438 l 2
 519.041015625 530.999023438 532.541015625 526.499023438 543.541015625 517.499023438 c 0
 554.541015625 508.499023438 560.374023438 498.999023438 561.041015625 488.999023438 c 0
 561.041015625 476.999023438 557.041015625 466.83203125 549.041015625 458.499023438 c 0
 541.041015625 450.166015625 528.708007812 445.666015625 512.041015625 444.999023438 c 2
 476.041015625 444.999023438 l 1
 447.041015625 273.999023438 l 1
 488.041015625 273.999023438 l 2
 503.374023438 273.999023438 514.041015625 270.499023438 520.041015625 263.499023438 c 0
 526.041015625 256.499023438 529.374023438 247.33203125 530.041015625 235.999023438 c 0
 530.041015625 206.666015625 516.041015625 191.999023438 488.041015625 191.999023438 c 2
 432.041015625 191.999023438 l 1
 418.708007812 115.999023438 409.041015625 64.666015625 403.041015625 37.9990234375 c 0
 397.708007812 23.9990234375 388.208007812 13.166015625 374.541015625 5.4990234375 c 0
 365.559570312 0.4609375 356.650390625 -2.0576171875 347.813476562 -2.0576171875 c 0
 343.203125 -2.0576171875 338.612304688 -1.3720703125 334.041015625 -0.0009765625 c 0
 321.374023438 2.666015625 312.041015625 10.4990234375 306.041015625 23.4990234375 c 0
 302.864257812 30.380859375 301.276367188 37.77734375 301.276367188 45.6875 c 0
 301.276367188 52.71875 302.53125 60.15625 305.041015625 68 c 0
 311.708007812 94.6669921875 320.375 135.666992188 331.041992188 191 c 1
 317.041992188 191 296.708984375 190.833007812 270.041992188 190.5 c 0
 243.375 190.166992188 223.708007812 190 211.041015625 190 c 1
 197.041015625 118 187.041015625 68.6669921875 181.041015625 42 c 0
262.040039062 444.999023438 m 1
 227.041015625 273.998046875 l 1
 254.374023438 274.665039062 293.70703125 274.998046875 345.040039062 274.998046875 c 1
 355.70703125 329.665039062 366.040039062 386.33203125 376.040039062 444.999023438 c 1
 262.040039062 444.999023438 l 1
EndSplineSet
Validated: 524289
EndChar

StartChar: dollar
Encoding: 36 36 4
Width: 590
GlyphClass: 2
Flags: HMW
HStem: -28.9932 84.9932 642.998 79.002
VStem: 68.4995 92.001 256.499 87.001 446.501 92.999
LayerCount: 2
Fore
SplineSet
336.5 -99 m 0
 335.16796875 -113.666992188 329.5 -124.993164062 319.5 -132.993164062 c 0
 309.5 -140.993164062 297.833007812 -144.993164062 284.5 -144.993164062 c 0
 271.833007812 -144.993164062 262.333007812 -140.493164062 256 -131.493164062 c 0
 250.76953125 -124.05859375 248.15234375 -114.0078125 248.15234375 -101.340820312 c 0
 248.15234375 -98.6748046875 248.26953125 -95.892578125 248.5 -92.994140625 c 0
 249.388671875 -82.330078125 249.833007812 -69.296875 249.833007812 -53.89453125 c 0
 249.833007812 -46.1875 249.72265625 -37.8876953125 249.5 -28.994140625 c 1
 246.5 -28.994140625 l 2
 222.5 -28.994140625 200 -25.994140625 179 -19.994140625 c 0
 158 -13.994140625 140 -5.994140625 125 4.005859375 c 0
 110 14.005859375 97 24.6728515625 86 36.005859375 c 0
 75 47.3388671875 66.166015625 59.671875 59.5 73.0048828125 c 0
 53.5 86.5048828125 50.5 98.1298828125 50.5 107.879882812 c 0
 50.5 111.129882812 50.83203125 114.171875 51.5 117.004882812 c 0
 54.166015625 128.337890625 61.166015625 136.670898438 72.5 142.00390625 c 0
 80.5 145.336914062 86.83203125 147.669921875 91.5 149.002929688 c 0
 96.166015625 150.3359375 101.333007812 150.668945312 107 150.001953125 c 0
 112.66796875 149.334960938 118.16796875 146.66796875 123.5 142.000976562 c 0
 128.833007812 137.333984375 134.5 130.666992188 140.5 122 c 0
 153.833007812 101.333007812 169.166015625 85.166015625 186.5 73.4990234375 c 0
 203.83203125 61.83203125 224.83203125 55.9990234375 249.5 55.9990234375 c 2
 253.5 55.9990234375 l 1
 254.83203125 167.33203125 255.5 266.665039062 255.5 353.998046875 c 1
 252.166015625 353.998046875 246.333007812 354.665039062 238 355.998046875 c 0
 229.66796875 357.331054688 223.5 357.998046875 219.5 357.998046875 c 0
 195.5 360.665039062 173.5 366.998046875 153.5 376.998046875 c 0
 133.5 386.998046875 117.66796875 399.165039062 106 413.498046875 c 0
 94.333984375 427.831054688 85.166015625 442.831054688 78.5 458.498046875 c 0
 71.83203125 474.165039062 68.5 489.998046875 68.5 505.998046875 c 0
 68.5 529.998046875 72.166015625 552.998046875 79.5 574.998046875 c 0
 86.83203125 596.998046875 98 617.498046875 113 636.498046875 c 0
 128 655.498046875 147.5 671.831054688 171.5 685.498046875 c 0
 195.5 699.165039062 223.83203125 708.665039062 256.5 713.998046875 c 1
 257.166015625 729.998046875 257.5 749.331054688 257.5 771.998046875 c 0
 258.166015625 808.665039062 271.833007812 826.998046875 298.5 826.998046875 c 0
 299.055664062 827.010742188 299.606445312 827.016601562 300.15234375 827.016601562 c 0
 329.05078125 827.016601562 343.5 809.677734375 343.5 774.999023438 c 2
 343.5 721.999023438 l 1
 358.16796875 721.33203125 378.66796875 717.999023438 405 711.999023438 c 0
 431.333007812 705.999023438 450.833007812 700.33203125 463.5 694.999023438 c 0
 476.16796875 690.33203125 485.16796875 682.999023438 490.5 672.999023438 c 0
 494.766601562 664.999023438 496.899414062 656.572265625 496.899414062 647.71875 c 0
 496.899414062 645.505859375 496.766601562 643.266601562 496.5 641 c 0
 495.833007812 633 493.333007812 626.833007812 489 622.5 c 0
 484.66796875 618.166992188 479.333984375 615.5 473.000976562 614.5 c 0
 466.66796875 613.5 460.66796875 613.333007812 455.000976562 614 c 0
 449.333984375 614.666992188 443.16796875 615.666992188 436.5 617 c 0
 430.5 618.333007812 423 621.166015625 414 625.499023438 c 0
 405 629.83203125 394.833007812 633.665039062 383.5 636.998046875 c 0
 372.16796875 640.331054688 358.5 642.331054688 342.5 642.998046875 c 1
 341.833007812 589.665039062 340.5 518.998046875 338.5 430.998046875 c 1
 369.16796875 426.998046875 396.5 419.831054688 420.5 409.498046875 c 0
 444.5 399.165039062 463.66796875 387.33203125 478 373.999023438 c 0
 492.333007812 360.666015625 504.5 345.333007812 514.5 328 c 0
 524.5 310.666992188 531.16796875 293.666992188 534.5 277 c 0
 537.833007812 260.333007812 539.5 243 539.5 225 c 0
 539.5 194.333007812 534.333007812 165.333007812 524 138 c 0
 513.66796875 110.666992188 499.16796875 87 480.5 67 c 0
 461.833007812 47 440.166015625 29.6669921875 415.5 15 c 0
 390.83203125 0.3330078125 363.83203125 -10.6669921875 334.5 -18 c 1
 335.166015625 -58 335.833007812 -85 336.5 -99 c 0
160.5 531.006835938 m 0
 160.5 509.673828125 169.000976562 491.006835938 186.000976562 475.006835938 c 0
 203.000976562 459.006835938 226.16796875 447.673828125 255.500976562 441.006835938 c 1
 256.16796875 487.006835938 256.500976562 551.006835938 256.500976562 633.006835938 c 1
 227.833984375 624.33984375 204.66796875 611.33984375 187 594.006835938 c 0
 169.333007812 576.673828125 160.5 555.673828125 160.5 531.006835938 c 0
446.500976562 208.006835938 m 0
 446.500976562 220.673828125 444.83203125 232.340820312 441.5 243.0078125 c 0
 438.166015625 253.674804688 432.833007812 264.841796875 425.5 276.508789062 c 0
 418.16796875 288.17578125 407.16796875 299.008789062 392.5 309.008789062 c 0
 377.833007812 319.008789062 359.5 327.67578125 337.5 335.008789062 c 1
 337.5 305.67578125 337.333007812 261.508789062 337 202.508789062 c 0
 336.66796875 143.508789062 335.833984375 100.67578125 334.500976562 74.0087890625 c 1
 366.500976562 87.341796875 393.16796875 105.674804688 414.500976562 129.0078125 c 0
 435.833984375 152.340820312 446.500976562 178.673828125 446.500976562 208.006835938 c 0
EndSplineSet
Validated: 524289
EndChar

StartChar: percent
Encoding: 37 37 5
Width: 590
GlyphClass: 2
Flags: HMW
HStem: -28.0313 75.9731 170.999 74 432 75<163.126 171.459 163.126 174.125> 632 73
VStem: 36.1255 71.919 216.188 70.301 304.056 71.992 423.124 88.8789 482.143 71.7321
LayerCount: 2
Fore
SplineSet
152.125 432 m 0xfe
 128.791992188 432 107.958984375 438.5 89.625 451.5 c 0
 71.29296875 464.5 57.79296875 480.833007812 49.125 500.5 c 0
 40.458984375 520.166992188 36.125 541.333984375 36.125 564.000976562 c 0
 36.125 605.333984375 47.625 639.166992188 70.625 665.5 c 0
 93.625 691.833007812 126.125 705 168.125 705 c 0
 184.79296875 705 200.29296875 702.166992188 214.625 696.5 c 0
 228.958984375 690.833007812 241.791992188 682.333007812 253.125 671 c 0
 264.45703125 659.666992188 273.125 644.166992188 279.125 624.5 c 0
 284.034179688 608.408203125 286.48828125 590.197265625 286.48828125 569.866210938 c 0
 286.48828125 565.348632812 286.3671875 560.7265625 286.125 556 c 0
 284.125 515.333007812 272.291992188 484.5 250.625 463.5 c 0
 228.95703125 442.5 196.125 432 152.125 432 c 0xfe
61.125 19 m 0
 75.125 47.6669921875 108.29296875 107.833984375 160.625 199.500976562 c 0
 212.958984375 291.16796875 265.291992188 383.66796875 317.625 477.000976562 c 0
 369.95703125 570.333984375 405.125 637.000976562 423.125 677.000976562 c 0
 431.125 689.000976562 441.625 696.500976562 454.625 699.500976562 c 0
 458.659179688 700.431640625 462.61328125 700.897460938 466.487304688 700.897460938 c 0
 475.095703125 700.897460938 483.30859375 698.598632812 491.124023438 694.000976562 c 0
 497.794921875 691.036132812 512.002929688 683.4609375 512.002929688 665.655273438 c 0xff
 512.002929688 656.331054688 508.04296875 645.446289062 500.125 633.001953125 c 0
 475.45703125 592.334960938 416.625 488.66796875 323.625 322.000976562 c 0
 230.625 155.333984375 169.125 42.6669921875 139.125 -16 c 0
 126.32421875 -39.630859375 111.889648438 -51.4462890625 95.818359375 -51.4462890625 c 0
 90.125 -51.4462890625 84.228515625 -49.9638671875 78.125 -47 c 0
 61.193359375 -38.95703125 52.728515625 -27.15234375 52.728515625 -11.5849609375 c 0
 52.728515625 -2.6337890625 55.52734375 7.5615234375 61.125 19 c 0
163.125 507 m 0
 179.79296875 507 192.291992188 512.333007812 200.625 523 c 0
 213.095703125 538.962890625 216.1875 561.026367188 216.1875 570.180664062 c 0
 216.1875 590.727539062 211.5 606.000976562 202.125 616.000976562 c 0
 192.125 626.66796875 178.125 632.000976562 160.125 632.000976562 c 0
 144.125 632.000976562 131.79296875 626.16796875 123.125 614.500976562 c 0
 120.20703125 610.572265625 108.045898438 592.4140625 108.045898438 562.6015625 c 0
 108.045898438 546.06640625 111.572265625 533.19921875 118.625 524 c 0
 126.29296875 514 141.125 508.333007812 163.125 507 c 0
419.125 -28 m 0
 395.791992188 -28 375.125 -21.5 357.125 -8.5 c 0
 339.125 4.5 325.625 20.8330078125 316.625 40.5 c 0
 308.24609375 58.810546875 304.0546875 78.4208984375 304.0546875 99.3310546875 c 0
 304.0546875 122.313476562 305.23046875 167.287109375 338.125 205.5 c 0
 360.791992188 231.833007812 393.125 245 435.125 245 c 0
 451.791992188 245 467.291992188 242.333007812 481.625 237 c 0
 495.95703125 231.666992188 508.95703125 223.166992188 520.625 211.5 c 0
 532.291992188 199.833007812 541.125 184.166015625 547.125 164.499023438 c 0
 551.625 149.749023438 553.875 133.217773438 553.875 114.905273438 c 0xfe80
 553.875 108.80078125 553.625 102.499023438 553.125 95.9990234375 c 0
 551.125 55.33203125 539.291992188 24.33203125 517.625 2.9990234375 c 0
 496.615234375 -17.6875 465.10546875 -28.0302734375 423.095703125 -28.0302734375 c 0
 421.78125 -28.0302734375 420.458984375 -28.0205078125 419.125 -28 c 0
430.125 48 m 0
 431.0390625 47.9619140625 431.94140625 47.9443359375 432.83203125 47.9443359375 c 0
 447.522460938 47.9443359375 458.953125 53.1298828125 467.125 63.5009765625 c 0
 468.499023438 65.2451171875 482.142578125 83.193359375 482.142578125 108.302734375 c 0
 482.142578125 150.1015625 464.13671875 171.000976562 428.125 171.000976562 c 0
 412.791992188 171.000976562 400.625 165.16796875 391.625 153.500976562 c 0
 388.4765625 149.418945312 376.046875 131.494140625 376.046875 102.913085938 c 0
 376.046875 86.8427734375 379.740234375 74.0380859375 387.125 64.5 c 0
 395.125 54.1669921875 409.45703125 48.6669921875 430.125 48 c 0
EndSplineSet
Validated: 524289
EndChar

StartChar: ampersand
Encoding: 38 38 6
Width: 590
GlyphClass: 2
Flags: HMW
HStem: -41.998 93.998 -40.3768 21G 645.001 79
VStem: 36.3799 100.997 123.379 95.998 357.377 83.002
LayerCount: 2
Fore
SplineSet
520.376953125 -35 m 0xac
 514.510742188 -38.5849609375 508.287109375 -40.3779296875 501.704101562 -40.3779296875 c 0x6c
 494.8203125 -40.3779296875 487.544921875 -38.41796875 479.876953125 -34.4990234375 c 0
 464.876953125 -26.83203125 451.709960938 -13.6650390625 440.376953125 5.001953125 c 0
 439.043945312 8.3349609375 435.2109375 18.3349609375 428.877929688 35.001953125 c 0
 422.544921875 51.6689453125 417.711914062 63.6689453125 414.37890625 71.001953125 c 1
 412.37890625 68.3349609375 408.045898438 62.66796875 401.37890625 54.0009765625 c 0
 394.711914062 45.333984375 389.711914062 39.0009765625 386.37890625 35.0009765625 c 0
 383.045898438 31.0009765625 377.712890625 25.0009765625 370.379882812 17.0009765625 c 0
 363.046875 9.0009765625 356.546875 2.833984375 350.879882812 -1.4990234375 c 0
 345.212890625 -5.83203125 337.879882812 -10.9990234375 328.879882812 -16.9990234375 c 0
 319.879882812 -22.9990234375 311.212890625 -27.4990234375 302.879882812 -30.4990234375 c 0
 294.546875 -33.4990234375 284.546875 -36.166015625 272.879882812 -38.4990234375 c 0
 261.212890625 -40.83203125 249.379882812 -41.9990234375 237.379882812 -41.9990234375 c 0
 200.046875 -41.9990234375 165.879882812 -32.33203125 134.879882812 -12.9990234375 c 0
 103.879882812 6.333984375 79.712890625 31.6669921875 62.3798828125 63 c 0
 45.046875 94.3330078125 36.3798828125 128.333007812 36.3798828125 165 c 0xb4
 36.3798828125 291 88.3798828125 376.666992188 192.379882812 422 c 1
 186.379882812 432 179.212890625 444 170.879882812 458 c 0
 162.546875 472 156.379882812 481.833007812 152.379882812 487.5 c 0
 148.379882812 493.166992188 144.046875 500.5 139.379882812 509.5 c 0
 134.712890625 518.5 131.545898438 526.333007812 129.87890625 533 c 0
 128.211914062 539.666992188 126.711914062 547.833984375 125.37890625 557.500976562 c 0
 124.045898438 567.16796875 123.37890625 577.66796875 123.37890625 589.000976562 c 0
 123.37890625 601.000976562 124.87890625 612.833984375 127.87890625 624.500976562 c 0
 130.87890625 636.16796875 136.545898438 648.16796875 144.87890625 660.500976562 c 0
 153.211914062 672.833984375 162.87890625 683.666992188 173.87890625 693 c 0
 184.87890625 702.333007812 199.87890625 709.833007812 218.87890625 715.5 c 0
 237.87890625 721.166992188 259.37890625 724 283.37890625 724 c 0
 302.711914062 724 321.711914062 721 340.37890625 715 c 0
 359.045898438 709 375.87890625 700.166992188 390.87890625 688.5 c 0
 405.87890625 676.833007812 417.87890625 661.5 426.87890625 642.5 c 0
 435.87890625 623.5 440.37890625 602.333007812 440.37890625 579 c 0
 440.37890625 557.666992188 437.711914062 537.833984375 432.37890625 519.500976562 c 0
 427.045898438 501.16796875 420.212890625 485.834960938 411.879882812 473.501953125 c 0
 403.546875 461.168945312 393.046875 449.3359375 380.379882812 438.002929688 c 0
 367.712890625 426.669921875 356.045898438 417.669921875 345.37890625 411.002929688 c 0
 334.711914062 404.3359375 322.37890625 397.668945312 308.37890625 391.001953125 c 1
 320.37890625 370.334960938 340.711914062 339.66796875 369.37890625 299.000976562 c 0
 398.045898438 258.333984375 416.37890625 231.333984375 424.37890625 218.000976562 c 1
 429.045898438 227.333984375 434.37890625 238.166992188 440.37890625 250.5 c 0
 446.37890625 262.833007812 450.87890625 272.833007812 453.87890625 280.5 c 0
 456.87890625 288.166992188 459.711914062 293.666992188 462.37890625 297 c 0
 474.37890625 314.333007812 485.87890625 325.166015625 496.87890625 329.499023438 c 0
 501.211914062 331.206054688 505.673828125 332.059570312 510.265625 332.059570312 c 0
 517.330078125 332.059570312 524.701171875 330.0390625 532.37890625 325.998046875 c 0
 543.711914062 320.665039062 550.544921875 310.83203125 552.877929688 296.499023438 c 0
 553.373046875 293.458984375 553.620117188 290.336914062 553.620117188 287.131835938 c 0
 553.620117188 275.225585938 550.206054688 262.181640625 543.376953125 247.999023438 c 0
 540.043945312 241.999023438 530.043945312 228.666015625 513.376953125 207.999023438 c 0
 496.709960938 187.33203125 483.376953125 168.33203125 473.376953125 150.999023438 c 1
 480.709960938 138.33203125 490.876953125 120.165039062 503.876953125 96.498046875 c 0
 516.876953125 72.8310546875 524.709960938 58.998046875 527.376953125 54.998046875 c 0
 535.485351562 42.025390625 539.5390625 27.9560546875 539.5390625 12.7919921875 c 0
 539.5390625 9.25390625 539.318359375 5.65625 538.876953125 1.9990234375 c 0
 536.543945312 -17.333984375 530.376953125 -29.6669921875 520.376953125 -35 c 0xac
219.377929688 572 m 0
 219.377929688 555.333007812 223.7109375 537 232.377929688 517 c 0
 241.044921875 497 251.711914062 479.333007812 264.37890625 464 c 1
 279.045898438 468.666992188 291.545898438 473.5 301.87890625 478.5 c 0
 312.211914062 483.5 322.044921875 490 331.377929688 498 c 0
 340.7109375 506 347.377929688 515.833007812 351.377929688 527.5 c 0
 355.377929688 539.166992188 357.377929688 553 357.377929688 569 c 0
 357.377929688 593.666992188 349.877929688 612.5 334.877929688 625.5 c 0
 319.877929688 638.5 301.7109375 645 280.377929688 645 c 0
 239.7109375 645 219.377929688 620.666992188 219.377929688 572 c 0
137.377929688 174 m 0xb4
 137.377929688 139.333007812 146.708984375 110.33203125 165.375976562 86.9990234375 c 0
 184.04296875 63.666015625 208.375976562 51.9990234375 238.375976562 51.9990234375 c 0
 247.708984375 51.9990234375 256.875976562 52.9990234375 265.875976562 54.9990234375 c 0
 274.875976562 56.9990234375 282.54296875 58.9990234375 288.875976562 60.9990234375 c 0
 295.208984375 62.9990234375 301.875976562 66.33203125 308.875976562 70.9990234375 c 0
 315.875976562 75.666015625 321.375976562 79.4990234375 325.375976562 82.4990234375 c 0
 329.375976562 85.4990234375 334.208984375 90.166015625 339.875976562 96.4990234375 c 0
 345.54296875 102.83203125 349.209960938 107.33203125 350.876953125 109.999023438 c 0
 352.543945312 112.666015625 356.043945312 117.499023438 361.376953125 124.499023438 c 0
 366.709960938 131.499023438 369.709960938 135.666015625 370.376953125 136.999023438 c 0
 358.376953125 162.999023438 348.376953125 183.33203125 340.376953125 197.999023438 c 0
 332.376953125 213.33203125 316.209960938 238.33203125 291.876953125 272.999023438 c 0
 267.543945312 307.666015625 250.376953125 333.333007812 240.376953125 350 c 1
 220.376953125 341.333007812 203.209960938 330.5 188.876953125 317.5 c 0
 174.543945312 304.5 163.7109375 290.166992188 156.377929688 274.5 c 0
 149.044921875 258.833007812 144.044921875 243 141.377929688 227 c 0
 138.7109375 211 137.377929688 193.333007812 137.377929688 174 c 0xb4
EndSplineSet
Validated: 524289
EndChar

StartChar: quotesingle
Encoding: 39 39 7
Width: 590
GlyphClass: 2
Flags: HMW
HStem: 445.91 325.59
VStem: 241.834 106.332
LayerCount: 2
Fore
SplineSet
347.83203125 728 m 0
 348.0546875 719.106445312 348.166015625 708.600585938 348.166015625 696.482421875 c 0
 348.166015625 672.263671875 347.721679688 641.603515625 346.833007812 604.500976562 c 0
 345.5 548.833984375 343.166992188 509.333984375 339.833984375 486.000976562 c 0
 337.833984375 472.000976562 332.000976562 461.66796875 322.333984375 455.000976562 c 0
 313.545898438 448.940429688 304.344726562 445.91015625 294.73046875 445.91015625 c 0
 293.768554688 445.91015625 292.802734375 445.940429688 291.833007812 446.000976562 c 0
 278.5 446.66796875 266.666992188 451.000976562 256.333984375 459.000976562 c 0
 247.181640625 466.086914062 242.60546875 475.526367188 242.60546875 487.319335938 c 0
 242.60546875 490.916015625 245.083984375 520.942382812 245.083984375 578.998046875 c 0
 245.083984375 589.666015625 245.000976562 600.666992188 244.833984375 612.000976562 c 0
 244.166992188 657.333984375 243.166992188 697.666992188 241.833984375 733 c 0
 241.833984375 741 243.333984375 748 246.333984375 754 c 0
 249.333984375 760 254.000976562 764.166992188 260.333984375 766.5 c 0
 266.666992188 768.833007812 272.833984375 770.5 278.833984375 771.5 c 0
 284.833984375 772.5 290.833984375 772.666992188 296.833984375 772 c 0
 302.833984375 772 308.500976562 771.333007812 313.833984375 770 c 0
 319.166992188 768.666992188 324.5 766.5 329.833007812 763.5 c 0
 335.166015625 760.5 339.499023438 756 342.83203125 750 c 0
 346.165039062 744 347.83203125 736.666992188 347.83203125 728 c 0
EndSplineSet
Validated: 524289
EndChar

StartChar: parenleft
Encoding: 40 40 8
Width: 590
GlyphClass: 2
Flags: HMW
HStem: -130.998 83.998 733.002 81
VStem: 145.548 97.3819
LayerCount: 2
Fore
SplineSet
443.4296875 -93 m 0
 443.4296875 -103.666992188 439.09765625 -112.6640625 430.430664062 -119.997070312 c 0
 421.763671875 -127.330078125 412.763671875 -130.997070312 403.430664062 -130.997070312 c 0
 358.763671875 -130.997070312 318.263671875 -114.997070312 281.930664062 -82.9970703125 c 0
 245.59765625 -50.9970703125 215.930664062 -6.6640625 192.930664062 50.0029296875 c 0
 169.930664062 106.669921875 155.09765625 172.002929688 148.430664062 246.002929688 c 0
 146.508789062 266.04296875 145.547851562 288.569335938 145.547851562 313.58203125 c 0
 145.547851562 349.314453125 147.508789062 390.12109375 151.430664062 436.002929688 c 0
 158.09765625 514.002929688 171.09765625 578.3359375 190.430664062 629.002929688 c 0
 199.09765625 651.002929688 210.59765625 672.8359375 224.930664062 694.502929688 c 0
 239.263671875 716.169921875 255.596679688 736.002929688 273.9296875 754.002929688 c 0
 292.262695312 772.002929688 312.9296875 786.502929688 335.9296875 797.502929688 c 0
 358.9296875 808.502929688 381.762695312 814.002929688 404.4296875 814.002929688 c 0
 431.111328125 814.002929688 444.452148438 800.979492188 444.452148438 774.93359375 c 0
 444.452148438 767.493164062 444.306640625 751.90625 432.428710938 742.502929688 c 0
 424.428710938 736.169921875 414.428710938 733.002929688 402.428710938 733.002929688 c 0
 385.095703125 733.002929688 368.928710938 728.002929688 353.928710938 718.002929688 c 0
 338.928710938 708.002929688 325.76171875 694.3359375 314.428710938 677.002929688 c 0
 303.095703125 659.669921875 293.262695312 640.669921875 284.9296875 620.002929688 c 0
 276.596679688 599.3359375 269.4296875 577.002929688 263.4296875 553.002929688 c 0
 254.762695312 518.3359375 248.762695312 470.668945312 245.4296875 410.001953125 c 0
 243.763671875 379.66796875 242.930664062 352.16796875 242.930664062 327.500976562 c 0
 242.930664062 302.833984375 243.763671875 281.000976562 245.4296875 262.000976562 c 0
 248.762695312 221.333984375 255.9296875 181.833984375 266.9296875 143.500976562 c 0
 277.9296875 105.16796875 290.762695312 72.16796875 305.4296875 44.5009765625 c 0
 320.096679688 16.833984375 336.096679688 -5.3330078125 353.4296875 -22 c 0
 370.762695312 -38.6669921875 387.4296875 -47 403.4296875 -47 c 0
 416.762695312 -47 426.762695312 -50.3330078125 433.4296875 -57 c 0
 440.096679688 -63.6669921875 443.4296875 -75.6669921875 443.4296875 -93 c 0
EndSplineSet
Validated: 524289
EndChar

StartChar: parenright
Encoding: 41 41 9
Width: 590
GlyphClass: 2
Flags: HMW
HStem: -131.005 84 732.998 81.002
VStem: 345.192 99.2482
LayerCount: 2
Fore
SplineSet
441.55859375 246 m 0
 434.225585938 172 419.0625 106.662109375 396.0625 49.9951171875 c 0
 373.0625 -6.671875 343.5625 -51.0048828125 307.5625 -83.0048828125 c 0
 271.5625 -115.004882812 231.229492188 -131.004882812 186.5625 -131.004882812 c 0
 177.229492188 -131.004882812 168.229492188 -127.337890625 159.5625 -120.004882812 c 0
 150.89453125 -112.671875 146.5625 -103.671875 146.5625 -93.0048828125 c 0
 146.5625 -75.671875 150.0625 -63.671875 157.0625 -57.0048828125 c 0
 164.0625 -50.337890625 173.89453125 -47.0048828125 186.5625 -47.0048828125 c 0
 201.89453125 -47.0048828125 218.0625 -38.671875 235.0625 -22.0048828125 c 0
 252.0625 -5.337890625 267.89453125 16.8291015625 282.5625 44.49609375 c 0
 297.229492188 72.1630859375 310.229492188 105.330078125 321.5625 143.997070312 c 0
 332.89453125 182.6640625 339.89453125 221.997070312 342.5625 261.997070312 c 0
 344.31640625 281.998046875 345.193359375 305.137695312 345.193359375 331.416992188 c 0
 345.193359375 355.067382812 344.482421875 381.260742188 343.061523438 409.997070312 c 0
 340.061523438 470.6640625 333.89453125 518.331054688 324.561523438 552.998046875 c 0
 319.228515625 576.998046875 312.561523438 599.331054688 304.561523438 619.998046875 c 0
 296.561523438 640.665039062 286.728515625 659.665039062 275.061523438 676.998046875 c 0
 263.39453125 694.331054688 250.2265625 707.998046875 235.560546875 717.998046875 c 0
 220.893554688 727.998046875 205.2265625 732.998046875 188.55859375 732.998046875 c 0
 175.892578125 732.998046875 165.55859375 736.165039062 157.55859375 742.498046875 c 0
 149.55859375 748.831054688 145.55859375 758.998046875 145.55859375 772.998046875 c 0
 145.55859375 781.665039062 146.55859375 788.83203125 148.55859375 794.499023438 c 0
 150.55859375 800.166015625 154.05859375 804.333007812 159.05859375 807 c 0
 164.05859375 809.666992188 168.392578125 811.5 172.05859375 812.5 c 0
 175.7265625 813.5 180.2265625 814 185.55859375 814 c 0
 208.2265625 814 231.05859375 808.5 254.05859375 797.5 c 0
 277.05859375 786.5 297.55859375 772 315.55859375 754 c 0
 333.55859375 736 349.7265625 716.166992188 364.05859375 694.5 c 0
 378.392578125 672.833007812 390.225585938 651 399.55859375 629 c 0
 418.890625 578.333007812 431.890625 514 438.55859375 436 c 0
 442.48046875 390.118164062 444.44140625 349.311523438 444.44140625 313.579101562 c 0
 444.44140625 288.56640625 443.48046875 266.040039062 441.55859375 246 c 0
EndSplineSet
Validated: 524289
EndChar

StartChar: asterisk
Encoding: 42 42 10
Width: 590
GlyphClass: 2
Flags: HMW
HStem: 292.998 103.999 306.499 76.5001
LayerCount: 2
Fore
SplineSet
242.001953125 139 m 0x40
 239.333984375 131 234.83203125 124.999023438 228.498046875 120.999023438 c 0
 222.166015625 116.999023438 215.166015625 114.666015625 207.498046875 113.999023438 c 0
 199.83203125 113.33203125 192.498046875 113.83203125 185.498046875 115.499023438 c 0
 178.498046875 117.166015625 172.33203125 119.333007812 166.998046875 122 c 0
 160.998046875 125.333007812 155.998046875 130.166015625 151.998046875 136.499023438 c 0
 147.998046875 142.83203125 145.33203125 150.665039062 143.998046875 159.998046875 c 0
 142.666015625 169.331054688 144.666015625 178.998046875 149.998046875 188.998046875 c 2
 216.998046875 297.998046875 l 1
 162.33203125 294.665039062 121.998046875 292.998046875 95.998046875 292.998046875 c 0
 79.998046875 292.998046875 67.33203125 298.331054688 57.998046875 308.998046875 c 0
 48.666015625 319.665039062 43.998046875 330.998046875 43.998046875 342.998046875 c 0
 43.998046875 348.998046875 44.83203125 355.165039062 46.498046875 361.498046875 c 0
 48.166015625 367.831054688 50.666015625 373.831054688 53.998046875 379.498046875 c 0
 57.33203125 385.165039062 62.498046875 389.665039062 69.498046875 392.998046875 c 0
 76.498046875 396.331054688 84.33203125 397.6640625 92.998046875 396.997070312 c 0x80
 123.666015625 394.330078125 168.998046875 390.997070312 228.998046875 386.997070312 c 1
 200.33203125 435.6640625 176.665039062 472.997070312 157.998046875 498.997070312 c 0
 150.079101562 512.006835938 146.119140625 524.776367188 146.119140625 537.306640625 c 0
 146.119140625 539.544921875 146.24609375 541.775390625 146.498046875 543.998046875 c 0
 148.166015625 558.665039062 154.333007812 568.33203125 165 572.999023438 c 0
 171 576.999023438 178.5 579.166015625 187.5 579.499023438 c 0
 196.5 579.83203125 205.666015625 577.33203125 215 571.999023438 c 0
 224.333007812 566.666015625 231.666015625 558.666015625 236.998046875 547.999023438 c 0
 244.33203125 531.999023438 263.998046875 493.666015625 295.998046875 432.999023438 c 1
 322.666015625 478.33203125 342.666015625 516.33203125 355.998046875 546.999023438 c 0
 360.666015625 557.666015625 367.498046875 565.666015625 376.498046875 570.999023438 c 0
 385.498046875 576.33203125 394.166015625 578.83203125 402.498046875 578.499023438 c 0
 410.83203125 578.166015625 417.998046875 575.666015625 423.998046875 570.999023438 c 0
 430.666015625 567.666015625 436.166015625 562.333007812 440.498046875 555 c 0
 444.83203125 547.666992188 446.998046875 539 446.998046875 529 c 0
 446.998046875 519 443.666015625 509.333007812 436.998046875 500 c 0
 415.666015625 468.666992188 392.333007812 429.666992188 367 383 c 1
 425 383 466.333007812 386.666992188 491 394 c 0
 495.666015625 395.485351562 500.130859375 396.227539062 504.392578125 396.227539062 c 0
 513.525390625 396.227539062 521.728515625 392.818359375 529.000976562 386 c 0
 539.66796875 376 545.333984375 365.333007812 546.001953125 354 c 0
 546.001953125 348 545.333984375 342 544.001953125 336 c 0
 542.668945312 330 540.3359375 324 537.001953125 318 c 0
 533.669921875 312 529.001953125 307.333007812 523.001953125 304 c 0
 517.001953125 300.666992188 509.669921875 300 501.001953125 302 c 0
 484.001953125 305 454.813476562 306.5 413.4375 306.5 c 0
 399.646484375 306.5 384.500976562 306.333007812 368.001953125 306 c 1
 435.001953125 190 l 2
 440.9765625 177.506835938 443.962890625 166.23046875 443.962890625 156.170898438 c 0
 443.962890625 153.883789062 443.809570312 151.66015625 443.500976562 149.499023438 c 0
 441.833984375 137.83203125 437.000976562 129.33203125 429.000976562 123.999023438 c 0
 422.333984375 119.999023438 413.833984375 117.666015625 403.500976562 116.999023438 c 0
 402.208984375 116.916015625 400.916015625 116.874023438 399.625 116.874023438 c 2
 372.501953125 122.999023438 l 2
 362.168945312 127.666015625 355.668945312 135.333007812 353.001953125 146 c 0
 344.333984375 172.666992188 326.66796875 211 300.000976562 261 c 1
 268.66796875 199.666992188 249.333984375 159 242.001953125 139 c 0x40
EndSplineSet
Validated: 524289
EndChar

StartChar: plus
Encoding: 43 43 11
Width: 590
GlyphClass: 2
Flags: HMW
HStem: 359.8 79.1992
VStem: 253.04 80.9971
LayerCount: 2
Fore
SplineSet
334.037109375 250 m 0
 334.037109375 234.666992188 330.708007812 223.833007812 324.041015625 217.5 c 0
 317.374023438 211.166992188 308.041015625 208 296.041015625 208 c 0
 267.374023438 208 253.041015625 222 253.041015625 250 c 2
 253.041015625 357 l 1
 239.708007812 357 221.708007812 356.833007812 199.041015625 356.5 c 0
 176.374023438 356.166992188 160.70703125 356 152.040039062 356 c 0
 135.373046875 356 123.040039062 360.166992188 115.040039062 368.5 c 0
 103.399414062 380.625 102.962890625 393.616210938 102.962890625 401.888671875 c 0
 102.962890625 413.296875 106.655273438 423.000976562 114.040039062 431.000976562 c 0
 121.46875 439.048828125 132.6328125 443.072265625 147.533203125 443.072265625 c 0
 148.6796875 443.072265625 149.848632812 443.048828125 151.040039062 443.000976562 c 0
 197.70703125 441.66796875 231.70703125 441.000976562 253.040039062 441.000976562 c 1
 253.040039062 499.8203125 250.955078125 548.575195312 250.955078125 552.581054688 c 0
 250.955078125 578.860351562 265.31640625 592 294.040039062 592 c 0
 295.374023438 592.06640625 296.682617188 592.099609375 297.965820312 592.099609375 c 0
 309.514648438 592.099609375 319.0390625 589.399414062 326.538085938 584 c 0
 333.721679688 578.827148438 337.313476562 569.69140625 337.313476562 556.590820312 c 0
 337.313476562 554.495117188 337.221679688 552.297851562 337.038085938 549.999023438 c 0
 335.038085938 511.33203125 334.038085938 474.33203125 334.038085938 438.999023438 c 1
 444.038085938 438.999023438 l 2
 459.37109375 438.999023438 470.204101562 435.666015625 476.537109375 428.999023438 c 0
 482.870117188 422.33203125 486.370117188 413.33203125 487.037109375 401.999023438 c 0
 487.037109375 395.999023438 486.370117188 390.499023438 485.037109375 385.499023438 c 0
 483.704101562 380.499023438 481.704101562 375.666015625 479.037109375 370.999023438 c 0
 476.370117188 366.33203125 472.037109375 362.83203125 466.037109375 360.499023438 c 0
 460.037109375 358.166015625 452.704101562 357.333007812 444.037109375 358 c 0
 433.637695312 359.200195312 416.158203125 359.799804688 391.598632812 359.799804688 c 0
 375.224609375 359.799804688 355.704101562 359.533203125 333.037109375 359 c 1
 333.037109375 341 333.204101562 319.666992188 333.537109375 295 c 0
 333.870117188 270.333007812 334.037109375 255.333007812 334.037109375 250 c 0
EndSplineSet
Validated: 524289
EndChar

StartChar: comma
Encoding: 44 44 12
Width: 590
GlyphClass: 2
Flags: HMW
VStem: 192.51 204.501
LayerCount: 2
Fore
SplineSet
397.010742188 96 m 0
 390.34375 63.3330078125 376.010742188 12.9990234375 354.010742188 -55.0009765625 c 0
 332.010742188 -123.000976562 315.010742188 -165.000976562 303.010742188 -181.000976562 c 0
 292.34375 -195.000976562 278.84375 -205.000976562 262.510742188 -211.000976562 c 0
 252.7109375 -214.600585938 243.811523438 -216.400390625 235.811523438 -216.400390625 c 0
 230.478515625 -216.400390625 225.544921875 -215.600585938 221.01171875 -214.000976562 c 0
 214.344726562 -212.000976562 208.177734375 -208.000976562 202.510742188 -202.000976562 c 0
 196.84375 -196.000976562 193.510742188 -188.66796875 192.510742188 -180.000976562 c 0
 191.510742188 -171.333984375 194.010742188 -162.333984375 200.010742188 -153.000976562 c 0
 214.010742188 -133.000976562 233.34375 -89.0009765625 258.010742188 -21.0009765625 c 0
 282.677734375 46.9990234375 297.677734375 94.33203125 303.010742188 120.999023438 c 0
 305.010742188 130.33203125 309.677734375 137.665039062 317.010742188 142.998046875 c 0
 324.34375 148.331054688 332.010742188 150.998046875 340.010742188 150.998046875 c 0
 348.010742188 150.998046875 356.010742188 150.331054688 364.010742188 148.998046875 c 0
 374.677734375 145.665039062 383.344726562 139.33203125 390.01171875 129.999023438 c 0
 395.139648438 122.8203125 397.703125 114.458007812 397.703125 104.912109375 c 0
 397.703125 102.047851562 397.47265625 99.0771484375 397.010742188 96 c 0
EndSplineSet
Validated: 524289
EndChar

StartChar: hyphen
Encoding: 45 45 13
Width: 590
GlyphClass: 2
Flags: HMW
HStem: 243 87<169.763 195.429> 251 82<403.097 413.763 403.097 420.429>
VStem: 140.905 308.191
LayerCount: 2
Fore
SplineSet
182.095703125 330 m 0xa0
 220.095703125 330 265.4296875 330.5 318.096679688 331.5 c 0
 370.763671875 332.5 400.096679688 333 406.096679688 333 c 0
 421.4296875 333 432.262695312 329.5 438.595703125 322.5 c 0
 444.928710938 315.5 448.428710938 306.333007812 449.095703125 295 c 0
 449.095703125 265.666992188 434.762695312 251 406.095703125 251 c 0x60
 397.428710938 251 363.928710938 249.666992188 305.595703125 247 c 0
 247.262695312 244.333007812 206.762695312 243 184.095703125 243 c 0
 155.428710938 243 141.095703125 257.333007812 141.095703125 286 c 0
 140.967773438 287.872070312 140.904296875 289.684570312 140.904296875 291.4375 c 0
 140.904296875 317.145507812 154.634765625 330 182.095703125 330 c 0xa0
EndSplineSet
Validated: 524289
EndChar

StartChar: period
Encoding: 46 46 14
Width: 590
GlyphClass: 2
Flags: HMW
HStem: -14.5617 154.604
VStem: 212.999 164.001
LayerCount: 2
Fore
SplineSet
297 -14 m 0
 293.536132812 -14.3740234375 290.161132812 -14.5615234375 286.875 -14.5615234375 c 0
 266.7578125 -14.5615234375 249.965820312 -7.5439453125 236.5 6.49609375 c 0
 220.83203125 22.8291015625 213 41.99609375 213 63.99609375 c 0
 213 84.6630859375 221.83203125 102.330078125 239.5 116.997070312 c 0
 257.166015625 131.6640625 276.333007812 139.331054688 297 139.998046875 c 0
 298.037109375 140.02734375 299.06640625 140.041992188 300.087890625 140.041992188 c 0
 322.029296875 140.041992188 340.16796875 133.194335938 354.5 119.499023438 c 0
 369.5 105.166015625 377 86.9990234375 377 64.9990234375 c 0
 377 43.666015625 369.66796875 25.8330078125 355 11.5 c 0
 340.333007812 -2.8330078125 321 -11.3330078125 297 -14 c 0
EndSplineSet
Validated: 524289
EndChar

StartChar: slash
Encoding: 47 47 15
Width: 590
GlyphClass: 2
Flags: W
LayerCount: 2
Fore
SplineSet
536.029296875 676 m 0
 518.696289062 642 470.029296875 558.49609375 390.029296875 425.49609375 c 0
 310.029296875 292.49609375 261.362304688 209.99609375 244.029296875 177.99609375 c 0
 233.362304688 157.329101562 216.029296875 122.329101562 192.029296875 72.99609375 c 0
 168.029296875 23.6630859375 153.029296875 -6.3369140625 147.029296875 -17.00390625 c 0
 136.362304688 -35.6708984375 122.862304688 -48.6708984375 106.529296875 -56.00390625 c 0
 98.3623046875 -59.669921875 90.7373046875 -61.5029296875 83.654296875 -61.5029296875 c 0
 76.5712890625 -61.5029296875 70.029296875 -59.669921875 64.029296875 -56.0029296875 c 0
 54.029296875 -50.669921875 48.029296875 -38.3369140625 46.029296875 -19.00390625 c 0
 45.6767578125 -15.5927734375 45.5 -12.2333984375 45.5 -8.92578125 c 0
 45.5 6.51171875 49.34375 20.8193359375 57.0302734375 33.99609375 c 0
 154.36328125 193.99609375 237.696289062 336.329101562 307.029296875 460.99609375 c 0
 350.362304688 537.663085938 396.362304688 624.330078125 445.029296875 720.997070312 c 0
 450.362304688 731.6640625 457.6953125 739.831054688 467.028320312 745.498046875 c 0
 476.361328125 751.165039062 485.361328125 753.83203125 494.028320312 753.499023438 c 0
 502.6953125 753.166015625 511.362304688 751.333007812 520.029296875 748 c 0
 532.029296875 742 539.696289062 732.666992188 543.029296875 720 c 0
 544.009765625 716.274414062 544.5 712.375976562 544.5 708.3046875 c 0
 544.5 698.533203125 541.676757812 687.764648438 536.029296875 676 c 0
EndSplineSet
Validated: 524289
EndChar

StartChar: zero
Encoding: 48 48 16
Width: 590
GlyphClass: 2
Flags: HMW
HStem: -24 83.999 636.999 81.001
VStem: 59.0782 95.502 434.082 96.8403
LayerCount: 2
Fore
SplineSet
273.076171875 -24 m 0
 241.743164062 -24 212.912109375 -18.33203125 186.579101562 -6.9990234375 c 0
 160.24609375 4.333984375 137.74609375 20.0009765625 119.079101562 40.0009765625 c 0
 100.412109375 60.0009765625 85.7451171875 85.0009765625 75.078125 115.000976562 c 0
 65.0390625 143.235351562 60.01953125 174.126953125 60.01953125 207.67578125 c 0
 60.01953125 209.7734375 60.0390625 211.881835938 60.078125 214 c 0
 60.078125 220.666992188 59.9111328125 237.166992188 59.578125 263.5 c 0
 59.2451171875 289.833007812 59.078125 310.833007812 59.078125 326.5 c 0
 59.078125 342.166992188 59.578125 363.833984375 60.578125 391.500976562 c 0
 61.578125 419.16796875 63.4111328125 443.000976562 66.078125 463.000976562 c 0
 68.7451171875 483.000976562 72.2451171875 504.500976562 76.578125 527.500976562 c 0
 80.9111328125 550.500976562 86.744140625 570.66796875 94.0771484375 588.000976562 c 0
 110.077148438 630.000976562 137.077148438 662.16796875 175.077148438 684.500976562 c 0
 213.077148438 706.833984375 259.41015625 718.000976562 314.077148438 718.000976562 c 0
 341.41015625 718.000976562 367.077148438 713.333984375 391.077148438 704.000976562 c 0
 415.077148438 694.66796875 436.41015625 681.000976562 455.077148438 663.000976562 c 0
 473.744140625 645.000976562 489.244140625 621.66796875 501.577148438 593.000976562 c 0
 513.91015625 564.333984375 521.743164062 531.333984375 525.076171875 494.000976562 c 0
 527.743164062 460.66796875 529.576171875 422.834960938 530.576171875 380.501953125 c 0
 530.806640625 370.733398438 530.921875 360.947265625 530.921875 351.143554688 c 0
 530.921875 318.459960938 529.639648438 285.579101562 527.076171875 252.500976562 c 0
 523.743164062 209.500976562 519.076171875 176.66796875 513.076171875 154.000976562 c 0
 507.076171875 131.333984375 500.409179688 111.333984375 493.076171875 94.0009765625 c 0
 485.743164062 76.66796875 477.91015625 61.66796875 469.577148438 49.0009765625 c 0
 461.244140625 36.333984375 451.911132812 25.6669921875 441.578125 17 c 0
 431.245117188 8.3330078125 420.245117188 1.3330078125 408.578125 -4 c 0
 396.911132812 -9.3330078125 383.744140625 -13.5 369.077148438 -16.5 c 0
 354.41015625 -19.5 339.743164062 -21.5 325.076171875 -22.5 c 0
 310.409179688 -23.5 293.076171875 -24 273.076171875 -24 c 0
158.078125 230.000976562 m 0
 158.078125 227.333984375 158.249023438 223.333984375 158.58203125 218.000976562 c 0
 158.915039062 212.66796875 159.08203125 209.000976562 159.08203125 207.000976562 c 1
 248.415039062 329.000976562 328.748046875 454.333984375 400.081054688 583.000976562 c 1
 388.081054688 600.333984375 373.4140625 613.666992188 356.081054688 623 c 0
 338.748046875 632.333007812 320.081054688 637 300.081054688 637 c 0
 262.748046875 637 233.581054688 626.666992188 212.581054688 606 c 0
 191.581054688 585.333007812 175.748046875 552 165.081054688 506 c 0
 161.081054688 489.333007812 158.248046875 469.833007812 156.581054688 447.5 c 0
 155.19140625 428.885742188 154.497070312 407.029296875 154.497070312 381.930664062 c 0
 154.497070312 376.916992188 154.524414062 371.7734375 154.580078125 366.500976562 c 0
 154.913085938 334.833984375 155.24609375 312.500976562 155.579101562 299.500976562 c 0
 155.912109375 286.500976562 156.745117188 263.333984375 158.078125 230.000976562 c 0
419.08203125 168.000976562 m 0
 421.749023438 176.000976562 424.58203125 198 427.58203125 234 c 0
 430.58203125 270 432.749023438 311.166992188 434.08203125 357.5 c 0
 434.462890625 370.736328125 434.653320312 383.823242188 434.653320312 396.760742188 c 0
 434.653320312 429.109375 433.462890625 460.522460938 431.08203125 491 c 1
 359.749023438 344.333007812 275.749023438 221.333007812 179.08203125 122 c 1
 197.08203125 80.6669921875 228.415039062 60 273.08203125 60 c 0
 291.08203125 60 307.249023438 61.5 321.58203125 64.5 c 0
 335.915039062 67.5 349.58203125 72.8330078125 362.58203125 80.5 c 0
 375.58203125 88.1669921875 386.58203125 99.333984375 395.58203125 114.000976562 c 0
 404.58203125 128.66796875 412.415039062 146.66796875 419.08203125 168.000976562 c 0
EndSplineSet
Validated: 524289
EndChar

StartChar: one
Encoding: 49 49 17
Width: 590
GlyphClass: 2
Flags: HMW
HStem: -9 85.5 -5 89<88.0044 111.004 88.0044 111.004> 511.539 21G
VStem: 247.337 96.6644 257.003 91.498
LayerCount: 2
Fore
SplineSet
538.08203125 34.8388671875 m 0xb0
 538.08203125 22.892578125 534.556640625 12.779296875 527.50390625 4.5 c 0
 519.837890625 -4.5 506.337890625 -9 487.00390625 -9 c 0xb0
 478.337890625 -9 418.837890625 -8.3330078125 308.50390625 -7 c 0
 198.170898438 -5.6669921875 127.00390625 -5 95.00390625 -5 c 0
 80.337890625 -5 69.50390625 -1 62.50390625 7 c 0
 55.50390625 15 52.00390625 25.3330078125 52.00390625 38 c 0
 51.947265625 39.16015625 51.91796875 40.302734375 51.91796875 41.4267578125 c 0
 51.91796875 53.2294921875 55.11328125 63.0869140625 61.50390625 71 c 0
 68.50390625 79.6669921875 80.00390625 84 96.00390625 84 c 0
 126.00390625 84 177.00390625 83.6669921875 249.00390625 83 c 1
 249.00390625 109.666992188 248.670898438 131 248.00390625 147 c 0
 247.55859375 150.556640625 247.3359375 159.600585938 247.3359375 174.131835938 c 0x70
 247.3359375 181.38671875 247.392578125 190.009765625 247.502929688 200 c 0
 247.8359375 230 248.002929688 251.666992188 248.002929688 265 c 0
 248.002929688 278.333007812 248.669921875 303 250.002929688 339 c 0
 251.3359375 375 252.3359375 401.833007812 253.002929688 419.5 c 0
 253.669921875 437.166992188 255.002929688 465.166992188 257.002929688 503.5 c 0
 259.002929688 541.833007812 260.3359375 570 261.002929688 588 c 1
 211.669921875 546.666992188 175.669921875 522 153.002929688 514 c 0
 148.900390625 512.359375 144.783203125 511.5390625 140.6484375 511.5390625 c 0
 131.346679688 511.5390625 121.96484375 515.692382812 112.502929688 524 c 0
 99.47265625 535.44140625 92.95703125 546.8828125 92.95703125 558.32421875 c 0
 92.95703125 558.8828125 92.97265625 559.44140625 93.00390625 560 c 0
 93.00390625 570.666992188 95.3359375 580.166992188 100.002929688 588.5 c 0
 104.669921875 596.833007812 113.002929688 605.333007812 125.002929688 614 c 0
 144.3359375 628.666992188 164.669921875 644.833984375 186.001953125 662.500976562 c 0
 207.334960938 680.16796875 222.66796875 693.000976562 232.001953125 701.000976562 c 0
 241.333984375 709.000976562 251.001953125 715.833984375 261.001953125 721.500976562 c 0
 271.001953125 727.16796875 279.66796875 730.000976562 287.001953125 730.000976562 c 0
 301.001953125 730.000976562 315.66796875 724.000976562 331.001953125 712.000976562 c 0
 346.333984375 700.000976562 354.001953125 690.000976562 354.001953125 682.000976562 c 0
 354.001953125 666.66796875 352.16796875 612.16796875 348.501953125 518.500976562 c 0x68
 344.833984375 424.833984375 343.001953125 370.000976562 343.001953125 354.000976562 c 0
 343.001953125 287.333984375 343.333984375 231.666992188 344.001953125 187 c 0
 344.001953125 162.333007812 344.66796875 126.333007812 346.001953125 79 c 1
 365.333984375 79 385.666992188 78.6669921875 407 78 c 0
 428.333984375 77.3330078125 445.833984375 76.8330078125 459.5 76.5 c 0
 473.166992188 76.1669921875 483 76 489 76 c 0
 507.666992188 76 520.333984375 72.5 527.001953125 65.5 c 0
 532.42578125 59.8046875 538.08203125 50.1865234375 538.08203125 34.8388671875 c 0xb0
EndSplineSet
Validated: 524289
EndChar

StartChar: two
Encoding: 50 50 18
Width: 590
GlyphClass: 2
Flags: HMW
HStem: -18.0049 84.0049 -14.0059 91.0059 637.997 83.999
VStem: 61.8342 99.9971 414.833 98.9971
LayerCount: 2
Fore
SplineSet
494.83203125 -12 m 0x78
 466.83203125 -12 432.001953125 -12.6728515625 390.334960938 -14.005859375 c 0x78
 348.66796875 -15.3388671875 311.834960938 -16.671875 279.834960938 -18.0048828125 c 0
 247.834960938 -19.337890625 215.001953125 -20.0048828125 181.334960938 -20.0048828125 c 0
 147.66796875 -20.0048828125 121.500976562 -18.671875 102.833984375 -16.0048828125 c 0
 88.1669921875 -14.671875 77.6669921875 -5.671875 71.333984375 10.9951171875 c 0
 65.0009765625 27.662109375 61.833984375 51.662109375 61.833984375 82.9951171875 c 0
 61.833984375 111.662109375 68.0009765625 141.829101562 80.333984375 173.49609375 c 0
 92.6669921875 205.163085938 110.833984375 235.49609375 134.833984375 264.49609375 c 0
 158.833984375 293.49609375 186.833984375 316.99609375 218.833984375 334.99609375 c 0
 290.166992188 374.99609375 336.166992188 402.99609375 356.833984375 418.99609375 c 0
 384.166992188 440.329101562 401.5 462.99609375 408.833007812 486.99609375 c 0
 412.833007812 500.99609375 414.833007812 518.329101562 414.833007812 538.99609375 c 0
 414.833007812 573.663085938 404.666015625 598.830078125 384.333007812 614.497070312 c 0
 364 630.1640625 335.166992188 637.997070312 297.833984375 637.997070312 c 0
 271.833984375 637.997070312 247.000976562 629.997070312 223.333984375 613.997070312 c 0
 199.666992188 597.997070312 181.5 580.330078125 168.833007812 560.997070312 c 0
 162.833007812 552.330078125 157.166015625 545.497070312 151.833007812 540.497070312 c 0
 146.5 535.497070312 140.833007812 532.6640625 134.833007812 531.997070312 c 0
 128.833007812 531.330078125 123.5 531.663085938 118.833007812 532.99609375 c 0
 114.166015625 534.329101562 107.833007812 536.662109375 99.8330078125 539.995117188 c 0
 88.5 545.995117188 81.5 554.662109375 78.8330078125 565.995117188 c 0
 78.166015625 568.828125 77.8330078125 571.870117188 77.8330078125 575.120117188 c 0
 77.8330078125 584.870117188 80.8330078125 596.495117188 86.8330078125 609.995117188 c 0
 93.5 622.662109375 103.5 635.329101562 116.833007812 647.99609375 c 0
 130.166015625 660.663085938 145.499023438 672.663085938 162.83203125 683.99609375 c 0
 180.165039062 695.329101562 200.498046875 704.49609375 223.831054688 711.49609375 c 0
 247.1640625 718.49609375 270.497070312 721.99609375 293.830078125 721.99609375 c 0
 365.830078125 721.99609375 420.497070312 705.329101562 457.830078125 671.99609375 c 0
 495.163085938 638.663085938 513.830078125 588.663085938 513.830078125 521.99609375 c 0
 513.830078125 466.663085938 499.830078125 422.330078125 471.830078125 388.997070312 c 0
 451.163085938 364.330078125 413.830078125 336.997070312 359.830078125 306.997070312 c 0
 346.497070312 298.997070312 323.497070312 286.6640625 290.830078125 269.997070312 c 0
 262.163085938 254.6640625 238.163085938 235.831054688 218.830078125 213.498046875 c 0
 199.497070312 191.165039062 185.6640625 168.33203125 177.331054688 144.999023438 c 0
 168.998046875 121.666015625 163.831054688 96.3330078125 161.831054688 69 c 1
 199.1640625 67 235.1640625 66 269.831054688 66 c 0xb8
 304.498046875 66 331.498046875 66.5 350.831054688 67.5 c 0
 370.1640625 68.5 392.497070312 70 417.830078125 72 c 0
 443.163085938 74 459.830078125 75.3330078125 467.830078125 76 c 0
 468.497070312 76 471.6640625 76.1669921875 477.331054688 76.5 c 0
 482.998046875 76.8330078125 486.831054688 77 488.831054688 77 c 2
 498.831054688 77 l 2
 503.498046875 77 506.998046875 76.3330078125 509.331054688 75 c 0
 511.6640625 73.6669921875 514.331054688 72 517.331054688 70 c 0
 520.331054688 68 522.6640625 65.3330078125 524.331054688 62 c 0
 525.998046875 58.6669921875 527.165039062 54.6669921875 527.83203125 50 c 0
 528.499023438 42 528.166015625 33.5 526.833007812 24.5 c 0
 525.5 15.5 522 7.1669921875 516.333007812 -0.5 c 0
 510.666015625 -8.1669921875 503.499023438 -12 494.83203125 -12 c 0x78
EndSplineSet
Validated: 524289
EndChar

StartChar: three
Encoding: 51 51 19
Width: 590
GlyphClass: 2
Flags: HMW
HStem: -23.9941 84 318.006 100 638.006 83.998
VStem: 402.02 99.0491 424.002 99.998
LayerCount: 2
Fore
SplineSet
524 199 m 0xe8
 524 130.333007812 502.830078125 76.0078125 460.497070312 36.0078125 c 0
 418.1640625 -3.9921875 358.6640625 -23.9921875 281.997070312 -23.9921875 c 0
 258.6640625 -23.9921875 235.33203125 -20.4921875 211.998046875 -13.4921875 c 0
 188.665039062 -6.4921875 168.498046875 2.5078125 151.498046875 13.5078125 c 0
 134.498046875 24.5078125 119.33203125 36.5078125 105.998046875 49.5078125 c 0
 92.666015625 62.5078125 82.33203125 75.3408203125 75 88.0078125 c 0
 69 99.5078125 66 110.2578125 66 120.2578125 c 0
 66 123.590820312 66.33203125 126.840820312 67 130.0078125 c 0
 69.666015625 142.674804688 77 151.674804688 89 157.0078125 c 0
 98.1953125 161.60546875 106.755859375 163.904296875 114.68359375 163.904296875 c 0
 118.25 163.904296875 121.689453125 163.438476562 125 162.5078125 c 0
 135.66796875 159.5078125 146.333984375 151.0078125 157.000976562 137.0078125 c 0
 171.66796875 117.0078125 190.3359375 99.1748046875 213.001953125 83.5078125 c 0
 235.668945312 67.8408203125 260.001953125 60.0078125 286.001953125 60.0078125 c 0
 326.001953125 60.0078125 359.001953125 71.3408203125 385.001953125 94.0078125 c 0
 411.001953125 116.674804688 424.001953125 146.0078125 424.001953125 182.0078125 c 0xe8
 424.001953125 204.0078125 420.668945312 223.0078125 414.001953125 239.0078125 c 0
 407.3359375 255.0078125 396.66796875 269.0078125 382.000976562 281.0078125 c 0
 367.333984375 293.0078125 347.16796875 302.174804688 321.5 308.5078125 c 0
 295.833007812 314.840820312 266 318.0078125 232 318.0078125 c 0
 218 318.0078125 205.833007812 323.5078125 195.5 334.5078125 c 0
 185.16796875 345.5078125 180 357.674804688 180 371.0078125 c 0
 180 385.0078125 183.66796875 396.340820312 191 405.0078125 c 0
 198.333007812 413.674804688 209 418.0078125 223 418.0078125 c 0
 279 418.0078125 323 429.174804688 355 451.5078125 c 0
 386.34765625 473.384765625 402.020507812 505.017578125 402.020507812 546.407226562 c 0
 402.020507812 547.26953125 402.013671875 548.13671875 402 549.0078125 c 0
 402.01953125 549.903320312 402.029296875 550.791992188 402.029296875 551.673828125 c 0
 402.029296875 580.333984375 391.51953125 601.778320312 370.5 616.006835938 c 0
 348.833007812 630.673828125 317.666015625 638.006835938 277 638.006835938 c 0
 269 638.006835938 261.166015625 637.173828125 253.5 635.506835938 c 0
 245.83203125 633.83984375 239.665039062 632.172851562 234.998046875 630.505859375 c 0
 230.33203125 628.838867188 225.33203125 626.005859375 219.998046875 622.005859375 c 0
 214.665039062 618.005859375 210.165039062 614.672851562 206.498046875 612.005859375 c 0
 202.83203125 609.338867188 198.83203125 605.005859375 194.498046875 599.005859375 c 0
 190.165039062 593.005859375 186.83203125 588.838867188 184.5 586.505859375 c 0
 182.166015625 584.172851562 179 579.33984375 175 572.006835938 c 0
 164.33203125 557.33984375 153.5 548.672851562 142.5 546.005859375 c 0
 139.356445312 545.244140625 136.118164062 544.86328125 132.78515625 544.86328125 c 0
 124.451171875 544.86328125 115.5234375 547.244140625 106 552.005859375 c 0
 94.666015625 557.338867188 87.833984375 566.171875 85.5 578.504882812 c 0
 84.896484375 581.702148438 84.59375 585.044921875 84.59375 588.533203125 c 0
 84.59375 598.500976562 87.0625 609.658203125 92.001953125 622.004882812 c 0
 98.66796875 635.337890625 107.3359375 647.504882812 118.001953125 658.504882812 c 0
 128.668945312 669.504882812 141.001953125 680.004882812 155.001953125 690.004882812 c 0
 169.001953125 700.004882812 186.168945312 707.837890625 206.501953125 713.504882812 c 0
 226.8359375 719.171875 248.66796875 722.004882812 272.000976562 722.004882812 c 0
 348.66796875 722.004882812 406.3359375 706.004882812 445.001953125 674.004882812 c 0
 482.379882812 643.071289062 501.0703125 597.809570312 501.0703125 538.21875 c 0xf0
 501.0703125 536.1640625 501.046875 534.092773438 501.00390625 532.00390625 c 0
 501.00390625 512.670898438 498.50390625 495.170898438 493.50390625 479.50390625 c 0
 488.50390625 463.836914062 481.669921875 450.50390625 473.00390625 439.50390625 c 0
 464.3359375 428.50390625 453.668945312 418.836914062 441.001953125 410.50390625 c 0
 428.3359375 402.170898438 415.501953125 395.670898438 402.501953125 391.00390625 c 0
 389.501953125 386.336914062 375.668945312 382.669921875 361.001953125 380.002929688 c 1
 388.3359375 374.002929688 411.66796875 366.669921875 431.000976562 358.002929688 c 0
 450.333984375 349.3359375 467.16796875 338.168945312 481.5 324.501953125 c 0
 495.833007812 310.834960938 506.5 293.66796875 513.5 273.000976562 c 0
 520.5 252.333984375 524 227.666992188 524 199 c 0xe8
EndSplineSet
Validated: 524289
EndChar

StartChar: four
Encoding: 52 52 20
Width: 590
GlyphClass: 2
Flags: HMW
HStem: -23.001 21G 224.234 80.335
VStem: 362.003 87.4971 369.002 88.998 369.002 97.0561
LayerCount: 2
Fore
SplineSet
464 55 m 0xd0
 465.372070312 47.68359375 466.057617188 40.71875 466.057617188 34.107421875 c 0
 466.057617188 21.4423828125 463.540039062 10.072265625 458.502929688 -0.001953125 c 0
 450.8359375 -15.3349609375 439.668945312 -23.001953125 425.001953125 -23.001953125 c 0
 412.334960938 -23.001953125 400.001953125 -18.1689453125 388.001953125 -8.501953125 c 0
 376.001953125 1.1650390625 369.668945312 10.998046875 369.001953125 20.998046875 c 2
 369.001953125 59.998046875 l 1
 369.001953125 137.498046875 l 1xc8
 369.001953125 223.998046875 l 1xd0
 354.729492188 224.155273438 340.973632812 224.233398438 327.734375 224.233398438 c 0
 228.423828125 224.233398438 158.1796875 219.822265625 117.001953125 210.999023438 c 0
 106.334960938 208.999023438 96.66796875 209.33203125 88.0009765625 211.999023438 c 0
 79.333984375 214.666015625 72.5009765625 219.333007812 67.5009765625 226 c 0
 62.5009765625 232.666992188 58.66796875 240.333984375 56.0009765625 249.000976562 c 0
 53.333984375 257.66796875 52.0009765625 266.66796875 52.0009765625 276.000976562 c 0
 52.0009765625 285.333984375 53.66796875 294.333984375 57.0009765625 303.000976562 c 0
 63.66796875 321.66796875 81.5009765625 352.16796875 110.500976562 394.500976562 c 0
 139.500976562 436.833984375 177.16796875 489.166992188 223.500976562 551.5 c 0
 269.833984375 613.833007812 302.666992188 659 322 687 c 0
 330.666992188 699.666992188 340.5 709.166992188 351.5 715.5 c 0
 362.5 721.833007812 373 725 383 725 c 0
 385.423828125 725.2421875 387.809570312 725.36328125 390.15625 725.36328125 c 0
 400.71875 725.36328125 410.5 722.909179688 419.5 718 c 0
 430.5 712 437.333007812 701.666992188 440 687 c 0
 444 663.666992188 447.166992188 627.666992188 449.5 579 c 0xe0
 451.833007812 530.333007812 453.333007812 489.166015625 454 455.499023438 c 0
 454.666992188 421.83203125 455.666992188 370.999023438 457 302.999023438 c 1
 468.333007812 302.33203125 481 301.999023438 495 301.999023438 c 0
 510.333007812 301.999023438 521.166015625 298.499023438 527.499023438 291.499023438 c 0
 533.83203125 284.499023438 537.33203125 275.33203125 537.999023438 263.999023438 c 0
 537.999023438 234.666015625 523.666015625 219.999023438 494.999023438 219.999023438 c 0
 481.666015625 219.999023438 469.333007812 220.33203125 458 220.999023438 c 1
 459.333007812 123.666015625 461.333007812 68.3330078125 464 55 c 0xd0
362.001953125 601.997070312 m 1xe0
 263.334960938 472.6640625 196.334960938 372.330078125 161.001953125 300.997070312 c 1
 198.146484375 303.377929688 244.134765625 304.568359375 298.967773438 304.568359375 c 0
 320.897460938 304.568359375 344.2421875 304.377929688 369.001953125 303.997070312 c 1
 369.001953125 428.6640625 366.668945312 527.997070312 362.001953125 601.997070312 c 1xe0
EndSplineSet
Validated: 524289
EndChar

StartChar: five
Encoding: 53 53 21
Width: 590
GlyphClass: 2
Flags: HMW
HStem: -18.001 83.998 419.997 89.0029 619 88.998 630 79.998
VStem: 67.5984 93.405 74.9984 88.0029 432.996 100.006
LayerCount: 2
Fore
SplineSet
533.001953125 296 m 0xda
 533.001953125 246.666992188 526.827148438 202.166015625 514.494140625 162.499023438 c 0
 502.162109375 122.83203125 484.828125 89.83203125 462.495117188 63.4990234375 c 0
 440.162109375 37.166015625 413.330078125 16.9990234375 381.99609375 2.9990234375 c 0
 350.663085938 -11.0009765625 316.330078125 -18.0009765625 278.998046875 -18.0009765625 c 0
 249.6640625 -18.0009765625 222.6640625 -15.0009765625 197.998046875 -9.0009765625 c 0
 173.330078125 -3.0009765625 152.663085938 5.33203125 135.99609375 15.9990234375 c 0
 119.330078125 26.666015625 105.330078125 37.8330078125 93.99609375 49.5 c 0
 82.6640625 61.1669921875 73.330078125 73.333984375 65.998046875 86.0009765625 c 0
 59.998046875 99.5009765625 56.998046875 111.125976562 56.998046875 120.875976562 c 0
 56.998046875 124.125976562 57.330078125 127.16796875 57.998046875 130.000976562 c 0
 60.6640625 141.333984375 67.6640625 150.000976562 78.998046875 156.000976562 c 0
 86.330078125 159.333984375 92.498046875 161.666992188 97.498046875 163 c 0
 102.498046875 164.333007812 107.998046875 164.666015625 113.998046875 163.999023438 c 0
 119.998046875 163.33203125 125.6640625 160.665039062 130.998046875 155.998046875 c 0
 136.330078125 151.331054688 141.998046875 144.6640625 147.998046875 135.997070312 c 0
 177.998046875 89.9970703125 218.6640625 66.6640625 269.998046875 65.9970703125 c 0
 319.998046875 65.9970703125 359.6640625 85.830078125 388.998046875 125.497070312 c 0
 418.330078125 165.1640625 432.998046875 218.331054688 432.998046875 284.998046875 c 0
 432.998046875 326.331054688 423.830078125 359.1640625 405.498046875 383.497070312 c 0
 387.1640625 407.830078125 358.998046875 419.997070312 320.998046875 419.997070312 c 0
 310.998046875 419.997070312 301.330078125 419.497070312 291.998046875 418.497070312 c 0
 282.6640625 417.497070312 274.6640625 416.1640625 267.998046875 414.497070312 c 0
 261.330078125 412.830078125 254.330078125 410.330078125 246.998046875 406.997070312 c 0
 239.6640625 403.6640625 233.831054688 400.997070312 229.498046875 398.997070312 c 0
 225.166015625 396.997070312 219.83203125 393.330078125 213.499023438 387.997070312 c 0
 207.166015625 382.6640625 202.999023438 378.997070312 200.999023438 376.997070312 c 0
 198.999023438 374.997070312 194.666015625 370.830078125 187.999023438 364.497070312 c 0
 181.33203125 358.1640625 177.33203125 354.331054688 175.999023438 352.998046875 c 0
 170.666015625 348.331054688 164.166015625 344.331054688 156.499023438 340.998046875 c 0
 148.83203125 337.665039062 140.33203125 335.498046875 130.999023438 334.498046875 c 0
 121.666015625 333.498046875 112.333984375 334.998046875 103 338.998046875 c 0
 91.66796875 343.665039062 83.16796875 353.998046875 77.5 369.998046875 c 0
 71.833984375 385.998046875 68.666015625 405.665039062 68 428.998046875 c 0
 67.732421875 438.331054688 67.599609375 447.530273438 67.599609375 456.596679688 c 0xda
 67.599609375 470.197265625 67.8984375 483.498046875 68.498046875 496.499023438 c 0
 69.498046875 518.166015625 70.83203125 541.499023438 72.498046875 566.499023438 c 0
 74.166015625 591.499023438 74.998046875 608.666015625 74.998046875 617.999023438 c 1
 69.666015625 626.666015625 66.33203125 636.499023438 65 647.499023438 c 0
 63.666015625 658.499023438 64.166015625 668.666015625 66.5 677.999023438 c 0
 68.83203125 687.33203125 73.5 695.33203125 80.5 701.999023438 c 0
 87.5 708.666015625 95.666015625 711.999023438 104.999023438 711.999023438 c 0
 129.666015625 711.999023438 187.833984375 711.33203125 279.5 709.999023438 c 0xd6
 371.166992188 708.666015625 441 707.999023438 489 707.999023438 c 0
 497.666992188 707.999023438 504.833984375 704.33203125 510.501953125 696.999023438 c 0
 516.16796875 689.666015625 519.834960938 681.333007812 521.501953125 672 c 0
 523.169921875 662.666992188 523.3359375 654 522.002929688 646 c 0
 521.3359375 641.333007812 520.169921875 637.333007812 518.501953125 634 c 0
 516.834960938 630.666992188 514.501953125 628.166992188 511.501953125 626.5 c 0
 508.501953125 624.833007812 505.834960938 623.333007812 503.501953125 622 c 0
 501.169921875 620.666992188 497.669921875 619.833984375 493.001953125 619.500976562 c 0
 488.334960938 619.16796875 485.001953125 619.000976562 483.001953125 619.000976562 c 0xe6
 481.001953125 619.000976562 477.169921875 619.333984375 471.501953125 620.000976562 c 0
 465.834960938 620.66796875 462.66796875 621.000976562 462.001953125 621.000976562 c 0
 452.66796875 621.000976562 436.001953125 622.000976562 412.001953125 624.000976562 c 0
 388.001953125 626.000976562 366.66796875 627.500976562 348.001953125 628.500976562 c 0
 329.333984375 629.500976562 303.333984375 630.000976562 270.001953125 630.000976562 c 0
 236.66796875 630.000976562 201.66796875 629.000976562 165.001953125 627.000976562 c 1
 165.001953125 620.333984375 164.333984375 601.000976562 163.001953125 569.000976562 c 0xd6
 161.66796875 537.000976562 160.834960938 513.833984375 160.501953125 499.500976562 c 0
 160.390625 494.727539062 160.334960938 489.270507812 160.334960938 483.129882812 c 0
 160.334960938 470.830078125 160.557617188 455.787109375 161.002929688 438 c 1
 179.669921875 458.666992188 205.002929688 475.666992188 237.002929688 489 c 0
 269.002929688 502.333007812 305.669921875 509 347.002929688 509 c 0
 376.3359375 509 402.8359375 503.5 426.502929688 492.5 c 0
 450.169921875 481.5 469.669921875 466.333007812 485.002929688 447 c 0
 500.3359375 427.666992188 512.169921875 405.166992188 520.501953125 379.5 c 0
 528.834960938 353.833007812 533.001953125 326 533.001953125 296 c 0xda
EndSplineSet
Validated: 524289
EndChar

StartChar: six
Encoding: 54 54 22
Width: 590
GlyphClass: 2
Flags: HMW
HStem: -21.9971 84.0049 393.004 87.9961
VStem: 54.9672 91.0658 437.033 98<227.333 249.672>
LayerCount: 2
Fore
SplineSet
535.033203125 246 m 0
 535.033203125 208.666992188 528.866210938 173.502929688 516.533203125 140.502929688 c 0
 504.200195312 107.502929688 487.3671875 79.169921875 466.034179688 55.5029296875 c 0
 444.701171875 31.8359375 419.201171875 13.0029296875 389.534179688 -0.9970703125 c 0
 359.8671875 -14.9970703125 328.3671875 -21.9970703125 295.034179688 -21.9970703125 c 0
 253.701171875 -21.9970703125 217.701171875 -14.1640625 187.034179688 1.5029296875 c 0
 156.3671875 17.169921875 131.200195312 39.8369140625 111.533203125 69.50390625 c 0
 91.8662109375 99.1708984375 77.3662109375 134.670898438 68.033203125 176.00390625 c 0
 59.322265625 214.580078125 54.966796875 257.51171875 54.966796875 304.798828125 c 0
 54.966796875 308.177734375 54.9892578125 311.579101562 55.0341796875 315.002929688 c 0
 55.701171875 372.3359375 61.3681640625 424.002929688 72.03515625 470.002929688 c 0
 82.7021484375 516.002929688 97.53515625 554.669921875 116.53515625 586.002929688 c 0
 135.53515625 617.3359375 159.03515625 643.8359375 187.03515625 665.502929688 c 0
 215.03515625 687.169921875 245.202148438 703.669921875 277.53515625 715.002929688 c 0
 309.868164062 726.3359375 345.701171875 733.668945312 385.034179688 737.001953125 c 0
 387.954101562 737.255859375 390.807617188 737.3828125 393.594726562 737.3828125 c 0
 405.442382812 737.3828125 416.088867188 735.088867188 425.534179688 730.500976562 c 0
 437.201171875 724.833984375 443.701171875 715.666992188 445.034179688 703 c 0
 445.701171875 695 441.701171875 686.166992188 433.034179688 676.5 c 0
 424.3671875 666.833007812 414.700195312 660.333007812 404.033203125 657 c 0
 396.700195312 655 385.533203125 652.333007812 370.533203125 649 c 0
 355.533203125 645.666992188 342.700195312 642.5 332.033203125 639.5 c 0
 321.366210938 636.5 308.69921875 632 294.032226562 626 c 0
 279.365234375 620 264.865234375 611.333007812 250.532226562 600 c 0
 236.19921875 588.666992188 222.032226562 575 208.032226562 559 c 0
 193.365234375 541.666992188 179.865234375 518 167.532226562 488 c 0
 155.19921875 458 147.366210938 431.333007812 144.033203125 408 c 1
 164.700195312 432.666992188 191.700195312 451 225.033203125 463 c 0
 258.366210938 475 295.366210938 481 336.033203125 481 c 0
 366.700195312 481 394.033203125 476.666992188 418.033203125 468 c 0
 442.033203125 459.333007812 462.866210938 445.666015625 480.533203125 426.999023438 c 0
 498.200195312 408.33203125 511.700195312 383.83203125 521.033203125 353.499023438 c 0
 530.366210938 323.166015625 535.033203125 287.333007812 535.033203125 246 c 0
146.033203125 230.002929688 m 0
 147.366210938 215.3359375 150.3671875 200.506835938 155.034179688 185.506835938 c 0
 159.701171875 170.506835938 166.201171875 155.33984375 174.534179688 140.006835938 c 0
 182.8671875 124.673828125 192.700195312 111.340820312 204.033203125 100.0078125 c 0
 215.366210938 88.6748046875 229.033203125 79.5078125 245.033203125 72.5078125 c 0
 261.033203125 65.5078125 278.033203125 62.0078125 296.033203125 62.0078125 c 0
 320.700195312 62.0078125 344.033203125 70.6748046875 366.033203125 88.0078125 c 0
 388.033203125 105.340820312 405.366210938 127.173828125 418.033203125 153.506835938 c 0
 430.700195312 179.83984375 437.033203125 206.672851562 437.033203125 234.005859375 c 0
 437.033203125 265.338867188 434.366210938 291.671875 429.033203125 313.004882812 c 0
 423.700195312 334.337890625 415.200195312 350.670898438 403.533203125 362.00390625 c 0
 391.866210938 373.336914062 378.69921875 381.336914062 364.032226562 386.00390625 c 0
 349.365234375 390.670898438 331.365234375 393.00390625 310.032226562 393.00390625 c 0
 276.69921875 393.00390625 245.366210938 384.336914062 216.033203125 367.00390625 c 0
 186.700195312 349.670898438 162.700195312 327.670898438 144.033203125 301.00390625 c 1
 144.033203125 272.336914062 144.700195312 248.669921875 146.033203125 230.002929688 c 0
EndSplineSet
Validated: 524289
EndChar

StartChar: seven
Encoding: 55 55 23
Width: 590
GlyphClass: 2
Flags: HMW
HStem: -22.9443 21G 622.497 90.5
LayerCount: 2
Fore
SplineSet
194.741210938 26 m 0
 186.741210938 8.6669921875 176.236328125 -4.3349609375 163.236328125 -13.001953125 c 0
 153.294921875 -19.6298828125 143.451171875 -22.943359375 133.705078125 -22.943359375 c 0
 130.706054688 -22.943359375 127.715820312 -22.6298828125 124.735351562 -22.001953125 c 0
 110.735351562 -18.6689453125 100.90234375 -10.6689453125 95.2353515625 1.998046875 c 0
 92.6318359375 7.818359375 91.330078125 13.919921875 91.330078125 20.302734375 c 0
 91.330078125 27.8115234375 93.1318359375 35.7099609375 96.7353515625 43.998046875 c 0
 130.735351562 112.665039062 167.235351562 180.998046875 206.235351562 248.998046875 c 0
 245.235351562 316.998046875 277.568359375 371.165039062 303.235351562 411.498046875 c 0
 328.90234375 451.831054688 352.569335938 490.998046875 374.236328125 528.998046875 c 0
 395.903320312 566.998046875 410.403320312 597.998046875 417.736328125 621.998046875 c 1
 386.098632812 623.088867188 353.370117188 623.634765625 319.55078125 623.634765625 c 0
 291.370117188 623.634765625 262.431640625 623.255859375 232.736328125 622.498046875 c 0
 167.403320312 620.831054688 124.736328125 617.331054688 104.736328125 611.998046875 c 0
 96.736328125 609.998046875 89.5693359375 610.331054688 83.236328125 612.998046875 c 0
 76.9033203125 615.665039062 71.736328125 619.665039062 67.736328125 624.998046875 c 0
 63.736328125 630.331054688 60.736328125 635.998046875 58.736328125 641.998046875 c 0
 56.736328125 647.998046875 55.736328125 653.998046875 55.736328125 659.998046875 c 0
 55.736328125 671.998046875 58.736328125 681.498046875 64.736328125 688.498046875 c 0
 70.736328125 695.498046875 81.736328125 700.665039062 97.736328125 703.998046875 c 0
 122.403320312 708.665039062 156.5703125 711.665039062 200.237304688 712.998046875 c 0
 222.071289062 713.6640625 243.030273438 713.997070312 263.114257812 713.997070312 c 0
 283.198242188 713.997070312 302.407226562 713.6640625 320.740234375 712.998046875 c 0
 357.407226562 711.665039062 393.407226562 710.33203125 428.740234375 708.999023438 c 0
 464.073242188 707.666015625 483.073242188 706.999023438 485.740234375 706.999023438 c 0
 492.407226562 706.999023438 499.240234375 705.499023438 506.240234375 702.499023438 c 0
 513.240234375 699.499023438 519.573242188 694.666015625 525.240234375 687.999023438 c 0
 529.575195312 682.8984375 534.263671875 674.20703125 534.263671875 660.463867188 c 0
 534.263671875 650.153320312 531.088867188 638.331054688 524.739257812 624.997070312 c 0
 515.40625 604.997070312 498.573242188 574.830078125 474.240234375 534.497070312 c 0
 449.907226562 494.1640625 424.57421875 452.831054688 398.241210938 410.498046875 c 0
 371.908203125 368.165039062 339.908203125 311.83203125 302.241210938 241.499023438 c 0
 264.57421875 171.166015625 228.741210938 99.3330078125 194.741210938 26 c 0
EndSplineSet
Validated: 524289
EndChar

StartChar: eight
Encoding: 56 56 24
Width: 590
GlyphClass: 2
Flags: W
HStem: -27.9922 85.9971<201.679 376.527> 646.004 72.001<217.915 351.632>
VStem: 48.998 85.998<120.066 256.492> 75.999 93.998<487.944 598.703> 406.997 90.002<483.938 592.01> 447.996 93.0059<121.363 264.134>
LayerCount: 2
Fore
SplineSet
541.001953125 204 m 0xc4
 541.001953125 182.666992188 538.1640625 161.338867188 532.497070312 140.005859375 c 0
 526.830078125 118.672851562 517.330078125 97.83984375 503.997070312 77.5068359375 c 0
 490.6640625 57.173828125 474.331054688 39.3408203125 454.998046875 24.0078125 c 0
 435.665039062 8.6748046875 410.998046875 -3.8251953125 380.998046875 -13.4921875 c 0
 350.998046875 -23.1591796875 317.665039062 -27.9921875 280.998046875 -27.9921875 c 0
 247.665039062 -27.9921875 217.33203125 -23.3251953125 189.999023438 -13.9921875 c 0
 162.666015625 -4.6591796875 140.499023438 7.173828125 123.499023438 21.5068359375 c 0
 106.499023438 35.83984375 92.166015625 53.0068359375 80.4990234375 73.0068359375 c 0
 68.83203125 93.0068359375 60.6650390625 113.173828125 55.998046875 133.506835938 c 0
 51.3310546875 153.83984375 48.998046875 174.672851562 48.998046875 196.005859375 c 0xe4
 48.998046875 218.672851562 54.6650390625 243.005859375 65.998046875 269.005859375 c 0
 77.3310546875 295.005859375 93.8310546875 319.005859375 115.498046875 341.005859375 c 0
 137.165039062 363.005859375 161.33203125 378.338867188 187.999023438 387.005859375 c 1
 152.666015625 403.672851562 125.166015625 425.505859375 105.499023438 452.505859375 c 0
 85.83203125 479.505859375 75.9990234375 507.005859375 75.9990234375 535.005859375 c 0
 75.9990234375 543.005859375 76.666015625 551.505859375 77.9990234375 560.505859375 c 0
 79.33203125 569.505859375 81.83203125 580.172851562 85.4990234375 592.505859375 c 0
 89.166015625 604.838867188 94.166015625 616.671875 100.499023438 628.004882812 c 0
 106.83203125 639.337890625 115.499023438 650.504882812 126.499023438 661.504882812 c 0
 137.499023438 672.504882812 149.999023438 682.171875 163.999023438 690.504882812 c 0
 177.999023438 698.837890625 195.499023438 705.504882812 216.499023438 710.504882812 c 0
 237.499023438 715.504882812 260.33203125 718.004882812 284.999023438 718.004882812 c 0
 310.999023438 718.004882812 334.499023438 715.504882812 355.499023438 710.504882812 c 0
 376.499023438 705.504882812 394.166015625 698.837890625 408.499023438 690.504882812 c 0
 422.83203125 682.171875 435.499023438 672.504882812 446.499023438 661.504882812 c 0
 457.499023438 650.504882812 465.999023438 639.337890625 471.999023438 628.004882812 c 0
 477.999023438 616.671875 482.999023438 604.671875 486.999023438 592.004882812 c 0
 490.999023438 579.337890625 493.666015625 568.170898438 494.999023438 558.50390625 c 0
 496.33203125 548.836914062 496.999023438 539.669921875 496.999023438 531.002929688 c 0xd8
 496.999023438 523.002929688 495.999023438 515.002929688 493.999023438 507.002929688 c 0
 491.999023438 499.002929688 489.33203125 492.002929688 485.999023438 486.002929688 c 0
 482.666015625 480.002929688 478.333007812 473.669921875 473 467.002929688 c 0
 467.666992188 460.3359375 462.666992188 454.668945312 458 450.001953125 c 0
 453.333007812 445.334960938 447.333007812 440.001953125 440 434.001953125 c 0
 432.666992188 428.001953125 426.833984375 423.501953125 422.500976562 420.501953125 c 0
 418.16796875 417.501953125 412.000976562 413.334960938 404.000976562 408.001953125 c 0
 396.000976562 402.668945312 390.66796875 399.001953125 388.000976562 397.001953125 c 1
 412.66796875 386.334960938 434.334960938 374.334960938 453.001953125 361.001953125 c 0
 471.668945312 347.668945312 486.501953125 334.501953125 497.501953125 321.501953125 c 0
 508.501953125 308.501953125 517.334960938 294.668945312 524.001953125 280.001953125 c 0
 530.668945312 265.334960938 535.168945312 252.16796875 537.501953125 240.500976562 c 0
 539.834960938 228.833984375 541.001953125 216.666992188 541.001953125 204 c 0xc4
169.997070312 538.004882812 m 0xd8
 169.997070312 516.004882812 180.1640625 496.504882812 200.497070312 479.504882812 c 0
 220.830078125 462.504882812 254.330078125 445.337890625 300.997070312 428.004882812 c 1
 328.997070312 439.337890625 353.6640625 454.670898438 374.997070312 474.00390625 c 0
 396.330078125 493.336914062 406.997070312 511.336914062 406.997070312 528.00390625 c 0
 406.997070312 546.670898438 401.6640625 565.00390625 390.997070312 583.00390625 c 0
 380.330078125 601.00390625 365.497070312 616.00390625 346.497070312 628.00390625 c 0
 327.497070312 640.00390625 306.997070312 646.00390625 284.997070312 646.00390625 c 0
 253.6640625 646.00390625 226.6640625 634.836914062 203.997070312 612.50390625 c 0
 181.330078125 590.170898438 169.997070312 565.337890625 169.997070312 538.004882812 c 0xd8
284.997070312 58.0048828125 m 0
 304.330078125 58.0048828125 323.662109375 60.8330078125 342.995117188 66.5 c 0
 362.328125 72.1669921875 379.828125 80.333984375 395.495117188 91.0009765625 c 0
 411.162109375 101.66796875 423.829101562 115.66796875 433.49609375 133.000976562 c 0
 443.163085938 150.333984375 447.99609375 168.666992188 447.99609375 188 c 0
 447.99609375 198.666992188 446.99609375 208.833984375 444.99609375 218.500976562 c 0
 442.99609375 228.16796875 438.99609375 239.334960938 432.99609375 252.001953125 c 0
 426.99609375 264.668945312 418.663085938 276.3359375 407.99609375 287.002929688 c 0
 397.329101562 297.669921875 382.49609375 308.836914062 363.49609375 320.50390625 c 0
 344.49609375 332.170898438 322.329101562 342.670898438 296.99609375 352.00390625 c 1
 248.99609375 339.336914062 209.99609375 317.336914062 179.99609375 286.00390625 c 0
 149.99609375 254.670898438 134.99609375 221.337890625 134.99609375 186.004882812 c 0xe4
 134.99609375 161.337890625 142.49609375 139.004882812 157.49609375 119.004882812 c 0
 172.49609375 99.0048828125 191.329101562 83.837890625 213.99609375 73.5048828125 c 0
 236.663085938 63.171875 260.330078125 58.0048828125 284.997070312 58.0048828125 c 0
EndSplineSet
Validated: 524289
EndChar

StartChar: nine
Encoding: 57 57 25
Width: 590
GlyphClass: 2
Flags: HMW
HStem: -22.3812 21G 234.998 89 654.995 84.0049
VStem: 54.4688 98.0049 447.639 87.8928
LayerCount: 2
Fore
SplineSet
181.466796875 -22 m 0
 178.543945312 -22.25390625 175.686523438 -22.3828125 172.897460938 -22.3828125 c 0
 161.0546875 -22.3828125 150.416015625 -20.091796875 140.973632812 -15.5048828125 c 0
 129.306640625 -9.837890625 122.806640625 -0.6708984375 121.473632812 11.99609375 c 0
 120.806640625 20.6630859375 124.639648438 29.6630859375 132.97265625 38.99609375 c 0
 141.305664062 48.3291015625 151.138671875 54.662109375 162.471679688 57.9951171875 c 0
 169.8046875 59.9951171875 181.637695312 62.662109375 197.970703125 65.9951171875 c 0
 214.303710938 69.328125 228.970703125 72.828125 241.970703125 76.4951171875 c 0
 254.970703125 80.162109375 269.637695312 84.9951171875 285.970703125 90.9951171875 c 0
 302.303710938 96.9951171875 318.13671875 105.328125 333.469726562 115.995117188 c 0
 348.802734375 126.662109375 362.802734375 139.329101562 375.469726562 153.99609375 c 0
 392.13671875 173.329101562 406.969726562 195.829101562 419.969726562 221.49609375 c 0
 432.969726562 247.163085938 442.13671875 270.330078125 447.469726562 290.997070312 c 1
 428.802734375 269.6640625 404.802734375 254.997070312 375.469726562 246.997070312 c 0
 346.13671875 238.997070312 310.13671875 234.997070312 267.469726562 234.997070312 c 0
 238.13671875 234.997070312 210.13671875 241.830078125 183.469726562 255.497070312 c 0
 156.802734375 269.1640625 134.135742188 287.331054688 115.46875 309.998046875 c 0
 96.8017578125 332.665039062 81.96875 358.83203125 70.96875 388.499023438 c 0
 59.96875 418.166015625 54.46875 448.333007812 54.46875 479 c 0
 54.46875 516.333007812 60.8017578125 551.166015625 73.46875 583.499023438 c 0
 86.1357421875 615.83203125 103.135742188 643.33203125 124.46875 665.999023438 c 0
 145.801757812 688.666015625 171.134765625 706.499023438 200.467773438 719.499023438 c 0
 229.80078125 732.499023438 261.133789062 738.999023438 294.466796875 738.999023438 c 0
 376.466796875 738.999023438 437.466796875 707.999023438 477.466796875 645.999023438 c 0
 516.176757812 585.999023438 535.53125 500.711914062 535.53125 390.138671875 c 0
 535.53125 386.454101562 535.509765625 382.741210938 535.466796875 379 c 0
 534.799804688 325.666992188 528.1328125 277.5 515.465820312 234.5 c 0
 502.798828125 191.5 485.798828125 155 464.465820312 125 c 0
 443.1328125 95 417.6328125 69.3330078125 387.965820312 48 c 0
 358.298828125 26.6669921875 326.298828125 10.5 291.965820312 -0.5 c 0
 257.6328125 -11.5 220.799804688 -18.6669921875 181.466796875 -22 c 0
152.47265625 490.993164062 m 0
 152.47265625 436.326171875 164.302734375 394.829101562 187.969726562 366.49609375 c 0
 211.63671875 338.163085938 246.803710938 323.99609375 293.470703125 323.99609375 c 0
 322.803710938 323.99609375 351.470703125 330.663085938 379.470703125 343.99609375 c 0
 407.470703125 357.329101562 430.137695312 375.662109375 447.470703125 398.995117188 c 0
 447.58203125 402.21875 447.637695312 405.720703125 447.637695312 409.500976562 c 0
 447.637695312 428.388671875 446.249023438 454.219726562 443.471679688 486.994140625 c 0
 442.138671875 501.661132812 439.305664062 516.494140625 434.97265625 531.494140625 c 0
 430.639648438 546.494140625 424.139648438 561.661132812 415.47265625 576.994140625 c 0
 406.805664062 592.327148438 396.805664062 605.66015625 385.47265625 616.993164062 c 0
 374.139648438 628.326171875 360.47265625 637.493164062 344.47265625 644.493164062 c 0
 328.47265625 651.493164062 311.47265625 654.993164062 293.47265625 654.993164062 c 0
 268.805664062 654.993164062 245.47265625 646.993164062 223.47265625 630.993164062 c 0
 201.47265625 614.993164062 184.139648438 594.493164062 171.47265625 569.493164062 c 0
 158.805664062 544.493164062 152.47265625 518.326171875 152.47265625 490.993164062 c 0
EndSplineSet
Validated: 524289
EndChar

StartChar: colon
Encoding: 58 58 26
Width: 590
GlyphClass: 2
Flags: HMW
HStem: 39.8998 155.096 306.91 155.09
VStem: 229.71 127.695
LayerCount: 2
Fore
SplineSet
357.041015625 417 m 0
 357.283203125 413 357.404296875 408.956054688 357.404296875 404.868164062 c 0
 357.404296875 386.470703125 354.951171875 367.1796875 350.041015625 346.997070312 c 0
 346.708984375 333.6640625 339.375 323.497070312 328.041992188 316.497070312 c 0
 317.694335938 310.106445312 307.625 306.91015625 297.833984375 306.91015625 c 0
 296.900390625 306.91015625 295.970703125 306.939453125 295.041992188 306.997070312 c 0
 255.041992188 308.997070312 233.708984375 324.330078125 231.041992188 352.997070312 c 0
 230.154296875 364.994140625 229.708984375 379.211914062 229.708984375 395.651367188 c 0
 229.708984375 403.876953125 229.8203125 412.659179688 230.04296875 421.997070312 c 0
 230.04296875 430.6640625 232.54296875 437.831054688 237.54296875 443.498046875 c 0
 242.54296875 449.165039062 248.709960938 453.33203125 256.04296875 455.999023438 c 0
 263.376953125 458.666015625 270.376953125 460.333007812 277.04296875 461 c 0
 283.709960938 461.666992188 290.04296875 462 296.04296875 462 c 0
 302.04296875 462 308.209960938 461.333007812 314.54296875 460 c 0
 320.876953125 458.666992188 327.208984375 456.5 333.541992188 453.5 c 0
 339.875 450.5 345.208984375 445.833007812 349.541015625 439.5 c 0
 353.874023438 433.166992188 356.374023438 425.666992188 357.041015625 417 c 0
358.041015625 149.997070312 m 0
 359.541015625 141.249023438 360.291015625 132.40625 360.291015625 123.469726562 c 0
 360.291015625 108.571289062 358.206054688 93.412109375 354.0390625 77.9931640625 c 0
 350.706054688 64.66015625 342.373046875 54.8271484375 329.041015625 48.494140625 c 0
 316.978515625 42.7646484375 305.733398438 39.8994140625 295.307617188 39.8994140625 c 0
 294.209960938 39.8994140625 293.12109375 39.931640625 292.041015625 39.9951171875 c 0
 278.708984375 40.662109375 265.708984375 44.8291015625 253.041015625 52.49609375 c 0
 240.374023438 60.1630859375 233.374023438 70.99609375 232.041015625 84.99609375 c 0
 231.374023438 98.99609375 230.874023438 107.829101562 230.541015625 111.49609375 c 0
 230.208984375 115.163085938 230.541015625 121.99609375 231.541015625 131.99609375 c 0
 232.541015625 141.99609375 233.041015625 149.663085938 233.041015625 154.99609375 c 0
 233.041015625 162.99609375 235.374023438 169.99609375 240.041015625 175.99609375 c 0
 244.708984375 181.99609375 250.541015625 186.163085938 257.541015625 188.49609375 c 0
 264.541015625 190.829101562 271.374023438 192.49609375 278.041015625 193.49609375 c 0
 284.708984375 194.49609375 291.041015625 194.99609375 297.041015625 194.99609375 c 0
 305.041015625 194.99609375 313.041015625 193.829101562 321.041015625 191.49609375 c 0
 329.041015625 189.163085938 336.708984375 184.330078125 344.041015625 176.997070312 c 0
 351.374023438 169.6640625 356.041015625 160.6640625 358.041015625 149.997070312 c 0
EndSplineSet
Validated: 524289
EndChar

StartChar: semicolon
Encoding: 59 59 27
Width: 590
GlyphClass: 2
Flags: HMW
HStem: 264.912 155.087
VStem: 260.098 127.698
LayerCount: 2
Fore
SplineSet
387.432617188 375 m 0
 387.674804688 371.000976562 387.795898438 366.958984375 387.795898438 362.872070312 c 0
 387.795898438 344.473632812 385.340820312 325.182617188 380.431640625 304.999023438 c 0
 377.098632812 291.666015625 369.931640625 281.499023438 358.931640625 274.499023438 c 0
 348.888671875 268.108398438 338.706054688 264.912109375 328.384765625 264.912109375 c 0
 327.401367188 264.912109375 326.416992188 264.94140625 325.431640625 264.999023438 c 0
 316.764648438 265.666015625 307.931640625 267.499023438 298.931640625 270.499023438 c 0
 289.931640625 273.499023438 281.598632812 278.666015625 273.931640625 285.999023438 c 0
 266.264648438 293.33203125 262.09765625 301.999023438 261.430664062 311.999023438 c 0
 260.541992188 323.99609375 260.09765625 338.213867188 260.09765625 354.653320312 c 0
 260.09765625 362.87890625 260.208984375 371.661132812 260.431640625 380.999023438 c 0
 260.431640625 388.999023438 262.764648438 395.999023438 267.431640625 401.999023438 c 0
 272.098632812 407.999023438 278.265625 412.166015625 285.932617188 414.499023438 c 0
 293.599609375 416.83203125 300.932617188 418.499023438 307.932617188 419.499023438 c 0
 314.932617188 420.499023438 321.099609375 420.666015625 326.432617188 419.999023438 c 0
 332.432617188 419.999023438 338.432617188 419.499023438 344.432617188 418.499023438 c 0
 350.432617188 417.499023438 356.765625 415.33203125 363.432617188 411.999023438 c 0
 370.099609375 408.666015625 375.599609375 403.833007812 379.932617188 397.5 c 0
 384.265625 391.166992188 386.765625 383.666992188 387.432617188 375 c 0
368.431640625 74 m 0
 367.098632812 52.6669921875 345.431640625 -34.333984375 303.431640625 -187.000976562 c 0
 300.098632812 -201.000976562 293.265625 -211.16796875 282.932617188 -217.500976562 c 0
 273.583984375 -223.23046875 264.098632812 -226.095703125 254.4765625 -226.095703125 c 0
 253.462890625 -226.095703125 252.448242188 -226.063476562 251.431640625 -226 c 0
 238.098632812 -225.333007812 226.265625 -221 215.932617188 -213 c 0
 206.780273438 -205.9140625 202.204101562 -196.474609375 202.204101562 -184.681640625 c 0
 202.204101562 -172.114257812 210.10546875 -128.228515625 223.431640625 -63 c 0
 236.098632812 -1 246.098632812 46.3330078125 253.431640625 79 c 0
 255.431640625 89 258.431640625 97 262.431640625 103 c 0
 266.431640625 109 270.931640625 113 275.931640625 115 c 0
 280.931640625 117 286.264648438 118.333007812 291.931640625 119 c 0
 297.598632812 119.666992188 302.431640625 119.666992188 306.431640625 119 c 0
 312.431640625 119 318.931640625 118.166992188 325.931640625 116.5 c 0
 332.931640625 114.833007812 339.931640625 112.5 346.931640625 109.5 c 0
 353.931640625 106.5 359.431640625 102 363.431640625 96 c 0
 367.431640625 90 369.098632812 82.6669921875 368.431640625 74 c 0
EndSplineSet
Validated: 524289
EndChar

StartChar: less
Encoding: 60 60 28
Width: 590
GlyphClass: 2
Flags: HMW
HStem: -12.3989 21G
LayerCount: 2
Fore
SplineSet
540.041015625 14 m 0
 536.708007812 7.3330078125 531.708007812 1.6689453125 525.041015625 -2.998046875 c 0
 518.374023438 -7.6650390625 509.541015625 -10.6650390625 498.541015625 -11.998046875 c 0
 496.341796875 -12.2646484375 494.041992188 -12.3974609375 491.642578125 -12.3974609375 c 0
 482.041992188 -12.3974609375 470.841796875 -10.2646484375 458.041015625 -5.998046875 c 0
 441.374023438 -0.6650390625 420.874023438 11.001953125 396.541015625 29.001953125 c 0
 372.208007812 47.001953125 345.875 68.501953125 317.541992188 93.501953125 c 0
 289.208984375 118.501953125 261.041992188 144.001953125 233.041992188 170.001953125 c 0
 205.041992188 196.001953125 175.541992188 222.834960938 144.541992188 250.501953125 c 0
 113.541992188 278.168945312 87.375 299.668945312 66.0419921875 315.001953125 c 0
 57.375 321.001953125 51.7080078125 330.001953125 49.041015625 342.001953125 c 0
 47.7861328125 347.6484375 47.158203125 353.184570312 47.158203125 358.610351562 c 0
 47.158203125 364.713867188 47.9521484375 370.677734375 49.5400390625 376.500976562 c 0
 52.5400390625 387.500976562 58.373046875 395.333984375 67.0400390625 400.000976562 c 0
 105.040039062 428.000976562 149.540039062 463.16796875 200.540039062 505.500976562 c 0
 251.540039062 547.833984375 298.20703125 586.166992188 340.540039062 620.5 c 0
 382.873046875 654.833007812 420.373046875 682 453.040039062 702 c 0
 463.70703125 708.666992188 473.540039062 712.166992188 482.540039062 712.5 c 0
 491.540039062 712.833007812 499.373046875 711.166015625 506.040039062 707.499023438 c 0
 512.70703125 703.83203125 518.540039062 699.33203125 523.540039062 693.999023438 c 0
 528.540039062 688.666015625 532.373046875 682.999023438 535.040039062 676.999023438 c 0
 537.673828125 672.0234375 538.991210938 667.015625 538.991210938 661.975585938 c 0
 538.991210938 655.536132812 536.840820312 649.043945312 532.540039062 642.499023438 c 0
 524.873046875 630.83203125 510.040039062 616.999023438 488.040039062 600.999023438 c 0
 450.70703125 574.999023438 393.874023438 532.33203125 317.541015625 472.999023438 c 0
 241.208007812 413.666015625 193.041015625 375.999023438 173.041015625 359.999023438 c 1
 199.041015625 339.999023438 227.708007812 315.83203125 259.041015625 287.499023438 c 0
 290.374023438 259.166015625 318.374023438 233.499023438 343.041015625 210.499023438 c 0
 367.708007812 187.499023438 394.041015625 163.999023438 422.041015625 139.999023438 c 0
 450.041015625 115.999023438 474.041015625 96.9990234375 494.041015625 82.9990234375 c 0
 515.374023438 68.9990234375 529.541015625 56.83203125 536.541015625 46.4990234375 c 0
 540.741210938 40.298828125 542.841796875 33.9189453125 542.841796875 27.359375 c 0
 542.841796875 22.986328125 541.908203125 18.533203125 540.041015625 14 c 0
EndSplineSet
Validated: 524289
EndChar

StartChar: equal
Encoding: 61 61 29
Width: 590
GlyphClass: 2
Flags: HMW
HStem: 246.996 83 442.999 85.0725
LayerCount: 2
Fore
SplineSet
151.038085938 528 m 0
 189.038085938 526.666992188 228.206054688 525.99609375 268.540039062 525.99609375 c 0
 308.873046875 525.99609375 346.540039062 526.329101562 381.540039062 526.99609375 c 0
 416.540039062 527.663085938 437.373046875 527.99609375 444.040039062 527.99609375 c 0
 459.373046875 527.99609375 470.206054688 524.663085938 476.538085938 517.99609375 c 0
 482.872070312 511.329101562 486.372070312 502.329101562 487.038085938 490.99609375 c 0
 487.038085938 484.99609375 486.372070312 479.49609375 485.038085938 474.49609375 c 0
 483.706054688 469.49609375 481.706054688 464.663085938 479.038085938 459.99609375 c 0
 476.372070312 455.329101562 472.038085938 451.829101562 466.038085938 449.49609375 c 0
 460.038085938 447.163085938 452.706054688 446.330078125 444.038085938 446.997070312 c 0
 428.030273438 447.442382812 411.502929688 447.665039062 394.458007812 447.665039062 c 0
 385.947265625 447.665039062 377.307617188 447.609375 368.538085938 447.498046875 c 0
 342.205078125 447.165039062 305.705078125 446.33203125 259.038085938 444.999023438 c 0
 212.370117188 443.666015625 178.038085938 442.999023438 156.038085938 442.999023438 c 0
 139.370117188 442.999023438 126.370117188 446.999023438 117.038085938 454.999023438 c 0
 103.095703125 466.950195312 102.959960938 479.587890625 102.959960938 486.887695312 c 0
 102.959960938 498.295898438 106.653320312 508 114.038085938 516 c 0
 121.466796875 524.047851562 132.630859375 528.071289062 147.530273438 528.071289062 c 0
 148.677734375 528.071289062 149.846679688 528.047851562 151.038085938 528 c 0
154.040039062 329.99609375 m 0
 171.626953125 329.7734375 190.180664062 329.662109375 209.700195312 329.662109375 c 0
 248.635742188 329.662109375 291.416015625 330.10546875 338.041015625 330.993164062 c 0
 408.041015625 332.326171875 443.374023438 332.993164062 444.041015625 332.993164062 c 0
 459.374023438 332.993164062 470.206054688 329.493164062 476.540039062 322.493164062 c 0
 482.873046875 315.493164062 486.373046875 306.326171875 487.040039062 294.993164062 c 0
 487.040039062 288.993164062 486.373046875 283.493164062 485.040039062 278.493164062 c 0
 483.706054688 273.493164062 481.706054688 268.66015625 479.040039062 263.993164062 c 0
 476.373046875 259.326171875 472.040039062 255.826171875 466.040039062 253.493164062 c 0
 460.040039062 251.16015625 452.706054688 250.327148438 444.040039062 250.994140625 c 0
 428.032226562 251.439453125 411.357421875 251.662109375 394.014648438 251.662109375 c 0
 385.356445312 251.662109375 376.530273438 251.606445312 367.540039062 251.495117188 c 0
 340.540039062 251.162109375 303.373046875 250.329101562 256.040039062 248.99609375 c 0
 208.706054688 247.663085938 174.040039062 246.99609375 152.040039062 246.99609375 c 0
 135.373046875 246.99609375 123.040039062 251.163085938 115.040039062 259.49609375 c 0
 103.663085938 271.346679688 102.967773438 284.059570312 102.967773438 292.397460938 c 0
 102.967773438 302.677734375 106.991210938 311.376953125 115.040039062 318.49609375 c 0
 123.706054688 326.163085938 136.706054688 329.99609375 154.040039062 329.99609375 c 0
EndSplineSet
Validated: 524289
EndChar

StartChar: greater
Encoding: 62 62 30
Width: 590
GlyphClass: 2
Flags: W
LayerCount: 2
Fore
SplineSet
136.842773438 5 m 0
 126.842773438 -1 117.174804688 -4.33203125 107.840820312 -4.9990234375 c 0
 98.5078125 -5.666015625 90.5078125 -4.166015625 83.8408203125 -0.4990234375 c 0
 77.173828125 3.16796875 71.5068359375 7.66796875 66.83984375 13.0009765625 c 0
 62.1728515625 18.333984375 58.505859375 24.0009765625 55.8388671875 30.0009765625 c 0
 53.138671875 35.1005859375 51.7890625 40.234375 51.7890625 45.4013671875 c 0
 51.7890625 51.716796875 53.8056640625 58.0830078125 57.8388671875 64.5 c 0
 65.171875 76.1669921875 80.171875 90 102.838867188 106 c 0
 140.171875 132 196.838867188 174.666992188 272.838867188 234 c 0
 348.838867188 293.333007812 397.506835938 331 418.838867188 347 c 1
 392.838867188 367 363.671875 391.166992188 331.338867188 419.5 c 0
 299.006835938 447.833007812 270.838867188 473.5 246.838867188 496.5 c 0
 222.838867188 519.5 196.838867188 543 168.838867188 567 c 0
 140.838867188 591 116.171875 610 94.8388671875 624 c 0
 73.505859375 638 59.3388671875 650.166992188 52.3388671875 660.5 c 0
 48.3662109375 666.364257812 46.3798828125 672.389648438 46.3798828125 678.576171875 c 0
 46.3798828125 683.290039062 47.533203125 688.09765625 49.83984375 692.998046875 c 0
 53.1728515625 699.665039062 58.005859375 705.33203125 64.3388671875 709.999023438 c 0
 70.671875 714.666015625 79.671875 717.666015625 91.3388671875 718.999023438 c 0
 93.671875 719.265625 96.078125 719.3984375 98.5576171875 719.3984375 c 0
 108.479492188 719.3984375 119.573242188 717.265625 131.838867188 712.999023438 c 0
 148.506835938 707.666015625 169.172851562 696.166015625 193.83984375 678.499023438 c 0
 218.506835938 660.83203125 245.006835938 639.33203125 273.33984375 613.999023438 c 0
 301.672851562 588.666015625 329.83984375 562.999023438 357.83984375 536.999023438 c 0
 385.83984375 510.999023438 415.172851562 484.33203125 445.83984375 456.999023438 c 0
 476.506835938 429.666015625 503.174804688 407.999023438 525.840820312 391.999023438 c 0
 533.840820312 385.999023438 539.174804688 376.999023438 541.840820312 364.999023438 c 0
 543.026367188 359.665039062 543.620117188 354.4296875 543.620117188 349.29296875 c 0
 543.620117188 342.874023438 542.694335938 336.609375 540.842773438 330.499023438 c 0
 537.508789062 319.499023438 531.842773438 311.666015625 523.842773438 306.999023438 c 0
 485.842773438 278.999023438 441.342773438 243.83203125 390.342773438 201.499023438 c 0
 339.342773438 159.166015625 292.674804688 120.833007812 250.342773438 86.5 c 0
 208.008789062 52.1669921875 170.17578125 25 136.842773438 5 c 0
EndSplineSet
Validated: 524289
EndChar

StartChar: question
Encoding: 63 63 31
Width: 590
GlyphClass: 2
Flags: HMW
HStem: -14.5656 154.604 637.999 84.001
VStem: 191.326 163 403.328 99
LayerCount: 2
Fore
SplineSet
326.328125 262 m 0
 323.661132812 244.666992188 317.490234375 231.330078125 307.82421875 221.997070312 c 0
 301.37890625 215.775390625 293.083007812 212.6640625 282.935546875 212.6640625 c 0
 277.861328125 212.6640625 272.32421875 213.442382812 266.32421875 214.998046875 c 0
 247.657226562 219.665039062 235.32421875 228.33203125 229.32421875 240.999023438 c 0
 226.1484375 247.705078125 224.559570312 255.625 224.559570312 264.759765625 c 0
 224.559570312 272.879882812 225.814453125 281.959960938 228.32421875 291.999023438 c 0
 232.9921875 309.999023438 239.82421875 326.999023438 248.82421875 342.999023438 c 0
 257.82421875 358.999023438 267.657226562 372.666015625 278.32421875 383.999023438 c 0
 288.9921875 395.33203125 300.158203125 406.165039062 311.825195312 416.498046875 c 0
 323.4921875 426.831054688 334.66015625 436.498046875 345.326171875 445.498046875 c 0
 355.993164062 454.498046875 365.66015625 463.665039062 374.328125 472.998046875 c 0
 382.994140625 482.331054688 389.994140625 492.498046875 395.328125 503.498046875 c 0
 400.66015625 514.498046875 403.328125 526.331054688 403.328125 538.998046875 c 0
 403.328125 573.665039062 393.16015625 598.83203125 372.828125 614.499023438 c 0
 352.494140625 630.166015625 323.661132812 637.999023438 286.328125 637.999023438 c 0
 276.99609375 637.999023438 267.662109375 635.83203125 258.329101562 631.499023438 c 0
 248.99609375 627.166015625 240.829101562 622.333007812 233.829101562 617 c 0
 226.829101562 611.666992188 219.49609375 604.5 211.829101562 595.5 c 0
 204.162109375 586.5 198.162109375 578.833007812 193.829101562 572.5 c 0
 189.49609375 566.166992188 184.329101562 558.666992188 178.329101562 550 c 0
 172.329101562 541.333007812 166.662109375 534.5 161.329101562 529.5 c 0
 155.99609375 524.5 150.329101562 521.833007812 144.329101562 521.5 c 0
 138.329101562 521.166992188 132.99609375 521.5 128.329101562 522.5 c 0
 123.662109375 523.5 117.662109375 525.666992188 110.329101562 529 c 0
 98.99609375 535 91.8291015625 543.666992188 88.8291015625 555 c 0
 88.0576171875 557.9140625 87.671875 561.048828125 87.671875 564.404296875 c 0
 87.671875 574.096679688 90.890625 585.62890625 97.3291015625 599 c 0
 104.662109375 613 113.49609375 626.5 123.828125 639.5 c 0
 134.161132812 652.5 146.994140625 665.5 162.328125 678.5 c 0
 177.66015625 691.5 195.828125 702 216.828125 710 c 0
 237.828125 718 259.66015625 722 282.328125 722 c 0
 354.328125 722 408.994140625 705.333007812 446.328125 672 c 0
 483.66015625 638.666992188 502.328125 588.666992188 502.328125 522 c 0
 502.328125 504 499.494140625 487.666992188 493.828125 473 c 0
 488.16015625 458.333007812 480.66015625 445.666015625 471.328125 434.999023438 c 0
 461.994140625 424.33203125 451.494140625 414.33203125 439.828125 404.999023438 c 0
 428.16015625 395.666015625 416.16015625 386.333007812 403.828125 377 c 0
 391.494140625 367.666992188 380.161132812 358 369.828125 348 c 0
 359.49609375 338 350.328125 325.5 342.328125 310.5 c 0
 334.328125 295.5 328.99609375 279.333007812 326.328125 262 c 0
275.32421875 -14.00390625 m 0
 271.861328125 -14.3779296875 268.486328125 -14.5654296875 265.200195312 -14.5654296875 c 0
 245.083007812 -14.5654296875 228.291015625 -7.5478515625 214.82421875 6.4921875 c 0
 199.157226562 22.8251953125 191.32421875 41.9921875 191.32421875 63.9921875 c 0
 191.32421875 84.6591796875 199.82421875 102.326171875 216.82421875 116.993164062 c 0
 233.82421875 131.66015625 253.32421875 139.327148438 275.32421875 139.994140625 c 0
 276.361328125 140.0234375 277.390625 140.038085938 278.411132812 140.038085938 c 0
 300.33984375 140.038085938 318.309570312 133.190429688 332.32421875 119.495117188 c 0
 346.9921875 105.162109375 354.32421875 86.9951171875 354.32421875 64.9951171875 c 0
 354.32421875 43.662109375 347.157226562 25.8291015625 332.82421875 11.49609375 c 0
 318.4921875 -2.8369140625 299.32421875 -11.3369140625 275.32421875 -14.00390625 c 0
EndSplineSet
Validated: 524289
EndChar

StartChar: at
Encoding: 64 64 32
Width: 590
GlyphClass: 2
Flags: HMW
HStem: -129.182 85.178 102.002 77.9951 118.002 79.9941 381 77.1335 612.994 90.0078
VStem: 37.0004 87.0029 160.001 76.999 341.999 80.002 480.003 72.998
LayerCount: 2
Fore
SplineSet
502.005859375 5 m 0xdf80
 498.673828125 -4.3330078125 495.166015625 -12.5009765625 491.499023438 -19.5009765625 c 0
 487.83203125 -26.5009765625 482.83203125 -35.16796875 476.499023438 -45.5009765625 c 0
 470.166015625 -55.833984375 463.499023438 -64.6669921875 456.499023438 -72 c 0
 449.499023438 -79.3330078125 440.33203125 -86.8330078125 428.999023438 -94.5 c 0
 417.666015625 -102.166992188 405.499023438 -108.5 392.499023438 -113.5 c 0
 379.499023438 -118.5 363.999023438 -122.5 345.999023438 -125.5 c 0
 331.272460938 -127.954101562 315.654296875 -129.181640625 299.142578125 -129.181640625 c 0
 295.471679688 -129.181640625 291.7578125 -129.12109375 287.999023438 -129 c 0
 252.666015625 -129 219.666015625 -120.333007812 188.999023438 -103 c 0
 158.33203125 -85.6669921875 131.83203125 -61.5 109.499023438 -30.5 c 0
 87.166015625 0.5 69.5 38.1669921875 56.5 82.5 c 0
 43.5 126.833007812 37 175.333007812 37 228 c 0
 37 286.666992188 41.5 341.333984375 50.5 392.000976562 c 0
 59.5 442.66796875 72.33203125 486.834960938 89 524.501953125 c 0
 105.666015625 562.168945312 125.333984375 594.501953125 148 621.501953125 c 0
 170.666992188 648.501953125 195.666992188 668.834960938 223 682.501953125 c 0
 250.333984375 696.168945312 279 703.001953125 309 703.001953125 c 0
 331.666992188 703.001953125 352 701.168945312 370 697.501953125 c 0
 388 693.834960938 405.5 687.834960938 422.5 679.501953125 c 0
 439.5 671.168945312 454.5 660.001953125 467.5 646.001953125 c 0
 480.5 632.001953125 492.5 614.501953125 503.5 593.501953125 c 0
 514.5 572.501953125 523.5 548.001953125 530.5 520.001953125 c 0
 537.5 492.001953125 543 459.001953125 547 421.001953125 c 0
 551 383.001953125 553 340.334960938 553 293.001953125 c 0
 553 269.001953125 551.166992188 246.168945312 547.5 224.501953125 c 0
 543.833984375 202.834960938 538.5 182.501953125 531.5 163.501953125 c 0
 524.5 144.501953125 514.166992188 129.501953125 500.5 118.501953125 c 0
 486.833984375 107.501953125 471 102.001953125 453 102.001953125 c 0xdf80
 405 102.001953125 378 130.001953125 372 186.001953125 c 1
 356.666992188 140.668945312 327.666992188 118.001953125 285 118.001953125 c 0
 245.666992188 118.001953125 215 130.334960938 193 155.001953125 c 0
 171 179.668945312 160 217.3359375 160 268.002929688 c 0
 160 293.3359375 162.833984375 316.668945312 168.5 338.001953125 c 0
 174.166992188 359.334960938 181.833984375 377.501953125 191.501953125 392.501953125 c 0
 201.16796875 407.501953125 212.501953125 420.168945312 225.501953125 430.501953125 c 0
 238.501953125 440.834960938 252.66796875 448.16796875 268.001953125 452.500976562 c 0
 281.2890625 456.255859375 294.827148438 458.133789062 308.616210938 458.133789062 c 0
 310.73828125 458.133789062 312.8671875 458.088867188 315.001953125 458 c 0
 331.001953125 457.333007812 347.001953125 453.666015625 363.001953125 446.999023438 c 0
 378.334960938 440.999023438 390.66796875 432.999023438 400.001953125 422.999023438 c 0
 409.333984375 412.999023438 411.666992188 403.999023438 407 395.999023438 c 0
 404.333984375 390.666015625 401.333984375 386.333007812 398 383 c 0
 394.666992188 379.666992188 390.666992188 377.333984375 386 376.000976562 c 0
 381.333984375 374.66796875 377 373.66796875 373 373.000976562 c 0
 369 372.333984375 364 372.500976562 358 373.500976562 c 0
 352 374.500976562 347.333984375 375.333984375 344 376.000976562 c 0
 340.666992188 376.66796875 335.666992188 378.000976562 329 380.000976562 c 0
 320.333984375 381.333984375 311.833984375 381.666992188 303.5 381 c 0
 295.166992188 380.333007812 287 377.5 279 372.5 c 0
 271 367.5 264 361.166992188 258 353.5 c 0
 252 345.833007812 247 335.666015625 243 322.999023438 c 0
 239 310.33203125 237 295.999023438 237 279.999023438 c 0
 237 271.33203125 237.5 263.165039062 238.5 255.498046875 c 0
 239.5 247.831054688 241.5 239.1640625 244.5 229.497070312 c 0
 247.5 219.830078125 252.166992188 212.163085938 258.5 206.49609375 c 0
 264.833984375 200.829101562 272.666015625 197.99609375 281.999023438 197.99609375 c 0xbf80
 303.33203125 197.99609375 318.33203125 206.163085938 326.999023438 222.49609375 c 0
 335.666015625 238.829101562 340.666015625 265.99609375 341.999023438 303.99609375 c 0
 341.999023438 314.663085938 350.666015625 323.330078125 367.999023438 329.997070312 c 0
 378.806640625 334.2421875 388.608398438 336.365234375 397.404296875 336.365234375 c 0
 403.802734375 336.365234375 409.666992188 335.2421875 415 332.997070312 c 0
 423.666992188 329.6640625 427.333984375 322.997070312 426.001953125 312.997070312 c 0
 423.333984375 289.44140625 422.001953125 269.3671875 422.001953125 252.774414062 c 0
 422.001953125 244.478515625 422.333984375 237.052734375 423.001953125 230.497070312 c 0
 425.001953125 210.830078125 428.333984375 197.497070312 433.001953125 190.497070312 c 0
 437.66796875 183.497070312 444.334960938 179.997070312 453.001953125 179.997070312 c 0
 458.334960938 179.997070312 463.001953125 184.330078125 467.001953125 192.997070312 c 0
 471.001953125 201.6640625 473.834960938 212.997070312 475.501953125 226.997070312 c 0
 477.169921875 240.997070312 478.3359375 253.330078125 479.002929688 263.997070312 c 0
 479.669921875 274.6640625 480.002929688 284.997070312 480.002929688 294.997070312 c 0
 480.002929688 328.997070312 478.502929688 360.330078125 475.502929688 388.997070312 c 0
 472.502929688 417.6640625 468.8359375 442.1640625 464.502929688 462.497070312 c 0
 460.169921875 482.830078125 454.337890625 501.163085938 447.00390625 517.49609375 c 0
 439.670898438 533.829101562 432.670898438 547.162109375 426.00390625 557.495117188 c 0
 419.337890625 567.828125 411.337890625 576.661132812 402.00390625 583.994140625 c 0
 392.670898438 591.327148438 384.50390625 596.827148438 377.50390625 600.494140625 c 0
 370.50390625 604.161132812 362.50390625 606.994140625 353.50390625 608.994140625 c 0
 344.50390625 610.994140625 337.670898438 612.161132812 333.00390625 612.494140625 c 0
 328.337890625 612.827148438 322.669921875 612.994140625 316.002929688 612.994140625 c 0
 289.3359375 612.994140625 264.502929688 604.661132812 241.502929688 587.994140625 c 0
 218.502929688 571.327148438 198.169921875 548.16015625 180.502929688 518.493164062 c 0
 162.8359375 488.826171875 149.002929688 451.993164062 139.002929688 407.993164062 c 0
 129.002929688 363.993164062 124.002929688 315.993164062 124.002929688 263.993164062 c 0
 124.002929688 218.66015625 127.3359375 177.827148438 134.002929688 141.494140625 c 0
 140.669921875 105.161132812 149.669921875 75.828125 161.002929688 53.4951171875 c 0
 172.3359375 31.162109375 185.502929688 12.3291015625 200.502929688 -3.00390625 c 0
 215.502929688 -18.3369140625 230.502929688 -29.00390625 245.502929688 -35.00390625 c 0
 260.502929688 -41.00390625 276.002929688 -44.00390625 292.002929688 -44.00390625 c 0
 309.3359375 -44.00390625 325.3359375 -42.3369140625 340.002929688 -39.00390625 c 0
 354.669921875 -35.6708984375 366.837890625 -31.6708984375 376.50390625 -27.00390625 c 0
 386.170898438 -22.3369140625 395.337890625 -16.00390625 404.005859375 -8.00390625 c 0
 412.671875 -0.00390625 419.338867188 7.3291015625 424.005859375 13.99609375 c 0
 428.673828125 20.6630859375 434.005859375 29.330078125 440.005859375 39.9970703125 c 0
 442.673828125 44.6640625 445.005859375 48.3310546875 447.005859375 50.998046875 c 0
 449.005859375 53.6650390625 451.338867188 56.83203125 454.005859375 60.4990234375 c 0
 456.673828125 64.166015625 459.005859375 66.8330078125 461.005859375 68.5 c 0
 463.005859375 70.1669921875 465.505859375 71.6669921875 468.505859375 73 c 0
 471.505859375 74.3330078125 474.505859375 75 477.505859375 75 c 0
 480.505859375 75 483.673828125 74.3330078125 487.005859375 73 c 0
 492.338867188 71 496.838867188 68.5 500.505859375 65.5 c 0
 504.173828125 62.5 507.005859375 58.5 509.005859375 53.5 c 0
 511.005859375 48.5 511.338867188 41.8330078125 510.005859375 33.5 c 0
 508.673828125 25.1669921875 506.005859375 15.6669921875 502.005859375 5 c 0xdf80
EndSplineSet
Validated: 524289
EndChar

StartChar: A
Encoding: 65 65 33
Width: 590
GlyphClass: 2
Flags: HMW
HStem: -5.55122 21G 251 81.0059
VStem: 28.5711 90.5231
LayerCount: 2
Fore
SplineSet
119.094726562 41 m 2
 112.426757812 20.3330078125 103.094726562 6.6708984375 91.0947265625 0.00390625 c 0
 84.427734375 -3.7001953125 77.658203125 -5.5517578125 70.78515625 -5.5517578125 c 0
 65.287109375 -5.5517578125 59.7236328125 -4.3671875 54.09375 -1.9970703125 c 0
 37.080078125 5.78125 28.5732421875 21.3564453125 28.5732421875 44.7294921875 c 0
 28.5732421875 53.4111328125 29.7470703125 63.1689453125 32.0947265625 74.0029296875 c 0
 36.0947265625 95.3359375 55.427734375 147.3359375 90.0947265625 230.002929688 c 1
 78.0947265625 238.002929688 72.0947265625 247.669921875 72.0947265625 259.002929688 c 0
 71.427734375 268.3359375 75.5947265625 277.168945312 84.5947265625 285.501953125 c 0
 93.5947265625 293.834960938 105.426757812 300.334960938 120.094726562 305.001953125 c 1
 202.094726562 495.668945312 265.094726562 623.001953125 309.094726562 687.001953125 c 0
 319.094726562 700.334960938 327.926757812 710.001953125 335.594726562 716.001953125 c 0
 343.26171875 722.001953125 351.76171875 725.001953125 361.094726562 725.001953125 c 0
 363.397460938 725.244140625 365.661132812 725.365234375 367.887695312 725.365234375 c 0
 377.903320312 725.365234375 387.139648438 722.911132812 395.59375 718.001953125 c 0
 405.926757812 712.001953125 412.09375 701.668945312 414.09375 687.001953125 c 0
 428.09375 604.334960938 451.59375 487.16796875 484.59375 335.500976562 c 0
 517.59375 183.833984375 540.426757812 96.6669921875 553.09375 74 c 0
 558.649414062 63.443359375 561.426757812 53.697265625 561.426757812 44.76171875 c 0
 561.426757812 42.9755859375 561.31640625 41.2216796875 561.094726562 39.5 c 0
 559.76171875 29.1669921875 556.428710938 20.5 551.094726562 13.5 c 0
 545.762695312 6.5 539.4296875 1.3330078125 532.096679688 -2 c 0
 526.305664062 -4.4375 520.514648438 -5.65625 514.723632812 -5.65625 c 2
 494.094726562 -0.4990234375 l 2
 481.426757812 5.833984375 471.094726562 19.6669921875 463.094726562 41 c 0
 454.426757812 61.6669921875 437.760742188 131.666992188 413.09375 251 c 1
 327.760742188 247.666992188 251.426757812 240.666992188 184.094726562 230 c 1
 119.094726562 41 l 2
341.094726562 602.004882812 m 1
 311.76171875 557.337890625 270.094726562 462.671875 216.094726562 318.004882812 c 1
 284.094726562 326.004882812 344.426757812 330.671875 397.094726562 332.004882812 c 1
 341.094726562 602.004882812 l 1
EndSplineSet
Validated: 524289
EndChar

StartChar: B
Encoding: 66 66 34
Width: 590
GlyphClass: 2
Flags: HMW
HStem: -22.9961 21G 297.004 72 630.004 78.999
VStem: 53.0005 96.4978 406.997 90.0384 440.998 98.001
LayerCount: 2
Fore
SplineSet
244 -14 m 0xf4
 232.66796875 -14.6669921875 219.998046875 -15.6640625 205.998046875 -16.9970703125 c 0
 191.998046875 -18.330078125 180.665039062 -19.330078125 171.998046875 -19.9970703125 c 2
 145.998046875 -21.9970703125 l 2
 137.33203125 -22.6640625 129.498046875 -22.9970703125 122.498046875 -22.9970703125 c 0
 115.498046875 -22.9970703125 108.998046875 -22.330078125 102.998046875 -20.9970703125 c 2
 98.998046875 -20.9970703125 l 2
 85.6650390625 -20.9970703125 74.83203125 -16.4970703125 66.4990234375 -7.4970703125 c 0
 58.783203125 0.8359375 54.92578125 12.1689453125 54.92578125 26.5029296875 c 0
 54.92578125 33.943359375 57.25 48.533203125 57.25 135.748046875 c 0
 57.25 152.249023438 57.1669921875 170.333984375 57 190.002929688 c 0
 56.3330078125 268.669921875 55 349.669921875 53 433.002929688 c 0
 51.6669921875 477.669921875 51 507.669921875 51 523.002929688 c 0
 51 538.3359375 51.5 559.002929688 52.5 585.002929688 c 0
 53.5 611.002929688 54 629.002929688 54 639.002929688 c 0
 54.6669921875 657.002929688 59.5 670.502929688 68.5 679.502929688 c 0
 77.5 688.502929688 89 693.002929688 103 693.002929688 c 2
 108 693.002929688 l 2
 118.66796875 696.3359375 129.66796875 699.168945312 141 701.501953125 c 0
 152.333007812 703.834960938 162.833007812 705.501953125 172.5 706.501953125 c 0
 182.16796875 707.501953125 192.66796875 708.168945312 204 708.501953125 c 0
 215.333007812 708.834960938 224.166015625 709.001953125 230.5 709.001953125 c 2
 251 709.001953125 l 1
 262 709.001953125 l 2
 307.33203125 709.001953125 347.5 700.668945312 382.5 684.001953125 c 0
 417.5 667.334960938 445.166015625 643.16796875 465.5 611.500976562 c 0
 487.921875 576.581054688 497.03515625 537.415039062 497.03515625 496.803710938 c 0xf8
 497.03515625 459.928710938 488.5234375 428.161132812 471.5 401.500976562 c 0
 453.83203125 373.833984375 429.33203125 353.666992188 398 341 c 1
 420.666015625 333.666992188 442.5 322.833984375 463.5 308.500976562 c 0
 484.5 294.16796875 502.33203125 278.16796875 517 260.500976562 c 0
 531.666015625 242.833984375 539 226.333984375 539 211.000976562 c 0
 539 185.66796875 532.666015625 160.500976562 520 135.500976562 c 0
 507.33203125 110.500976562 488.83203125 87.66796875 464.5 67.0009765625 c 0
 440.166015625 46.333984375 408.833007812 28.6669921875 370.5 14 c 0
 332.16796875 -0.6669921875 290 -10 244 -14 c 0xf4
259.998046875 630.002929688 m 0
 223.998046875 630.002929688 188.998046875 625.668945312 154.998046875 617.001953125 c 1
 154.998046875 604.334960938 154.33203125 584.001953125 152.998046875 556.001953125 c 0
 151.665039062 528.001953125 150.665039062 498.334960938 149.998046875 467.001953125 c 0
 149.6640625 451.3359375 149.497070312 435.502929688 149.497070312 419.502929688 c 0
 149.497070312 403.502929688 149.6640625 387.3359375 149.998046875 371.002929688 c 1
 181.33203125 369.669921875 210.998046875 369.002929688 238.998046875 369.002929688 c 0
 258.998046875 369.002929688 277.33203125 370.669921875 293.998046875 374.002929688 c 0
 310.665039062 377.3359375 324.498046875 381.668945312 335.498046875 387.001953125 c 0
 346.498046875 392.334960938 356.498046875 398.834960938 365.498046875 406.501953125 c 0
 374.498046875 414.168945312 381.33203125 422.001953125 385.998046875 430.001953125 c 0
 390.665039062 438.001953125 394.665039062 446.834960938 397.998046875 456.501953125 c 0
 401.33203125 466.168945312 403.6640625 474.8359375 404.997070312 482.502929688 c 0
 406.330078125 490.169921875 406.997070312 498.336914062 406.997070312 507.00390625 c 0
 406.997070312 524.336914062 403.497070312 540.336914062 396.497070312 555.00390625 c 0
 389.497070312 569.670898438 380.830078125 581.50390625 370.497070312 590.50390625 c 0
 360.1640625 599.50390625 348.33203125 607.170898438 334.998046875 613.50390625 c 0
 321.665039062 619.836914062 308.665039062 624.169921875 295.998046875 626.502929688 c 0
 283.33203125 628.8359375 271.33203125 630.002929688 259.998046875 630.002929688 c 0
245.998046875 297.001953125 m 1
 197.33203125 297.001953125 165.998046875 296.66796875 151.998046875 296.000976562 c 1
 154.665039062 188.66796875 156.665039062 112.334960938 157.998046875 67.001953125 c 1
 165.33203125 67.001953125 177.498046875 67.3349609375 194.498046875 68.001953125 c 0
 211.498046875 68.6689453125 224.33203125 69.001953125 232.998046875 69.001953125 c 0
 263.665039062 70.3349609375 292.498046875 75.66796875 319.498046875 85.0009765625 c 0
 346.498046875 94.333984375 368.33203125 105.500976562 384.998046875 118.500976562 c 0
 401.665039062 131.500976562 415.165039062 145.16796875 425.498046875 159.500976562 c 0
 435.83203125 173.833984375 440.998046875 187.000976562 440.998046875 199.000976562 c 0xf4
 440.998046875 207.66796875 437.33203125 216.334960938 429.998046875 225.001953125 c 0
 422.665039062 233.668945312 411.498046875 242.668945312 396.498046875 252.001953125 c 0
 381.498046875 261.334960938 360.998046875 270.001953125 334.998046875 278.001953125 c 0
 308.998046875 286.001953125 279.33203125 292.334960938 245.998046875 297.001953125 c 1
EndSplineSet
Validated: 524289
EndChar

StartChar: C
Encoding: 67 67 35
Width: 590
GlyphClass: 2
Flags: HMW
HStem: -31.0911 90.092 518.417 222.246 632.001 80.9961
VStem: 36.9985 100.998 450 103.001
LayerCount: 2
Fore
SplineSet
524.994140625 64 m 0xb8
 470.009765625 0.607421875 385.845703125 -31.091796875 272.490234375 -31.091796875 c 0
 269.01953125 -31.091796875 265.522460938 -31.0625 261.998046875 -31.0029296875 c 0
 234.666015625 -31.0029296875 208.666015625 -26.3359375 183.998046875 -17.0029296875 c 0
 159.331054688 -7.669921875 138.498046875 4.6630859375 121.498046875 19.99609375 c 0
 104.498046875 35.3291015625 89.33203125 53.162109375 75.998046875 73.4951171875 c 0
 62.666015625 93.828125 52.83203125 115.495117188 46.5 138.495117188 c 0
 40.166015625 161.495117188 37 184.662109375 37 207.995117188 c 0
 37 256.662109375 42 303.662109375 52 348.995117188 c 0
 62 394.328125 75.5 435.328125 92.5 471.995117188 c 0
 109.499023438 508.662109375 129.33203125 542.329101562 151.999023438 572.99609375 c 0
 174.666015625 603.663085938 198.833984375 629.163085938 224.5 649.49609375 c 0
 250.166992188 669.829101562 276.5 685.49609375 303.5 696.49609375 c 0
 330.5 707.49609375 356.333984375 712.99609375 381 712.99609375 c 0xb8
 405.666992188 712.99609375 428.333984375 710.329101562 449.001953125 704.99609375 c 1
 451.66796875 714.99609375 456.66796875 723.163085938 464.001953125 729.49609375 c 0
 471.333984375 735.829101562 480.001953125 739.329101562 490.001953125 739.99609375 c 0
 492.37109375 740.440429688 494.75 740.663085938 497.13671875 740.663085938 c 0
 505.490234375 740.663085938 513.944335938 737.940429688 522.5 732.49609375 c 0
 533.5 725.49609375 540.333984375 715.329101562 543 701.99609375 c 0
 545 691.99609375 547 682.163085938 549 672.49609375 c 0
 551 662.829101562 552.166992188 653.329101562 552.5 643.99609375 c 0
 552.833984375 634.663085938 553 626.99609375 553 620.99609375 c 2
 553 599.99609375 l 1
 553 584.99609375 l 2
 553 570.99609375 547.666992188 556.829101562 537 542.49609375 c 0
 526.333984375 528.163085938 515.666015625 520.330078125 504.999023438 518.997070312 c 0
 502.677734375 518.610351562 500.34765625 518.416992188 498.013671875 518.416992188 c 0xd8
 488.283203125 518.416992188 478.4453125 521.77734375 468.499023438 528.498046875 c 0
 456.166015625 536.831054688 449.999023438 547.998046875 449.999023438 561.998046875 c 0
 449.999023438 567.331054688 450.33203125 581.331054688 450.999023438 603.998046875 c 0
 450.33203125 604.665039062 447.166015625 606.83203125 441.498046875 610.499023438 c 0
 435.831054688 614.166015625 431.831054688 616.833007812 429.498046875 618.5 c 0
 427.166015625 620.166992188 423.33203125 622.333984375 417.999023438 625.000976562 c 0
 412.666015625 627.66796875 407.499023438 629.500976562 402.499023438 630.500976562 c 0
 397.499023438 631.500976562 392.666015625 632.000976562 387.999023438 632.000976562 c 0
 367.33203125 632.000976562 345.166015625 625.333984375 321.498046875 612.000976562 c 0
 297.831054688 598.66796875 275.1640625 579.66796875 253.498046875 555.000976562 c 0
 231.830078125 530.333984375 212.163085938 502.000976562 194.49609375 470.000976562 c 0
 176.830078125 438.000976562 162.99609375 401.833984375 152.99609375 361.500976562 c 0
 142.99609375 321.16796875 137.99609375 280.66796875 137.99609375 240.000976562 c 0
 137.99609375 210.66796875 143.663085938 182.000976562 154.99609375 154.000976562 c 0
 166.330078125 126.000976562 182.49609375 103.16796875 203.49609375 85.5009765625 c 0
 224.49609375 67.833984375 247.330078125 59.0009765625 271.99609375 59.0009765625 c 0
 293.330078125 59.0009765625 314.49609375 61.16796875 335.49609375 65.5009765625 c 0
 356.49609375 69.833984375 374.99609375 75.5009765625 390.99609375 82.5009765625 c 0
 406.99609375 89.5009765625 420.830078125 96.5009765625 432.49609375 103.500976562 c 0
 444.163085938 110.500976562 454.99609375 118.000976562 464.99609375 126.000976562 c 0
 473.663085938 132.000976562 481.163085938 136.66796875 487.49609375 140.000976562 c 0
 493.830078125 143.333984375 500.662109375 145.000976562 507.995117188 145.000976562 c 0
 515.328125 145.000976562 522.662109375 142.66796875 529.994140625 138.000976562 c 0
 541.21484375 129.2734375 546.826171875 119.234375 546.826171875 107.883789062 c 0
 546.826171875 94.95703125 539.548828125 80.3291015625 524.994140625 64 c 0xb8
EndSplineSet
Validated: 524289
EndChar

StartChar: D
Encoding: 68 68 36
Width: 590
GlyphClass: 2
Flags: HMW
HStem: -31 85.998 694.001 20G
VStem: 35.1877 98.6278 39.8135 102.002 458.815 95.9971
LayerCount: 2
Fore
SplineSet
134.815429688 348 m 0xe8
 135.482421875 319.333007812 136.645507812 276.1640625 138.3125 218.497070312 c 0
 139.979492188 160.830078125 141.1484375 117.330078125 141.815429688 87.9970703125 c 1
 169.1484375 75.9970703125 197.813476562 67.4970703125 227.813476562 62.4970703125 c 0
 257.813476562 57.4970703125 291.813476562 54.9970703125 329.813476562 54.9970703125 c 0
 348.48046875 54.9970703125 366.147460938 61.1640625 382.814453125 73.4970703125 c 0
 399.481445312 85.830078125 413.1484375 101.830078125 423.815429688 121.497070312 c 0
 434.482421875 141.1640625 442.982421875 162.831054688 449.315429688 186.498046875 c 0
 455.6484375 210.165039062 458.815429688 233.33203125 458.815429688 255.999023438 c 0
 458.815429688 381.33203125 407.482421875 476.999023438 304.815429688 542.999023438 c 0
 268.1484375 566.33203125 215.815429688 590.33203125 147.815429688 614.999023438 c 1
 146.815429688 615.999023438 l 1
 145.815429688 615.999023438 l 1
 144.815429688 615.999023438 l 1
 143.815429688 616.999023438 l 1
 142.815429688 616.999023438 l 1
 141.815429688 616.999023438 l 1
 141.815429688 617.999023438 l 1xd8
 140.815429688 617.999023438 l 1
 139.815429688 617.999023438 l 1
 138.815429688 618.999023438 l 1
 137.815429688 618.999023438 l 1
 136.815429688 618.999023438 l 1
 135.815429688 619.999023438 l 1
 134.815429688 619.999023438 l 1
 133.815429688 619.999023438 l 1
 133.815429688 620.999023438 l 1
 132.958007812 583.854492188 132.529296875 545.9140625 132.529296875 507.177734375 c 0
 132.529296875 455.533203125 133.291015625 402.473632812 134.815429688 348 c 0xe8
330.814453125 -31.0009765625 m 0
 297.481445312 -31.0009765625 264.982421875 -29.5 233.315429688 -26.5 c 0
 201.6484375 -23.5 176.481445312 -20 157.814453125 -16 c 0
 139.147460938 -12 122.814453125 -8.3330078125 108.814453125 -5 c 0
 94.814453125 -1.6669921875 86.4814453125 0 83.814453125 0 c 0
 70.4814453125 0 59.4814453125 4.5 50.814453125 13.5 c 0
 43.302734375 21.2998046875 39.546875 31.7294921875 39.546875 44.7880859375 c 0
 39.546875 46.796875 39.6357421875 48.8671875 39.8134765625 51 c 0xd8
 41.3134765625 74.9990234375 42.0634765625 112.965820312 42.0634765625 164.901367188 c 0
 42.0634765625 182.21484375 41.98046875 201.081054688 41.8134765625 221.5 c 0
 41.146484375 303.166992188 39.4794921875 391.666992188 36.8125 487 c 0
 36.1455078125 524.333007812 35.6455078125 548.833007812 35.3125 560.5 c 0
 35.2294921875 563.416015625 35.1875 566.73828125 35.1875 570.466796875 c 0xe8
 35.1875 581.654296875 35.5625 596.498046875 36.3125 614.999023438 c 0
 37.3125 639.666015625 37.8125 654.666992188 37.8125 660 c 0
 38.4794921875 678 43.4794921875 691.5 52.8125 700.5 c 0
 62.1455078125 709.5 73.8125 714 87.8125 714 c 0
 96.4794921875 714 107.479492188 713.333007812 120.8125 712 c 0
 134.145507812 710.666992188 151.3125 708 172.3125 704 c 0
 193.3125 700 214.8125 694.5 236.8125 687.5 c 0
 258.8125 680.5 282.645507812 670.666992188 308.3125 658 c 0
 333.979492188 645.333007812 358.3125 630.666015625 381.3125 613.999023438 c 0
 404.3125 597.33203125 426.479492188 576.499023438 447.8125 551.499023438 c 0
 469.145507812 526.499023438 487.645507812 499.166015625 503.3125 469.499023438 c 0
 518.979492188 439.83203125 531.479492188 404.499023438 540.8125 363.499023438 c 0
 550.145507812 322.499023438 554.8125 278.33203125 554.8125 230.999023438 c 0
 554.8125 207.666015625 551.645507812 183.999023438 545.3125 159.999023438 c 0
 538.979492188 135.999023438 529.3125 112.499023438 516.3125 89.4990234375 c 0
 503.3125 66.4990234375 488.145507812 45.9990234375 470.8125 27.9990234375 c 0
 453.479492188 9.9990234375 432.646484375 -4.333984375 408.313476562 -15.0009765625 c 0
 383.98046875 -25.66796875 358.147460938 -31.0009765625 330.814453125 -31.0009765625 c 0
EndSplineSet
Validated: 524289
EndChar

StartChar: E
Encoding: 69 69 37
Width: 590
GlyphClass: 2
Flags: HMW
HStem: -17.498 85.4132 -6.2352 90.7323 312.001 85.999 332.001 80.999 615.159 82.8417
VStem: 48.3136 97.4971
LayerCount: 2
Fore
SplineSet
491.30859375 -6 m 0x4c
 489.124023438 -5.87890625 486.376953125 -5.818359375 483.06640625 -5.818359375 c 0
 468.189453125 -5.818359375 441.939453125 -7.044921875 404.311523438 -9.4990234375 c 0
 358.311523438 -12.4990234375 307.811523438 -15.166015625 252.811523438 -17.4990234375 c 0
 223.1953125 -18.7548828125 197.009765625 -19.3828125 174.255859375 -19.3828125 c 0
 154.75390625 -19.3828125 137.772460938 -18.9208984375 123.311523438 -17.998046875 c 0
 107.978515625 -17.3310546875 92.6455078125 -9.8310546875 77.3125 4.501953125 c 0
 61.9794921875 18.8349609375 52.9794921875 36.3349609375 50.3125 57.001953125 c 0
 48.3125 74.3349609375 47.3125 105.501953125 47.3125 150.501953125 c 0
 47.3125 195.501953125 47.6455078125 243.334960938 48.3125 294.001953125 c 0
 48.53515625 310.899414062 48.646484375 328.500976562 48.646484375 346.806640625 c 0
 48.646484375 383.391601562 48.2021484375 422.790039062 47.3134765625 465.001953125 c 0
 46.646484375 505.001953125 46.146484375 531.501953125 45.8134765625 544.501953125 c 0
 45.73046875 547.750976562 45.6884765625 551.385742188 45.6884765625 555.405273438 c 0
 45.6884765625 567.467773438 46.0634765625 583 46.8134765625 602.000976562 c 0
 47.8134765625 627.333984375 48.3134765625 643.000976562 48.3134765625 649.000976562 c 0
 48.98046875 667.000976562 53.98046875 680.66796875 63.3134765625 690.000976562 c 0
 72.646484375 699.333984375 84.3134765625 704.000976562 98.3134765625 704.000976562 c 0
 99.2265625 704.036132812 100.127929688 704.053710938 101.018554688 704.053710938 c 0
 117.040039062 704.053710938 129.471679688 698.369140625 138.313476562 687.000976562 c 1
 176.313476562 692.333984375 220.813476562 695.666992188 271.813476562 697 c 0
 297.313476562 697.666015625 321.35546875 697.999023438 343.938476562 697.999023438 c 0
 366.521484375 697.999023438 387.646484375 697.666015625 407.3125 697 c 0
 446.645507812 695.666992188 477.978515625 693.666992188 501.311523438 691 c 0
 517.311523438 689 528.311523438 685 534.311523438 679 c 0
 540.311523438 673 543.64453125 664.666992188 544.311523438 654 c 0
 544.311523438 648 543.64453125 642.333007812 542.311523438 637 c 0
 540.978515625 631.666992188 538.811523438 626.833984375 535.811523438 622.500976562 c 0
 532.811523438 618.16796875 528.311523438 614.66796875 522.311523438 612.000976562 c 0
 516.311523438 609.333984375 509.311523438 608.666992188 501.311523438 610 c 0
 455.137695312 613.438476562 408.692382812 615.158203125 361.975585938 615.158203125 c 0
 345.2890625 615.158203125 328.567382812 614.938476562 311.811523438 614.5 c 0
 248.14453125 612.833007812 193.64453125 608.666015625 148.311523438 601.999023438 c 1
 145.64453125 532.666015625 144.311523438 464.666015625 144.311523438 397.999023438 c 1xac
 192.978515625 397.999023438 259.311523438 400.499023438 343.311523438 405.499023438 c 0
 427.311523438 410.499023438 474.64453125 412.999023438 485.311523438 412.999023438 c 0
 500.64453125 412.999023438 511.477539062 409.666015625 517.810546875 402.999023438 c 0
 524.143554688 396.33203125 527.310546875 386.999023438 527.310546875 374.999023438 c 0
 527.310546875 346.318359375 513.92578125 331.977539062 487.157226562 331.977539062 c 0
 486.548828125 331.977539062 485.93359375 331.985351562 485.311523438 332 c 0x1c
 473.311523438 332 421.811523438 328.666992188 330.811523438 322 c 0
 239.811523438 315.333007812 177.978515625 312 145.311523438 312 c 1
 145.311523438 297.333007812 145.478515625 278.166015625 145.811523438 254.499023438 c 0
 146.14453125 230.83203125 146.477539062 210.499023438 146.810546875 193.499023438 c 0
 147.143554688 176.499023438 147.4765625 158.999023438 147.809570312 140.999023438 c 0
 148.142578125 122.999023438 148.809570312 108.166015625 149.809570312 96.4990234375 c 0
 150.809570312 84.83203125 152.309570312 76.6650390625 154.309570312 71.998046875 c 0
 164.420898438 69.275390625 186.387695312 67.9140625 220.208984375 67.9140625 c 0xac
 244.36328125 67.9140625 274.563476562 68.6083984375 310.809570312 69.9970703125 c 0
 397.809570312 73.330078125 453.642578125 77.6630859375 478.309570312 82.99609375 c 0
 487.642578125 84.3291015625 495.642578125 84.8291015625 502.309570312 84.49609375 c 0
 508.9765625 84.1630859375 514.809570312 82.830078125 519.809570312 80.4970703125 c 0
 524.809570312 78.1640625 528.809570312 75.6640625 531.809570312 72.9970703125 c 0
 534.809570312 70.330078125 537.142578125 66.830078125 538.809570312 62.4970703125 c 0
 540.4765625 58.1640625 541.809570312 54.3310546875 542.809570312 50.998046875 c 0
 543.809570312 47.6650390625 544.309570312 44.33203125 544.309570312 40.9990234375 c 0
 544.309570312 28.33203125 539.809570312 16.9990234375 530.809570312 6.9990234375 c 0
 522.868164062 -1.82421875 511.682617188 -6.2353515625 497.252929688 -6.2353515625 c 0
 495.329101562 -6.2353515625 493.34765625 -6.1572265625 491.30859375 -6 c 0x4c
EndSplineSet
Validated: 524289
EndChar

StartChar: F
Encoding: 70 70 38
Width: 590
GlyphClass: 2
Flags: HMW
HStem: -21.0722 21G 322.534 84.6107 621.784 84.7164 694.192 20G
VStem: 50.2351 103.262 52.7521 93.745
LayerCount: 2
Fore
SplineSet
153.497070312 24 m 0xe8
 152.1640625 10 145.669921875 -1.166015625 134.002929688 -9.4990234375 c 0
 123.200195312 -17.21484375 111.112304688 -21.072265625 97.73828125 -21.072265625 c 0
 96.66796875 -21.072265625 95.5888671875 -21.0478515625 94.501953125 -20.998046875 c 0
 81.1689453125 -20.998046875 70.1689453125 -16.498046875 61.501953125 -7.498046875 c 0
 53.990234375 0.302734375 50.234375 10.732421875 50.234375 23.791015625 c 0xe8
 50.234375 25.7998046875 50.3232421875 27.8701171875 50.5009765625 30.0029296875 c 0
 52.0009765625 52.001953125 52.7509765625 89.09375 52.7509765625 141.279296875 c 0
 52.7509765625 158.676757812 52.66796875 177.750976562 52.5009765625 198.502929688 c 0
 51.833984375 281.502929688 50.1669921875 367.002929688 47.5 455.002929688 c 0
 46.1669921875 499.669921875 45.5 529.669921875 45.5 545.002929688 c 0
 45.5 560.3359375 46 581.002929688 47 607.002929688 c 0
 48 633.002929688 48.5 650.669921875 48.5 660.002929688 c 0
 49.1669921875 678.002929688 54.1669921875 691.502929688 63.5 700.502929688 c 0
 72.8330078125 709.502929688 84.5 714.002929688 98.5 714.002929688 c 0
 100.213867188 714.129882812 101.888671875 714.193359375 103.524414062 714.193359375 c 0xd4
 119.063476562 714.193359375 131.055664062 708.462890625 139.5 697.001953125 c 1
 204.833007812 701.668945312 271 704.668945312 338 706.001953125 c 0
 354.749023438 706.334960938 370.73828125 706.501953125 385.966796875 706.501953125 c 0
 431.655273438 706.501953125 470.5 705.001953125 502.500976562 702.001953125 c 0
 517.833984375 700.668945312 528.666992188 696.8359375 535 690.502929688 c 0
 541.333007812 684.169921875 544.5 675.336914062 544.5 664.00390625 c 0
 544.5 651.336914062 540.833007812 640.669921875 533.5 632.002929688 c 0
 526.166992188 623.3359375 514.5 619.002929688 498.5 619.002929688 c 0
 461.166992188 620.857421875 422.704101562 621.78515625 383.112304688 621.78515625 c 0
 308.877929688 621.78515625 230.673828125 618.524414062 148.5 612.002929688 c 1
 148.5 600.669921875 148.166992188 582.502929688 147.5 557.502929688 c 0
 146.833007812 532.502929688 146.166015625 507.002929688 145.499023438 481.002929688 c 0
 145.165039062 468.002929688 144.998046875 454.919921875 144.998046875 441.752929688 c 0
 144.998046875 428.5859375 145.165039062 415.3359375 145.499023438 402.001953125 c 1
 175.783203125 405.430664062 209.005859375 407.145507812 245.166992188 407.145507812 c 0
 251.1953125 407.145507812 257.305664062 407.09765625 263.498046875 407.001953125 c 0
 306.831054688 406.334960938 346.1640625 404.501953125 381.497070312 401.501953125 c 0
 416.830078125 398.501953125 444.497070312 395.334960938 464.497070312 392.001953125 c 0
 480.497070312 389.334960938 491.497070312 385.001953125 497.497070312 379.001953125 c 0
 503.497070312 373.001953125 506.830078125 364.668945312 507.497070312 354.001953125 c 0
 507.497070312 348.001953125 506.997070312 342.501953125 505.997070312 337.501953125 c 0
 504.997070312 332.501953125 503.1640625 327.668945312 500.497070312 323.001953125 c 0
 497.830078125 318.334960938 493.497070312 314.834960938 487.497070312 312.501953125 c 0
 481.497070312 310.168945312 473.830078125 309.3359375 464.497070312 310.002929688 c 0
 443.830078125 313.3359375 415.497070312 316.168945312 379.497070312 318.501953125 c 0
 343.497070312 320.834960938 302.997070312 322.16796875 257.997070312 322.500976562 c 0
 255 322.5234375 252.038085938 322.534179688 249.110351562 322.534179688 c 0
 208.081054688 322.534179688 173.875976562 320.356445312 146.497070312 316 c 1xe4
 150.497070312 139.333007812 152.830078125 42 153.497070312 24 c 0xe8
EndSplineSet
Validated: 524289
EndChar

StartChar: G
Encoding: 71 71 39
Width: 590
GlyphClass: 2
Flags: HMW
HStem: -31.0616 90.0616 278 81.8571 643.002 80.999
VStem: 35.665 100.001
LayerCount: 2
Fore
SplineSet
523.669921875 244 m 0
 522.336914062 230 518.162109375 213.669921875 511.162109375 195.002929688 c 0
 504.162109375 176.3359375 495.495117188 156.502929688 485.162109375 135.502929688 c 0
 474.829101562 114.502929688 461.49609375 94.169921875 445.163085938 74.5029296875 c 0
 428.830078125 54.8359375 411.663085938 37.0029296875 393.663085938 21.0029296875 c 0
 375.663085938 5.0029296875 354.663085938 -7.830078125 330.663085938 -17.4970703125 c 0
 308.211914062 -26.5400390625 286.052734375 -31.0615234375 264.185546875 -31.0615234375 c 0
 262.676757812 -31.0615234375 261.168945312 -31.0400390625 259.663085938 -30.9970703125 c 0
 232.330078125 -30.9970703125 206.497070312 -26.330078125 182.1640625 -16.9970703125 c 0
 157.831054688 -7.6640625 136.998046875 4.6689453125 119.665039062 20.001953125 c 0
 102.33203125 35.3349609375 87.1650390625 53.16796875 74.1650390625 73.5009765625 c 0
 61.1650390625 93.833984375 51.498046875 115.500976562 45.1650390625 138.500976562 c 0
 38.83203125 161.500976562 35.6650390625 184.66796875 35.6650390625 208.000976562 c 0
 35.6650390625 257.333984375 40.498046875 305.333984375 50.1650390625 352.000976562 c 0
 59.83203125 398.66796875 73.33203125 440.66796875 90.6650390625 478.000976562 c 0
 107.998046875 515.333984375 127.998046875 549.500976562 150.665039062 580.500976562 c 0
 173.33203125 611.500976562 197.499023438 637.500976562 223.166015625 658.500976562 c 0
 248.833007812 679.500976562 275 695.66796875 301.666992188 707.000976562 c 0
 328.333984375 718.333984375 354.000976562 724.000976562 378.66796875 724.000976562 c 0
 406.66796875 724.000976562 437.834960938 717.500976562 472.16796875 704.500976562 c 0
 506.500976562 691.500976562 529.000976562 680.333984375 539.66796875 671.000976562 c 0
 549.446289062 661.22265625 554.334960938 649.518554688 554.334960938 635.888671875 c 0
 554.334960938 629.07421875 553.11328125 621.778320312 550.668945312 614.000976562 c 0
 548.001953125 605.333984375 541.668945312 599.000976562 531.668945312 595.000976562 c 0
 526.668945312 593.000976562 521.501953125 592.000976562 516.168945312 592.000976562 c 0
 510.8359375 592.000976562 505.3359375 593.000976562 499.669921875 595.000976562 c 0
 495.669921875 596.333984375 486.502929688 601.333984375 472.169921875 610.000976562 c 0
 457.836914062 618.66796875 443.169921875 626.334960938 428.169921875 633.001953125 c 0
 413.169921875 639.668945312 399.336914062 643.001953125 386.669921875 643.001953125 c 0
 366.002929688 643.001953125 343.8359375 636.168945312 320.168945312 622.501953125 c 0
 296.501953125 608.834960938 273.834960938 589.16796875 252.16796875 563.500976562 c 0
 230.500976562 537.833984375 210.833984375 508.666992188 193.166992188 476 c 0
 175.5 443.333007812 161.5 406.333007812 151.166992188 365 c 0
 140.833984375 323.666992188 135.666992188 282 135.666992188 240 c 0
 135.666992188 210.666992188 141.333984375 182 152.666992188 154 c 0
 164 126 180.166992188 103.166992188 201.166992188 85.5 c 0
 222.166992188 67.8330078125 245.333984375 59 270.666992188 59 c 0
 286.666992188 59 303.166992188 64.1669921875 320.166992188 74.5 c 0
 337.166992188 84.8330078125 352.333984375 98 365.666992188 114 c 0
 379 130 391.5 148 403.166992188 168 c 0
 414.833984375 188 424.833984375 207.333007812 433.166992188 226 c 0
 441.5 244.666992188 448 262 452.666992188 278 c 1
 410.666992188 276 369.5 272.333007812 329.166992188 267 c 0
 288.833984375 261.666992188 261.000976562 254.666992188 245.66796875 246 c 0
 240.299804688 243.158203125 235.043945312 241.737304688 229.900390625 241.737304688 c 0
 224.184570312 241.737304688 218.607421875 243.491210938 213.168945312 247 c 0
 202.8359375 253.666992188 197.002929688 262.666992188 195.669921875 274 c 0
 195.1796875 277.1015625 194.934570312 280.118164062 194.934570312 283.05078125 c 0
 194.934570312 304.064453125 207.512695312 320.713867188 232.668945312 333 c 0
 251.3359375 342.333007812 292.168945312 349.5 355.168945312 354.5 c 0
 400.168945312 358.071289062 438.111328125 359.857421875 468.99609375 359.857421875 c 0
 481.349609375 359.857421875 492.57421875 359.571289062 502.668945312 359 c 0
 519.3359375 358.333007812 530.8359375 355.5 537.168945312 350.5 c 0
 543.501953125 345.5 548.001953125 337.666992188 550.668945312 327 c 0
 551.024414062 323.7109375 551.202148438 320.587890625 551.202148438 317.630859375 c 0
 551.202148438 298.41015625 543.69140625 286.200195312 528.669921875 281 c 0
 528.669921875 279 527.836914062 273.666992188 526.169921875 265 c 0
 524.502929688 256.333007812 523.669921875 249.333007812 523.669921875 244 c 0
EndSplineSet
Validated: 524289
EndChar

StartChar: H
Encoding: 72 72 40
Width: 590
GlyphClass: 2
Flags: HMW
HStem: -21.0741 21G 311.999 86.001 694.074 20G
VStem: 62.6303 98.002 433.723 99.5773
LayerCount: 2
Fore
SplineSet
526.633789062 24 m 0
 525.30078125 10 518.799804688 -1.169921875 507.1328125 -9.5029296875 c 0
 496.329101562 -17.21875 484.528320312 -21.076171875 471.725585938 -21.076171875 c 0
 470.700195312 -21.076171875 469.668945312 -21.0517578125 468.6328125 -21.001953125 c 0
 455.299804688 -21.001953125 444.299804688 -16.501953125 435.6328125 -7.501953125 c 0
 428.12109375 0.2978515625 424.364257812 10.7275390625 424.364257812 23.7861328125 c 0
 424.364257812 25.794921875 424.454101562 27.865234375 424.631835938 29.998046875 c 0
 430.692382812 114.237304688 433.72265625 207.841796875 433.72265625 310.811523438 c 0
 433.72265625 321.11328125 433.692382812 331.508789062 433.631835938 341.998046875 c 1
 422.297851562 341.331054688 381.465820312 336.1640625 311.1328125 326.497070312 c 0
 240.799804688 316.830078125 190.6328125 311.997070312 160.6328125 311.997070312 c 1
 160.6328125 309.997070312 160.465820312 306.497070312 160.1328125 301.497070312 c 0
 159.799804688 296.497070312 159.6328125 292.997070312 159.6328125 290.997070312 c 0
 157.6328125 257.997070312 156.6328125 219.247070312 156.6328125 174.747070312 c 0
 156.6328125 130.247070312 157.6328125 79.9970703125 159.6328125 23.9970703125 c 0
 158.299804688 9.9970703125 151.6328125 -1.169921875 139.6328125 -9.5029296875 c 0
 128.522460938 -17.21875 116.5546875 -21.076171875 103.729492188 -21.076171875 c 0
 102.703125 -21.076171875 101.670898438 -21.0517578125 100.633789062 -21.001953125 c 0
 87.30078125 -21.001953125 76.30078125 -16.501953125 67.6337890625 -7.501953125 c 0
 60.1220703125 0.298828125 56.3662109375 10.728515625 56.3662109375 23.787109375 c 0
 56.3662109375 25.7958984375 56.455078125 27.8662109375 56.6328125 29.9990234375 c 0
 57.2998046875 39.33203125 57.7998046875 54.33203125 58.1328125 74.9990234375 c 0
 58.4658203125 95.666015625 58.6328125 123.333007812 58.6328125 158 c 0
 58.6328125 192.666992188 58.9658203125 224 59.6328125 252 c 0
 59.6328125 274.666992188 60.2998046875 307.166992188 61.6328125 349.5 c 0
 62.9658203125 391.833007812 63.798828125 423.166015625 64.1318359375 443.499023438 c 0
 64.2431640625 450.270507812 64.298828125 458.168945312 64.298828125 467.1953125 c 0
 64.298828125 485.2734375 64.076171875 507.875 63.630859375 535 c 0
 62.9638671875 565 62.630859375 584.166992188 62.630859375 592.5 c 0
 62.630859375 600.833007812 62.9638671875 612.333007812 63.630859375 627 c 0
 64.2978515625 641.666992188 64.96484375 652.666992188 65.6318359375 660 c 0
 66.298828125 678 71.1318359375 691.5 80.1318359375 700.5 c 0
 89.1318359375 709.5 100.631835938 714 114.631835938 714 c 0
 115.71875 714.049804688 116.791992188 714.07421875 117.8515625 714.07421875 c 0
 131.088867188 714.07421875 142.182617188 710.216796875 151.1328125 702.500976562 c 0
 160.799804688 694.16796875 165.6328125 681.000976562 165.6328125 663.000976562 c 0
 165.6328125 656.333984375 164.799804688 642.000976562 163.1328125 620.000976562 c 0
 161.465820312 598.000976562 160.6328125 577.66796875 160.6328125 559.000976562 c 0
 160.6328125 541.66796875 160.965820312 515.16796875 161.6328125 479.500976562 c 0
 162.299804688 443.833984375 162.6328125 416.666992188 162.6328125 398 c 1
 197.299804688 398 232.965820312 400 269.633789062 404 c 0
 306.30078125 408 339.633789062 412 369.633789062 416 c 0
 399.633789062 420 420.633789062 422.666992188 432.633789062 424 c 1
 432.633789062 428.666992188 432.30078125 435.5 431.633789062 444.5 c 0
 430.965820312 453.5 430.633789062 460.333007812 430.633789062 465 c 0
 429.965820312 506.333007812 429.633789062 533.666015625 429.633789062 546.999023438 c 0
 429.633789062 560.33203125 430.133789062 580.999023438 431.133789062 608.999023438 c 0
 432.133789062 636.999023438 432.965820312 653.999023438 433.633789062 659.999023438 c 0
 433.633789062 677.999023438 438.465820312 691.499023438 448.133789062 700.499023438 c 0
 457.80078125 709.499023438 469.30078125 713.999023438 482.633789062 713.999023438 c 0
 483.719726562 714.048828125 484.793945312 714.073242188 485.852539062 714.073242188 c 0
 499.090820312 714.073242188 510.184570312 710.215820312 519.133789062 702.5 c 0
 528.801757812 694.166992188 533.633789062 681 533.633789062 663 c 0
 533.633789062 650.333007812 533.301757812 624.333007812 532.633789062 585 c 0
 531.967773438 545.666992188 531.467773438 511.166992188 531.133789062 481.5 c 0
 531.067382812 475.5703125 531.03515625 469.114257812 531.03515625 462.131835938 c 0
 531.03515625 434.18359375 531.567382812 397.806640625 532.633789062 353 c 0
 533.079101562 337.448242188 533.30078125 320.267578125 533.30078125 301.458007812 c 0
 533.30078125 263.825195312 532.411132812 219.672851562 530.633789062 169 c 0
 527.965820312 93 526.633789062 44.6669921875 526.633789062 24 c 0
EndSplineSet
Validated: 524289
EndChar

StartChar: I
Encoding: 73 73 41
Width: 590
GlyphClass: 2
Flags: HMW
HStem: -13.998 80.001 -6.39919 77.8992 612.001 89.001 625.002 85.3327
VStem: 240.043 101.995 248.109 100.596
LayerCount: 2
Fore
SplineSet
503.036132812 -11 m 0x68
 485.703125 -8.3330078125 457.213867188 -6.8310546875 417.546875 -6.498046875 c 0
 409.618164062 -6.431640625 401.743164062 -6.3984375 393.920898438 -6.3984375 c 0x68
 362.609375 -6.3984375 332.151367188 -6.931640625 302.546875 -7.998046875 c 0
 265.546875 -9.3310546875 225.879882812 -10.6640625 183.546875 -11.9970703125 c 0
 141.213867188 -13.330078125 111.713867188 -13.9970703125 95.046875 -13.9970703125 c 0
 77.7138671875 -13.9970703125 65.046875 -10.6640625 57.046875 -3.9970703125 c 0
 45.25 5.833984375 44.9638671875 17.4921875 44.9638671875 24.966796875 c 0
 44.9638671875 35.6865234375 48.32421875 44.865234375 55.0458984375 52.50390625 c 0
 62.37890625 60.8369140625 74.7119140625 65.3369140625 92.044921875 66.00390625 c 0
 120.043945312 67.3369140625 169.377929688 69.00390625 240.043945312 71.00390625 c 1x88
 245.421875 154.600585938 248.110351562 241.782226562 248.110351562 332.547851562 c 0
 248.110351562 365.559570312 247.754882812 399.044921875 247.043945312 433.004882812 c 0
 246.375976562 457.004882812 245.875976562 479.671875 245.543945312 501.004882812 c 0
 245.2109375 522.337890625 245.043945312 537.670898438 245.043945312 547.00390625 c 0
 245.043945312 556.336914062 245.7109375 570.836914062 247.043945312 590.50390625 c 0
 248.375976562 610.170898438 249.043945312 621.670898438 249.043945312 625.00390625 c 0
 218.709960938 625.669921875 191.375976562 626.002929688 167.041992188 626.002929688 c 0
 142.708007812 626.002929688 121.374023438 625.669921875 103.040039062 625.002929688 c 0
 86.3740234375 625.002929688 73.541015625 628.669921875 64.541015625 636.002929688 c 0
 51.2666015625 646.818359375 50.966796875 659.26953125 50.966796875 666.641601562 c 0
 50.966796875 677.5234375 54.82421875 686.9765625 62.5400390625 695.000976562 c 0
 70.873046875 703.66796875 84.0400390625 708.000976562 102.040039062 708.000976562 c 0
 157.598632812 709.556640625 209.305664062 710.334960938 257.161132812 710.334960938 c 0x94
 352.860351562 710.334960938 433.153320312 707.223632812 498.040039062 701.001953125 c 0
 527.372070312 698.334960938 542.706054688 684.66796875 544.0390625 660.000976562 c 0
 544.0390625 654.000976562 543.206054688 648.16796875 541.5390625 642.500976562 c 0
 539.872070312 636.833984375 537.0390625 631.333984375 533.0390625 626.000976562 c 0
 529.0390625 620.66796875 523.706054688 616.500976562 517.0390625 613.500976562 c 0
 510.372070312 610.500976562 503.372070312 610.000976562 496.0390625 612.000976562 c 0
 476.0390625 615.333984375 427.0390625 619.000976562 349.0390625 623.000976562 c 1
 349.0390625 617.66796875 348.706054688 602.66796875 348.0390625 578.000976562 c 0
 347.372070312 553.333984375 347.0390625 533.666992188 347.0390625 519 c 2
 347.0390625 456 l 2
 347.0390625 428.666992188 347.372070312 401.666992188 348.0390625 375 c 0
 348.483398438 359.2265625 348.704101562 342.157226562 348.704101562 323.791992188 c 0x24
 348.704101562 287.047851562 347.81640625 245.1171875 346.038085938 198 c 0
 343.37109375 127.333007812 342.038085938 85.3330078125 342.038085938 72 c 1
 370.704101562 72 404.038085938 71.8330078125 442.038085938 71.5 c 0
 480.038085938 71.1669921875 500.37109375 71 503.038085938 71 c 0
 518.37109375 71 529.204101562 67.5 535.536132812 60.5 c 0
 541.870117188 53.5 545.036132812 44.3330078125 545.036132812 33 c 0
 545.036132812 27 544.704101562 21.5 544.036132812 16.5 c 0
 543.370117188 11.5 541.370117188 6.5 538.036132812 1.5 c 0
 534.704101562 -3.5 530.204101562 -7.1669921875 524.536132812 -9.5 c 0
 518.870117188 -11.8330078125 511.703125 -12.3330078125 503.036132812 -11 c 0x68
EndSplineSet
Validated: 524289
EndChar

StartChar: J
Encoding: 74 74 42
Width: 590
GlyphClass: 2
Flags: HMW
HStem: -35.001 101.001 625 82.999
VStem: 42.1688 89 305.168 93.9971
LayerCount: 2
Fore
SplineSet
396.165039062 215 m 0
 390.83203125 155 382.833007812 106.33203125 372.166015625 68.9990234375 c 0
 361.499023438 31.666015625 348.499023438 4.9990234375 333.166015625 -11.0009765625 c 0
 317.833007812 -27.0009765625 299.833007812 -35.0009765625 279.166015625 -35.0009765625 c 0
 256.499023438 -35.0009765625 234.166015625 -31.0009765625 212.166015625 -23.0009765625 c 0
 190.166015625 -15.0009765625 170.999023438 -4.333984375 154.666015625 8.9990234375 c 0
 138.333007812 22.33203125 123.166015625 36.83203125 109.166015625 52.4990234375 c 0
 95.166015625 68.166015625 83.4990234375 83.8330078125 74.166015625 99.5 c 0
 64.8330078125 115.166992188 57.5 129.166992188 52.1669921875 141.5 c 0
 46.833984375 153.833007812 43.833984375 163.666015625 43.1669921875 170.999023438 c 0
 41.833984375 176.999023438 41.5009765625 184.166015625 42.16796875 192.499023438 c 0
 42.8349609375 200.83203125 44.3349609375 208.665039062 46.66796875 215.998046875 c 0
 49.0009765625 223.331054688 53.0009765625 229.831054688 58.66796875 235.498046875 c 0
 64.3349609375 241.165039062 72.16796875 244.665039062 82.16796875 245.998046875 c 0
 85.7236328125 246.64453125 89.11328125 246.967773438 92.3359375 246.967773438 c 0
 102.40625 246.967773438 110.849609375 243.811523438 117.66796875 237.499023438 c 0
 126.66796875 229.166015625 131.16796875 218.666015625 131.16796875 205.999023438 c 0
 131.16796875 198.666015625 132.500976562 189.833007812 135.16796875 179.5 c 0
 137.834960938 169.166992188 142.334960938 157.166992188 148.66796875 143.5 c 0
 155.000976562 129.833007812 162.833984375 117.333007812 172.166992188 106 c 0
 181.5 94.6669921875 194.666992188 85.1669921875 211.666992188 77.5 c 0
 228.666992188 69.8330078125 246.833984375 66 266.166992188 66 c 0
 290.166992188 66 303.833984375 124 307.166992188 240 c 0
 307.166992188 254.666992188 306.5 301.666992188 305.166992188 381 c 0
 304.500976562 420.666015625 304.16796875 460.749023438 304.16796875 501.249023438 c 0
 304.16796875 541.749023438 304.500976562 582.666015625 305.166992188 624 c 1
 260.368164062 625.200195312 218.688476562 625.799804688 180.12890625 625.799804688 c 0
 154.421875 625.799804688 130.1015625 625.533203125 107.16796875 625 c 0
 90.5009765625 625 77.833984375 628.666992188 69.1669921875 636 c 0
 56.4384765625 646.76953125 56.0927734375 659.155273438 56.0927734375 666.639648438 c 0
 56.0927734375 677.521484375 59.9501953125 686.974609375 67.666015625 694.999023438 c 0
 75.9990234375 703.666015625 88.83203125 707.999023438 106.165039062 707.999023438 c 0
 161.724609375 709.5546875 213.39453125 710.333007812 261.174804688 710.333007812 c 0
 356.7265625 710.333007812 436.723632812 707.221679688 501.166015625 701 c 0
 530.499023438 698.333007812 546.166015625 684.666015625 548.166015625 659.999023438 c 0
 548.166015625 653.999023438 547.166015625 648.166015625 545.166015625 642.499023438 c 0
 543.166015625 636.83203125 540.499023438 631.33203125 537.166015625 625.999023438 c 0
 533.833007812 620.666015625 528.833007812 616.499023438 522.166015625 613.499023438 c 0
 515.499023438 610.499023438 507.83203125 609.999023438 499.165039062 611.999023438 c 0
 475.83203125 615.33203125 440.165039062 618.33203125 392.165039062 620.999023438 c 1
 392.165039062 601.666015625 392.83203125 572.333007812 394.165039062 533 c 0
 395.498046875 493.666992188 396.665039062 457.833984375 397.665039062 425.500976562 c 0
 398.665039062 393.16796875 399.165039062 357.16796875 399.165039062 317.500976562 c 0
 399.165039062 277.833984375 398.165039062 243.666992188 396.165039062 215 c 0
EndSplineSet
Validated: 524289
EndChar

StartChar: K
Encoding: 75 75 43
Width: 590
GlyphClass: 2
Flags: HMW
HStem: -21.0751 21G 694.072 20G
VStem: 51.7335 95.2646
LayerCount: 2
Fore
SplineSet
154.999023438 24 m 0
 153.666015625 10 147.170898438 -1.16796875 135.502929688 -9.5009765625 c 0
 124.701171875 -17.216796875 112.612304688 -21.07421875 99.2392578125 -21.07421875 c 0
 98.1689453125 -21.07421875 97.08984375 -21.0498046875 96.0029296875 -21 c 0
 82.669921875 -21 71.669921875 -16.5 63.0029296875 -7.5 c 0
 55.4912109375 0.30078125 51.7353515625 10.73046875 51.7353515625 23.7890625 c 0
 51.7353515625 25.7978515625 51.82421875 27.8681640625 52.001953125 30.0009765625 c 0
 53.501953125 52 54.251953125 89.091796875 54.251953125 141.276367188 c 0
 54.251953125 158.673828125 54.1689453125 177.748046875 54.001953125 198.5 c 0
 53.3349609375 281.5 51.66796875 367 49.0009765625 455 c 0
 47.66796875 497.666992188 47.0009765625 526.5 47.0009765625 541.5 c 0
 47.0009765625 556.5 47.5009765625 578.166992188 48.5009765625 606.5 c 0
 49.5009765625 634.833007812 50.0009765625 652.666015625 50.0009765625 659.999023438 c 0
 50.66796875 677.999023438 55.66796875 691.499023438 65.0009765625 700.499023438 c 0
 74.333984375 709.499023438 86.0009765625 713.999023438 100.000976562 713.999023438 c 0
 101.087890625 714.048828125 102.161132812 714.073242188 103.220703125 714.073242188 c 0
 116.458007812 714.073242188 127.551757812 710.215820312 136.501953125 702.5 c 0
 146.168945312 694.166992188 151.001953125 681 151.001953125 663 c 0
 151.001953125 647 150.334960938 612 149.001953125 558 c 0
 147.668945312 504 147.001953125 459.333007812 147.001953125 424 c 1
 171.001953125 447.333007812 207.001953125 482.666015625 255.001953125 529.999023438 c 0
 303.001953125 577.33203125 341.334960938 614.83203125 370.001953125 642.499023438 c 0
 398.668945312 670.166015625 417.001953125 687.333007812 425.001953125 694 c 0
 434.334960938 702.666992188 443.334960938 708.5 452.001953125 711.5 c 0
 460.668945312 714.5 468.168945312 715.166992188 474.501953125 713.5 c 0
 480.834960938 711.833007812 486.666992188 708.333007812 492.000976562 703 c 0
 499.510742188 694.911132812 503.267578125 685.946289062 503.267578125 676.10546875 c 0
 503.267578125 663.235351562 496.844726562 648.8671875 483.999023438 633 c 0
 473.999023438 621 438.666992188 584.5 377.999023438 523.5 c 0
 317.333007812 462.5 263.333007812 409.333007812 215.999023438 364 c 1
 238.666992188 340 277.166992188 302.5 331.499023438 251.5 c 0
 385.833007812 200.5 432.999023438 155.666992188 472.999023438 117 c 0
 512.999023438 78.3330078125 535.333007812 54 539.999023438 44 c 0
 541.999023438 37.666015625 542.999023438 31.666015625 542.999023438 25.9990234375 c 0
 542.999023438 20.33203125 541.999023438 14.9990234375 539.999023438 9.9990234375 c 0
 535.999023438 -0.0009765625 529.999023438 -7.66796875 521.999023438 -13.0009765625 c 0
 513.724609375 -18.5986328125 505.494140625 -21.3974609375 497.307617188 -21.3974609375 c 0
 483.069335938 -21.3974609375 468.967773438 -12.931640625 454.999023438 4 c 0
 448.331054688 12.6669921875 424.499023438 35.6669921875 383.499023438 73 c 0
 342.499023438 110.333007812 298.331054688 151.5 250.999023438 196.5 c 0
 203.666015625 241.5 168.999023438 277.333007812 146.999023438 304 c 1
 146.999023438 284 l 2
 146.999023438 272.666992188 149.666015625 186 154.999023438 24 c 0
EndSplineSet
Validated: 524289
EndChar

StartChar: L
Encoding: 76 76 44
Width: 590
GlyphClass: 2
Flags: HMW
HStem: -15.0049 86.9159
VStem: 47.1323 103.002 76.9323 91.7021
LayerCount: 2
Fore
SplineSet
500.134765625 10 m 0xc0
 454.801757812 1.3330078125 386.133789062 -5.005859375 294.133789062 -9.005859375 c 0
 202.133789062 -13.005859375 134.466796875 -15.005859375 91.1328125 -15.005859375 c 0
 77.80078125 -15.005859375 66.80078125 -10.505859375 58.1328125 -1.505859375 c 0
 50.62109375 6.294921875 46.865234375 16.724609375 46.865234375 29.783203125 c 0
 46.865234375 31.7919921875 46.955078125 33.8623046875 47.1328125 35.9951171875 c 0xc0
 47.1328125 41.328125 50.96484375 79.4951171875 58.6328125 150.495117188 c 0
 66.298828125 221.495117188 71.798828125 289.995117188 75.1328125 355.995117188 c 0
 76.33203125 373.995117188 76.931640625 400.994140625 76.931640625 436.993164062 c 0
 76.931640625 460.993164062 76.666015625 488.994140625 76.1328125 520.995117188 c 0
 74.798828125 600.995117188 74.1328125 644.328125 74.1328125 650.995117188 c 0
 74.798828125 668.995117188 79.966796875 682.662109375 89.6328125 691.995117188 c 0
 99.30078125 701.328125 110.80078125 705.995117188 124.133789062 705.995117188 c 0
 125.220703125 706.044921875 126.293945312 706.069335938 127.353515625 706.069335938 c 0
 140.590820312 706.069335938 151.684570312 702.211914062 160.634765625 694.49609375 c 0
 170.301757812 686.163085938 175.134765625 672.99609375 175.134765625 654.99609375 c 0
 175.134765625 635.663085938 174.466796875 609.330078125 173.134765625 575.997070312 c 0
 171.801757812 542.6640625 170.301757812 500.6640625 168.634765625 449.997070312 c 0xa0
 166.966796875 399.330078125 165.466796875 355.330078125 164.134765625 317.997070312 c 0
 163.466796875 289.997070312 160.966796875 249.330078125 156.634765625 195.997070312 c 0
 152.301757812 142.6640625 150.134765625 101.331054688 150.134765625 71.998046875 c 1
 155.005859375 71.9404296875 159.946289062 71.9111328125 164.955078125 71.9111328125 c 0
 217.541015625 71.9111328125 277.767578125 75.107421875 345.634765625 81.498046875 c 0
 419.966796875 88.498046875 469.466796875 95.3310546875 494.134765625 101.998046875 c 0
 502.134765625 103.998046875 509.301757812 103.665039062 515.634765625 100.998046875 c 0
 521.966796875 98.3310546875 526.966796875 94.3310546875 530.634765625 88.998046875 c 0
 534.301757812 83.6650390625 537.301757812 77.83203125 539.634765625 71.4990234375 c 0
 541.966796875 65.166015625 543.134765625 59.3330078125 543.134765625 54 c 0
 543.134765625 42 540.134765625 32.3330078125 534.134765625 25 c 0
 528.134765625 17.6669921875 516.801757812 12.6669921875 500.134765625 10 c 0xc0
EndSplineSet
Validated: 524289
EndChar

StartChar: M
Encoding: 77 77 45
Width: 590
GlyphClass: 2
Flags: HMW
HStem: -9.99414 21G<64.9995 71.6655>
VStem: 28.9975 83.001 241 104.999
LayerCount: 2
Fore
SplineSet
111.998046875 59 m 0
 112.04296875 57.578125 112.06640625 56.17578125 112.06640625 54.7939453125 c 0
 112.06640625 35.443359375 107.708984375 20.0166015625 98.998046875 8.505859375 c 0
 89.666015625 -3.8271484375 78.33203125 -9.994140625 65 -9.994140625 c 0
 41 -9.3271484375 29 15.33984375 29 64.0068359375 c 0
 29 72.0068359375 30 85.673828125 32 105.006835938 c 0
 34 124.33984375 36.5 149.672851562 39.5 181.005859375 c 0
 42.5 212.338867188 45 239.671875 47 263.004882812 c 0
 47.666015625 271.004882812 48.666015625 283.337890625 50 300.004882812 c 0
 54 349.337890625 57.166015625 387.837890625 59.5 415.504882812 c 0
 61.83203125 443.171875 65.33203125 477.671875 70 519.004882812 c 0
 74.666015625 560.337890625 78.833984375 592.837890625 82.5 616.504882812 c 0
 86.16796875 640.171875 90.66796875 656.671875 96 666.004882812 c 0
 102.666992188 680.004882812 112.833984375 690.171875 126.501953125 696.504882812 c 0
 137.791015625 701.736328125 148.740234375 704.352539062 159.349609375 704.352539062 c 0
 161.581054688 704.352539062 163.798828125 704.236328125 166.001953125 704.004882812 c 0
 196.001953125 704.004882812 214.66796875 691.671875 222.001953125 667.004882812 c 0
 230.001953125 637.671875 238.66796875 589.171875 248.001953125 521.504882812 c 0
 257.333984375 453.837890625 266.833984375 376.670898438 276.501953125 290.00390625 c 0
 286.16796875 203.336914062 293.001953125 146.00390625 297.001953125 118.00390625 c 1
 303.66796875 212.00390625 311.334960938 296.670898438 320.001953125 372.00390625 c 0
 326.001953125 427.336914062 334.169921875 483.00390625 344.501953125 539.00390625 c 0
 354.834960938 595.00390625 364.001953125 637.670898438 372.001953125 667.00390625 c 0
 374.669921875 677.00390625 380.169921875 685.170898438 388.501953125 691.50390625 c 0
 396.834960938 697.836914062 405.66796875 701.669921875 415.001953125 703.002929688 c 0
 421.221679688 703.891601562 426.998046875 704.3359375 432.330078125 704.3359375 c 0
 434.998046875 704.3359375 437.5546875 704.224609375 440 704.001953125 c 2
 444 704.001953125 l 1
 457.5 704.001953125 l 2
 461.166992188 704.001953125 466.166992188 703.168945312 472.5 701.501953125 c 0
 478.833984375 699.834960938 484 697.66796875 488 695.000976562 c 0
 492 692.333984375 495.666992188 688.166992188 499 682.5 c 0
 502.333984375 676.833007812 504.666015625 670 505.999023438 662 c 0
 508.666015625 642 516.333984375 544.333007812 529 369 c 0
 541.666992188 193.666992188 551 94.6669921875 557 72 c 0
 559.666992188 60.5712890625 561 50.33984375 561 41.3056640625 c 0
 561 18.720703125 552.666992188 3.6181640625 536 -4.0009765625 c 0
 530.208984375 -6.4384765625 524.41796875 -7.6572265625 518.626953125 -7.6572265625 c 2
 497.998046875 -2.5 l 2
 485.331054688 3.8330078125 475.998046875 17.666015625 469.998046875 38.9990234375 c 0
 455.998046875 83.666015625 443.666015625 278.333007812 432.998046875 623 c 1
 413.666015625 526.333007812 400.998046875 438.333007812 394.998046875 359 c 0
 388.998046875 283 380.831054688 210.833007812 370.498046875 142.5 c 0
 360.166015625 74.1669921875 351.998046875 32.333984375 345.998046875 17.0009765625 c 0
 338.666015625 1.0009765625 319.998046875 -6.9990234375 289.998046875 -6.9990234375 c 0
 288.331054688 -7.08203125 286.703125 -7.1240234375 285.115234375 -7.1240234375 c 0
 273.995117188 -7.1240234375 264.791015625 -5.08203125 257.499023438 -0.9990234375 c 0
 249.166015625 3.66796875 243.666015625 10.3349609375 240.999023438 19.001953125 c 0
 232.999023438 51.001953125 219.666015625 124.501953125 200.999023438 239.501953125 c 0
 182.33203125 354.501953125 165.33203125 464.668945312 149.999023438 570.001953125 c 1
 147.999023438 548.668945312 146.166015625 524.668945312 144.499023438 498.001953125 c 0
 142.83203125 471.334960938 141.33203125 448.16796875 139.999023438 428.500976562 c 0
 138.666015625 408.833984375 136.499023438 379.666992188 133.499023438 341 c 0
 130.499023438 302.333007812 128.33203125 273 126.999023438 253 c 0
 125.666015625 225 123.666015625 196.166992188 120.999023438 166.5 c 0
 118.33203125 136.833007812 116.166015625 113.5 114.498046875 96.5 c 0
 112.831054688 79.5 111.998046875 67 111.998046875 59 c 0
EndSplineSet
Validated: 524289
EndChar

StartChar: N
Encoding: 78 78 46
Width: 590
GlyphClass: 2
Flags: HMW
HStem: -14.1178 21G
VStem: 48.9102 82.7479 448.33 92.5787 457.911 83.18
LayerCount: 2
Fore
SplineSet
466.909179688 -14 m 0xd0
 465.416992188 -14.078125 463.955078125 -14.1181640625 462.5234375 -14.1181640625 c 0
 451.797851562 -14.1181640625 442.7578125 -11.9140625 435.40625 -7.5029296875 c 0
 427.073242188 -2.5029296875 421.240234375 4.330078125 417.907226562 12.9970703125 c 0
 411.907226562 26.330078125 395.907226562 55.6630859375 369.907226562 100.99609375 c 0
 343.907226562 146.329101562 317.07421875 193.49609375 289.407226562 242.49609375 c 0
 261.740234375 291.49609375 232.740234375 346.329101562 202.407226562 406.99609375 c 0
 172.07421875 467.663085938 149.241210938 519.330078125 133.908203125 561.997070312 c 1
 137.108398438 503.86328125 138.708007812 448.9296875 138.708007812 397.196289062 c 0
 138.708007812 384.262695312 138.608398438 371.529296875 138.408203125 358.99609375 c 0
 137.408203125 296.329101562 135.908203125 232.49609375 133.908203125 167.49609375 c 0
 132.408203125 118.748046875 131.658203125 84.3427734375 131.658203125 64.2802734375 c 0
 131.658203125 55.919921875 131.974609375 44.9990234375 131.974609375 44.8046875 c 0
 131.974609375 25.599609375 127.619140625 11.330078125 118.908203125 1.9970703125 c 0
 110.159179688 -7.3779296875 99.65234375 -12.0654296875 87.3876953125 -12.0654296875 c 0
 86.5693359375 -12.0654296875 85.7431640625 -12.044921875 84.9091796875 -12.0029296875 c 0
 70.9091796875 -12.0029296875 61.4091796875 -6.3359375 56.4091796875 4.9970703125 c 0
 51.4091796875 16.330078125 48.9091796875 32.9970703125 48.9091796875 54.9970703125 c 0
 48.9091796875 68.330078125 49.9091796875 119.997070312 51.9091796875 209.997070312 c 0
 53.9091796875 299.997070312 55.2421875 378.6640625 55.9091796875 445.997070312 c 0
 56.076171875 462.83203125 56.1591796875 479.5 56.1591796875 496.001953125 c 0
 56.1591796875 545.5 55.4091796875 593.499023438 53.9091796875 639.998046875 c 0
 53.8134765625 641.903320312 53.765625 643.767578125 53.765625 645.590820312 c 0
 53.765625 656.528320312 55.48046875 665.997070312 58.9091796875 673.99609375 c 0
 62.9091796875 683.329101562 68.576171875 690.162109375 75.9091796875 694.495117188 c 0
 83.2421875 698.828125 90.9091796875 701.828125 98.9091796875 703.495117188 c 0
 106.909179688 705.162109375 115.576171875 705.329101562 124.909179688 703.99609375 c 0
 153.576171875 703.99609375 171.576171875 691.663085938 178.909179688 666.99609375 c 0
 192.909179688 622.99609375 231.576171875 541.99609375 294.909179688 423.99609375 c 0
 358.2421875 305.99609375 411.909179688 210.663085938 455.909179688 137.99609375 c 1
 457.6875 179.779296875 458.576171875 234.232421875 458.576171875 301.35546875 c 0
 458.576171875 334.904296875 458.354492188 371.618164062 457.91015625 411.497070312 c 0xd0
 456.577148438 531.1640625 453.577148438 609.997070312 448.91015625 647.997070312 c 0
 448.5234375 651.09375 448.330078125 654.096679688 448.330078125 657.005859375 c 0
 448.330078125 669.12890625 451.690429688 679.625976562 458.411132812 688.497070312 c 0
 466.744140625 699.497070312 477.577148438 704.997070312 490.91015625 704.997070312 c 0
 498.243164062 704.997070312 504.576171875 704.1640625 509.909179688 702.497070312 c 0
 515.2421875 700.830078125 519.409179688 698.830078125 522.409179688 696.497070312 c 0
 525.409179688 694.1640625 527.909179688 690.331054688 529.909179688 684.998046875 c 0
 531.909179688 679.665039062 533.409179688 674.83203125 534.409179688 670.499023438 c 0
 535.409179688 666.166015625 536.576171875 659.333007812 537.909179688 650 c 0
 539.2421875 639.333007812 540.2421875 585.833007812 540.909179688 489.5 c 0xe0
 541.030273438 471.981445312 541.090820312 454.34765625 541.090820312 436.59765625 c 0
 541.090820312 356.741210938 539.86328125 274.541992188 537.409179688 190 c 0
 534.409179688 86.6669921875 529.2421875 27 521.909179688 11 c 0
 515.2421875 -5.6669921875 496.909179688 -14 466.909179688 -14 c 0xd0
EndSplineSet
Validated: 524289
EndChar

StartChar: O
Encoding: 79 79 47
Width: 590
GlyphClass: 2
Flags: HMW
HStem: -24 83.998 636.997 81.001
VStem: 50.2358 96.3855 443.736 96.0643
LayerCount: 2
Fore
SplineSet
262.237304688 -24 m 0
 220.904296875 -23.3330078125 183.904296875 -10.8369140625 151.237304688 13.49609375 c 0
 118.569335938 37.8291015625 93.4033203125 70.49609375 75.736328125 111.49609375 c 0
 58.7119140625 151.004882812 50.2001953125 194.072265625 50.2001953125 240.700195312 c 0
 50.2001953125 242.4609375 50.2119140625 244.2265625 50.236328125 245.997070312 c 2
 50.236328125 262.997070312 l 2
 50.236328125 292.997070312 50.4033203125 316.997070312 50.736328125 334.997070312 c 0
 51.0693359375 352.997070312 52.40234375 376.997070312 54.7353515625 406.997070312 c 0
 57.068359375 436.997070312 61.068359375 465.497070312 66.7353515625 492.497070312 c 0
 72.40234375 519.497070312 79.5693359375 544.997070312 88.236328125 568.997070312 c 0
 104.903320312 612.330078125 134.569335938 647.997070312 177.237304688 675.997070312 c 0
 219.904296875 703.997070312 267.237304688 717.997070312 319.237304688 717.997070312 c 0
 345.904296875 717.997070312 371.571289062 712.830078125 396.237304688 702.497070312 c 0
 420.905273438 692.1640625 442.905273438 677.331054688 462.237304688 657.998046875 c 0
 481.571289062 638.665039062 497.737304688 613.998046875 510.737304688 583.998046875 c 0
 523.737304688 553.998046875 531.905273438 520.331054688 535.237304688 482.998046875 c 0
 537.905273438 449.665039062 539.405273438 413.998046875 539.737304688 375.998046875 c 0
 539.780273438 371.251953125 539.799804688 366.498046875 539.799804688 361.736328125 c 0
 539.799804688 328.374023438 538.780273438 294.627929688 536.737304688 260.499023438 c 0
 534.405273438 221.499023438 529.905273438 190.666015625 523.237304688 167.999023438 c 0
 514.571289062 136.666015625 503.904296875 109.666015625 491.237304688 86.9990234375 c 0
 478.569335938 64.33203125 464.569335938 45.83203125 449.237304688 31.4990234375 c 0
 433.904296875 17.166015625 416.237304688 5.8330078125 396.237304688 -2.5 c 0
 376.237304688 -10.8330078125 355.737304688 -16.5 334.737304688 -19.5 c 0
 313.737304688 -22.5 289.569335938 -24 262.237304688 -24 c 0
262.237304688 59.99609375 m 0
 280.237304688 59.99609375 297.233398438 62.1640625 313.233398438 66.4970703125 c 0
 329.233398438 70.830078125 344.901367188 77.830078125 360.233398438 87.4970703125 c 0
 375.567382812 97.1640625 389.233398438 109.997070312 401.233398438 125.997070312 c 0
 413.233398438 141.997070312 422.567382812 160.6640625 429.233398438 181.997070312 c 0
 431.901367188 190.6640625 434.568359375 210.6640625 437.235351562 241.997070312 c 0
 439.901367188 273.330078125 442.069335938 310.663085938 443.736328125 353.99609375 c 0
 444.225585938 366.741210938 444.471679688 379.428710938 444.471679688 392.05859375 c 0
 444.471679688 422.370117188 443.059570312 452.349609375 440.236328125 481.99609375 c 0
 436.236328125 525.99609375 422.069335938 562.829101562 397.736328125 592.49609375 c 0
 373.403320312 622.163085938 343.569335938 636.99609375 308.237304688 636.99609375 c 0
 272.237304688 636.99609375 242.069335938 623.829101562 217.737304688 597.49609375 c 0
 193.404296875 571.163085938 175.904296875 534.330078125 165.237304688 486.997070312 c 0
 152.827148438 433.408203125 146.622070312 371.466796875 146.622070312 301.171875 c 0
 146.622070312 288.389648438 146.827148438 275.331054688 147.237304688 261.99609375 c 0
 147.904296875 240.663085938 149.737304688 220.99609375 152.737304688 202.99609375 c 0
 155.737304688 184.99609375 159.904296875 166.99609375 165.237304688 148.99609375 c 0
 170.569335938 130.99609375 177.569335938 115.49609375 186.237304688 102.49609375 c 0
 194.904296875 89.49609375 205.737304688 79.1630859375 218.737304688 71.49609375 c 0
 231.737304688 63.8291015625 246.237304688 59.99609375 262.237304688 59.99609375 c 0
EndSplineSet
Validated: 524289
EndChar

StartChar: P
Encoding: 80 80 48
Width: 590
GlyphClass: 2
Flags: HMW
HStem: -19.0771 21G 230.001 81.9374 630.003 80.998
VStem: 69.7127 94.3366 74.7887 102.314 439.046 92.0029
LayerCount: 2
Fore
SplineSet
177.102539062 21.7568359375 m 0xec
 177.102539062 8.837890625 171.583984375 -1.2421875 160.547851562 -8.4951171875 c 0
 149.814453125 -15.548828125 137.811523438 -19.0751953125 124.5390625 -19.0751953125 c 0
 123.384765625 -19.0751953125 122.220703125 -19.048828125 121.046875 -18.9951171875 c 0
 107.046875 -18.9951171875 95.546875 -14.828125 86.546875 -6.4951171875 c 0
 78.7080078125 0.7626953125 74.7890625 10.9287109375 74.7890625 24.0029296875 c 0xec
 74.7890625 25.939453125 74.875 27.939453125 75.046875 30.00390625 c 0
 75.7138671875 40.6708984375 76.046875 56.50390625 76.046875 77.50390625 c 0
 76.046875 98.50390625 75.8798828125 124.50390625 75.546875 155.50390625 c 0
 75.2138671875 186.50390625 74.7138671875 216.50390625 74.046875 245.50390625 c 0
 73.3798828125 274.50390625 72.546875 310.00390625 71.546875 352.00390625 c 0
 70.546875 394.00390625 70.046875 429.00390625 70.046875 457.00390625 c 0
 69.82421875 471.455078125 69.712890625 487.463867188 69.712890625 505.029296875 c 0xf4
 69.712890625 540.134765625 70.1572265625 581.458984375 71.0458984375 629.002929688 c 0
 67.712890625 632.3359375 65.712890625 634.002929688 65.0458984375 634.002929688 c 0
 59.712890625 642.002929688 57.8798828125 650.169921875 59.546875 658.502929688 c 0
 61.2138671875 666.8359375 64.880859375 674.3359375 70.5478515625 681.002929688 c 0
 76.21484375 687.669921875 82.3818359375 691.669921875 89.048828125 693.002929688 c 0
 113.048828125 698.3359375 148.215820312 702.668945312 194.548828125 706.001953125 c 0
 240.881835938 709.334960938 273.381835938 711.001953125 292.048828125 711.001953125 c 0
 337.381835938 711.001953125 377.881835938 703.001953125 413.548828125 687.001953125 c 0
 449.215820312 671.001953125 477.548828125 646.834960938 498.548828125 614.501953125 c 0
 519.548828125 582.168945312 530.381835938 543.668945312 531.048828125 499.001953125 c 0
 531.048828125 461.668945312 524.881835938 426.501953125 512.548828125 393.501953125 c 0
 500.215820312 360.501953125 483.548828125 332.001953125 462.548828125 308.001953125 c 0
 441.548828125 284.001953125 415.715820312 265.001953125 385.048828125 251.001953125 c 0
 354.381835938 237.001953125 321.048828125 230.001953125 285.048828125 230.001953125 c 0
 233.048828125 230.001953125 192.048828125 233.668945312 162.048828125 241.001953125 c 1
 163.381835938 213.001953125 165.048828125 186.168945312 167.048828125 160.501953125 c 0
 169.048828125 134.834960938 171.048828125 108.16796875 173.048828125 80.5009765625 c 0
 175.313476562 49.16796875 177.102539062 24.41796875 177.102539062 21.7568359375 c 0xec
292.047851562 630.005859375 m 0
 268.71484375 630.005859375 226.716796875 627.336914062 166.049804688 622.00390625 c 1
 166.049804688 608.670898438 165.3828125 584.00390625 164.049804688 548.00390625 c 0xf4
 162.716796875 512.00390625 161.716796875 475.00390625 161.049804688 437.00390625 c 0
 160.3828125 399.00390625 160.049804688 362.00390625 160.049804688 326.00390625 c 1
 185.673828125 316.62890625 215.399414062 311.94140625 249.2265625 311.94140625 c 0
 251.482421875 311.94140625 253.756835938 311.961914062 256.049804688 312.00390625 c 0
 275.3828125 312.00390625 292.8828125 313.336914062 308.549804688 316.00390625 c 0
 324.216796875 318.670898438 337.883789062 322.337890625 349.55078125 327.004882812 c 0
 361.217773438 331.671875 371.717773438 337.838867188 381.05078125 345.505859375 c 0
 390.383789062 353.172851562 398.216796875 360.83984375 404.549804688 368.506835938 c 0
 410.8828125 376.173828125 416.215820312 385.173828125 420.548828125 395.506835938 c 0
 424.881835938 405.83984375 428.21484375 415.172851562 430.547851562 423.505859375 c 0
 432.880859375 431.838867188 434.713867188 441.505859375 436.046875 452.505859375 c 0
 437.379882812 463.505859375 438.212890625 472.505859375 438.545898438 479.505859375 c 0
 438.87890625 486.505859375 439.045898438 495.005859375 439.045898438 505.005859375 c 0
 439.045898438 523.672851562 435.545898438 540.505859375 428.545898438 555.505859375 c 0
 421.545898438 570.505859375 412.87890625 582.505859375 402.545898438 591.505859375 c 0
 392.212890625 600.505859375 380.379882812 608.005859375 367.046875 614.005859375 c 0
 353.713867188 620.005859375 340.880859375 624.172851562 328.547851562 626.505859375 c 0
 316.21484375 628.838867188 304.047851562 630.005859375 292.047851562 630.005859375 c 0
EndSplineSet
Validated: 524289
EndChar

StartChar: Q
Encoding: 81 81 49
Width: 590
GlyphClass: 2
Flags: HMW
HStem: -24.1963 84.2021 637.005 80.9971
VStem: 45.8142 95.6075 250.602 73.1323 443.845 93.3379
LayerCount: 2
Fore
SplineSet
520.744140625 -206 m 0
 513.634765625 -210.443359375 506.225585938 -212.6640625 498.521484375 -212.6640625 c 0
 494.666015625 -212.6640625 490.737304688 -212.108398438 486.735351562 -210.997070312 c 0
 474.735351562 -207.6640625 464.068359375 -199.997070312 454.735351562 -187.997070312 c 0
 445.40234375 -175.997070312 429.40234375 -153.6640625 406.735351562 -120.997070312 c 0
 384.068359375 -88.330078125 362.068359375 -54.9970703125 340.735351562 -20.9970703125 c 1
 326.870117188 -23.130859375 311.938476562 -24.197265625 295.939453125 -24.197265625 c 0
 291.938476562 -24.197265625 287.870117188 -24.130859375 283.735351562 -23.9970703125 c 0
 254.40234375 -23.9970703125 227.069335938 -19.330078125 201.736328125 -9.9970703125 c 0
 176.403320312 -0.6640625 154.5703125 12.3359375 136.237304688 29.0029296875 c 0
 117.904296875 45.669921875 102.071289062 65.5029296875 88.73828125 88.5029296875 c 0
 75.4052734375 111.502929688 65.4052734375 136.169921875 58.73828125 162.502929688 c 0
 52.0712890625 188.8359375 48.0712890625 216.668945312 46.73828125 246.001953125 c 0
 46.1220703125 263.084960938 45.8134765625 279.766601562 45.8134765625 296.046875 c 0
 45.8134765625 403.024414062 59.1220703125 492.67578125 85.73828125 565.001953125 c 0
 103.071289062 609.001953125 132.73828125 645.501953125 174.73828125 674.501953125 c 0
 216.73828125 703.501953125 263.73828125 718.001953125 315.73828125 718.001953125 c 0
 343.071289062 718.001953125 368.571289062 713.334960938 392.23828125 704.001953125 c 0
 415.905273438 694.668945312 437.405273438 681.001953125 456.73828125 663.001953125 c 0
 476.071289062 645.001953125 492.23828125 620.668945312 505.23828125 590.001953125 c 0
 518.23828125 559.334960938 527.071289062 523.66796875 531.73828125 483.000976562 c 0
 535.368164062 447.220703125 537.18359375 405.2890625 537.18359375 357.20703125 c 0
 537.18359375 343.473632812 537.03515625 329.23828125 536.739257812 314.500976562 c 0
 535.40625 248.16796875 531.073242188 197.66796875 523.740234375 163.000976562 c 0
 509.740234375 91.0009765625 477.073242188 39.66796875 425.740234375 9.0009765625 c 1
 439.073242188 -10.33203125 453.240234375 -29.9990234375 468.240234375 -49.9990234375 c 0
 483.240234375 -69.9990234375 497.573242188 -88.666015625 511.240234375 -105.999023438 c 0
 524.907226562 -123.33203125 534.07421875 -134.999023438 538.741210938 -140.999023438 c 0
 543.408203125 -148.33203125 545.075195312 -156.33203125 543.7421875 -164.999023438 c 0
 542.409179688 -173.666015625 539.576171875 -181.833007812 535.243164062 -189.5 c 0
 530.91015625 -197.166992188 526.077148438 -202.666992188 520.744140625 -206 c 0
143.735351562 262.004882812 m 0
 145.735351562 224.004882812 152.901367188 189.837890625 165.234375 159.504882812 c 0
 177.567382812 129.171875 194.067382812 105.004882812 214.734375 87.0048828125 c 0
 235.401367188 69.0048828125 258.401367188 60.0048828125 283.734375 60.0048828125 c 2
 293.734375 60.0048828125 l 1
 277.734375 90.0048828125 266.401367188 113.337890625 259.734375 130.004882812 c 0
 253.646484375 146.33203125 250.602539062 160.706054688 250.602539062 173.127929688 c 0
 250.602539062 190.630859375 256.646484375 204.256835938 268.734375 214.005859375 c 0
 274.734375 218.672851562 281.234375 221.505859375 288.234375 222.505859375 c 0
 295.234375 223.505859375 301.901367188 221.505859375 308.234375 216.505859375 c 0
 314.567382812 211.505859375 319.734375 204.005859375 323.734375 194.005859375 c 0
 335.734375 160.672851562 353.067382812 124.33984375 375.734375 85.0068359375 c 1
 404.401367188 104.33984375 423.401367188 135.33984375 432.734375 178.006835938 c 0
 434.734375 188.006835938 436.901367188 208.173828125 439.234375 238.506835938 c 0
 441.567382812 268.83984375 443.067382812 306.672851562 443.734375 352.005859375 c 0
 443.80859375 357.044921875 443.845703125 362.059570312 443.845703125 367.049804688 c 0
 443.845703125 406.948242188 441.475585938 445.266601562 436.735351562 482.004882812 c 0
 431.40234375 529.337890625 416.90234375 567.004882812 393.235351562 595.004882812 c 0
 369.568359375 623.004882812 340.068359375 637.004882812 304.735351562 637.004882812 c 0
 268.068359375 637.004882812 237.568359375 624.004882812 213.235351562 598.004882812 c 0
 188.90234375 572.004882812 171.40234375 535.671875 160.735351562 489.004882812 c 0
 147.859375 437.5 141.420898438 382.5 141.420898438 324.004882812 c 0
 141.420898438 303.756835938 142.192382812 283.08984375 143.735351562 262.004882812 c 0
EndSplineSet
Validated: 524289
EndChar

StartChar: R
Encoding: 82 82 50
Width: 590
GlyphClass: 2
Flags: HMW
HStem: -19.0801 21G 694.06 20G
VStem: 51.0342 95 55.4892 102.598 55.5342 93.498 59.0342 81 436.034 92
LayerCount: 2
Fore
SplineSet
158.0859375 21.755859375 m 0xd2
 158.0859375 8.8369140625 152.571289062 -1.248046875 141.53515625 -8.5 c 0
 130.801757812 -15.5537109375 118.517578125 -19.080078125 104.681640625 -19.080078125 c 0
 103.477539062 -19.080078125 102.26171875 -19.0537109375 101.034179688 -19 c 0
 87.0341796875 -19 75.5341796875 -14.8330078125 66.5341796875 -6.5 c 0
 59.1708984375 0.318359375 55.4892578125 9.703125 55.4892578125 21.6533203125 c 0xd2
 55.4892578125 24.30859375 55.6708984375 27.0908203125 56.0341796875 30 c 0
 58.701171875 64.6669921875 60.0341796875 94.1669921875 60.0341796875 118.5 c 0
 60.0341796875 142.833007812 59.701171875 202.666015625 59.0341796875 297.999023438 c 0xc6
 59.0341796875 310.666015625 59.701171875 337.833007812 61.0341796875 379.5 c 0
 61.7001953125 400.333984375 62.033203125 420.625976562 62.033203125 440.375976562 c 0
 62.033203125 460.125976562 61.7001953125 479.333984375 61.0341796875 498 c 0
 60.3671875 520.666992188 58.5341796875 551.333984375 55.5341796875 590.000976562 c 0xca
 52.5341796875 628.66796875 51.0341796875 652.000976562 51.0341796875 660.000976562 c 2
 51.0341796875 666.000976562 l 2xe2
 50.9892578125 666.845703125 50.966796875 667.68359375 50.966796875 668.513671875 c 0
 50.966796875 680.127929688 55.322265625 690.290039062 64.033203125 699.000976562 c 0
 72.1904296875 709.040039062 83.2998046875 714.059570312 97.361328125 714.059570312 c 0
 98.240234375 714.059570312 99.130859375 714.040039062 100.033203125 714.000976562 c 0
 113.366210938 714.000976562 124.033203125 711.333984375 132.033203125 706.000976562 c 1
 187.366210938 703.333984375 237.533203125 696.166992188 282.533203125 684.5 c 0
 327.533203125 672.833007812 365.033203125 658.333007812 395.033203125 641 c 0
 425.033203125 623.666992188 450.366210938 604 471.033203125 582 c 0
 491.700195312 560 506.3671875 538 515.034179688 516 c 0
 523.701171875 494 528.034179688 471.666992188 528.034179688 449 c 0
 528.034179688 432.333007812 525.8671875 417 521.534179688 403 c 0
 517.201171875 389 511.034179688 376.833007812 503.034179688 366.5 c 0
 495.034179688 356.166992188 484.701171875 347 472.034179688 339 c 0
 459.3671875 331 445.8671875 324.166992188 431.534179688 318.5 c 0
 417.201171875 312.833007812 400.201171875 307.833007812 380.534179688 303.5 c 0
 360.8671875 299.166992188 341.3671875 295.833984375 322.034179688 293.500976562 c 0
 302.701171875 291.16796875 281.034179688 289.000976562 257.034179688 287.000976562 c 1
 324.3671875 252.333984375 383.700195312 211.833984375 435.033203125 165.500976562 c 0
 486.366210938 119.16796875 520.033203125 79.66796875 536.033203125 47.0009765625 c 0
 538.033203125 41.0009765625 539.033203125 35.2509765625 539.033203125 29.7509765625 c 0
 539.033203125 24.2509765625 538.033203125 19.0009765625 536.033203125 14.0009765625 c 0
 532.033203125 4.0009765625 525.700195312 -3.9990234375 517.033203125 -9.9990234375 c 0
 509.700195312 -15.3759765625 501.918945312 -18.064453125 493.689453125 -18.064453125 c 0
 490.696289062 -18.064453125 487.643554688 -17.708984375 484.532226562 -16.998046875 c 0
 472.865234375 -14.3310546875 462.032226562 -6.3310546875 452.032226562 7.001953125 c 0
 441.365234375 21.001953125 426.198242188 38.1689453125 406.53125 58.501953125 c 0
 386.864257812 78.8349609375 363.197265625 101.501953125 335.530273438 126.501953125 c 0
 307.86328125 151.501953125 276.36328125 176.168945312 241.030273438 200.501953125 c 0
 205.697265625 224.834960938 171.364257812 244.334960938 138.03125 259.001953125 c 1
 140.03125 220.334960938 143.698242188 174.66796875 149.03125 122.000976562 c 0xca
 151.907226562 93.6025390625 158.0859375 31.578125 158.0859375 21.755859375 c 0xd2
151.036132812 498 m 0
 151.036132812 490.666992188 150.538085938 480.833984375 149.538085938 468.500976562 c 0
 148.538085938 456.16796875 147.705078125 445.16796875 147.038085938 435.500976562 c 0
 146.37109375 425.833984375 145.204101562 412.500976562 143.537109375 395.500976562 c 0
 141.870117188 378.500976562 140.703125 366.333984375 140.036132812 359.000976562 c 1xc6
 148.036132812 357.4765625 158.321289062 356.71484375 170.891601562 356.71484375 c 0
 180.3203125 356.71484375 191.03515625 357.143554688 203.036132812 358.000976562 c 0
 230.369140625 359.333984375 253.369140625 360.833984375 272.036132812 362.500976562 c 0
 290.703125 364.16796875 309.536132812 366.500976562 328.536132812 369.500976562 c 0
 347.536132812 372.500976562 363.036132812 376.000976562 375.036132812 380.000976562 c 0
 387.036132812 384.000976562 398.036132812 389.000976562 408.036132812 395.000976562 c 0
 418.036132812 401.000976562 425.203125 408.16796875 429.536132812 416.500976562 c 0
 433.869140625 424.833984375 436.036132812 434.333984375 436.036132812 445.000976562 c 0
 436.036132812 463.66796875 429.203125 481.66796875 415.536132812 499.000976562 c 0
 401.869140625 516.333984375 384.536132812 531.666992188 363.536132812 545 c 0
 342.536132812 558.333007812 318.703125 570.5 292.036132812 581.5 c 0
 265.369140625 592.5 239.869140625 601.333007812 215.536132812 608 c 0
 191.203125 614.666992188 168.036132812 620 146.036132812 624 c 1xe2
 148.036132812 575.333007812 149.703125 533.333007812 151.036132812 498 c 0
EndSplineSet
Validated: 524289
EndChar

StartChar: S
Encoding: 83 83 51
Width: 590
GlyphClass: 2
Flags: HMW
HStem: -29 85<243.494 264.827 243.494 268.164> 645.001 79.001
VStem: 74.8291 100.001 446.827 99.0029
LayerCount: 2
Fore
SplineSet
53.8310546875 66 m 0
 47.3916015625 79.3740234375 44.169921875 90.9111328125 44.169921875 100.60546875 c 0
 44.169921875 103.958984375 44.5556640625 107.091796875 45.326171875 110.00390625 c 0
 48.326171875 121.336914062 55.4931640625 130.00390625 66.826171875 136.00390625 c 0
 74.826171875 139.336914062 81.1591796875 141.669921875 85.826171875 143.002929688 c 0
 90.4931640625 144.3359375 95.66015625 144.668945312 101.327148438 144.001953125 c 0
 106.994140625 143.334960938 112.494140625 140.66796875 117.827148438 136.000976562 c 0
 123.16015625 131.333984375 129.16015625 124.666992188 135.827148438 116 c 0
 147.827148438 98 164.327148438 83.5 185.327148438 72.5 c 0
 206.327148438 61.5 230.16015625 56 256.827148438 56 c 0
 272.827148438 56 289.494140625 58.1669921875 306.827148438 62.5 c 0
 324.16015625 66.8330078125 341.16015625 73.5 357.827148438 82.5 c 0
 374.494140625 91.5 389.494140625 102 402.827148438 114 c 0
 416.16015625 126 426.827148438 140.166992188 434.827148438 156.5 c 0
 442.827148438 172.833007812 446.827148438 190 446.827148438 208 c 0
 446.827148438 218 446.16015625 227 444.827148438 235 c 0
 443.494140625 243 440.994140625 251.666992188 437.327148438 261 c 0
 433.66015625 270.333007812 428.66015625 278.833007812 422.327148438 286.5 c 0
 415.994140625 294.166992188 407.161132812 301.833984375 395.828125 309.500976562 c 0
 384.495117188 317.16796875 371.162109375 324.000976562 355.829101562 330.000976562 c 0
 340.49609375 336.000976562 321.829101562 341.500976562 299.829101562 346.500976562 c 0
 277.829101562 351.500976562 253.162109375 355.333984375 225.829101562 358.000976562 c 0
 201.829101562 360.66796875 179.99609375 367.000976562 160.329101562 377.000976562 c 0
 140.662109375 387.000976562 124.829101562 399.16796875 112.829101562 413.500976562 c 0
 100.829101562 427.833984375 91.49609375 442.833984375 84.8291015625 458.500976562 c 0
 78.162109375 474.16796875 74.8291015625 490.000976562 74.8291015625 506.000976562 c 0
 74.8291015625 528.66796875 78.662109375 550.500976562 86.3291015625 571.500976562 c 0
 93.99609375 592.500976562 105.829101562 612.333984375 121.829101562 631.000976562 c 0
 137.829101562 649.66796875 157.162109375 665.834960938 179.829101562 679.501953125 c 0
 202.49609375 693.168945312 229.663085938 704.001953125 261.330078125 712.001953125 c 0
 292.997070312 720.001953125 326.830078125 724.001953125 362.830078125 724.001953125 c 0
 380.830078125 724.001953125 405.497070312 722.501953125 436.830078125 719.501953125 c 0
 468.163085938 716.501953125 489.49609375 712.668945312 500.829101562 708.001953125 c 0
 513.49609375 703.334960938 522.663085938 696.001953125 528.330078125 686.001953125 c 0
 532.91796875 677.90625 535.211914062 669.373046875 535.211914062 660.403320312 c 0
 535.211914062 658.293945312 535.084960938 656.16015625 534.831054688 654.001953125 c 0
 534.1640625 646.001953125 531.497070312 639.668945312 526.830078125 635.001953125 c 0
 522.163085938 630.334960938 516.49609375 627.66796875 509.829101562 627.000976562 c 0
 503.162109375 626.333984375 497.162109375 626.166992188 491.829101562 626.5 c 0
 486.49609375 626.833007812 480.829101562 628 474.829101562 630 c 0
 473.49609375 630 471.49609375 630.666992188 468.829101562 632 c 0
 456.829101562 634.666992188 447.329101562 636.833984375 440.329101562 638.500976562 c 0
 433.329101562 640.16796875 422.162109375 641.66796875 406.829101562 643.000976562 c 0
 391.49609375 644.333984375 374.163085938 645.000976562 354.830078125 645.000976562 c 0
 324.163085938 645.000976562 295.330078125 640.500976562 268.330078125 631.500976562 c 0
 241.330078125 622.500976562 218.997070312 609.000976562 201.330078125 591.000976562 c 0
 183.663085938 573.000976562 174.830078125 553.000976562 174.830078125 531.000976562 c 0
 174.830078125 505.000976562 186.163085938 483.000976562 208.830078125 465.000976562 c 0
 231.497070312 447.000976562 263.497070312 437.333984375 304.830078125 436.000976562 c 0
 342.163085938 434.000976562 375.163085938 428.16796875 403.830078125 418.500976562 c 0
 432.497070312 408.833984375 455.497070312 397.166992188 472.830078125 383.5 c 0
 490.163085938 369.833007812 504.663085938 353.833007812 516.330078125 335.5 c 0
 527.997070312 317.166992188 535.830078125 299 539.830078125 281 c 0
 543.830078125 263 545.830078125 244.333007812 545.830078125 225 c 0
 545.830078125 194.333007812 540.663085938 165.5 530.330078125 138.5 c 0
 519.997070312 111.5 505.6640625 87.8330078125 487.331054688 67.5 c 0
 468.998046875 47.1669921875 447.498046875 29.6669921875 422.831054688 15 c 0
 398.1640625 0.3330078125 371.331054688 -10.6669921875 342.331054688 -18 c 0
 313.331054688 -25.3330078125 283.498046875 -29 252.831054688 -29 c 0
 206.1640625 -29 164.831054688 -19.8330078125 128.831054688 -1.5 c 0
 92.8310546875 16.8330078125 67.8310546875 39.3330078125 53.8310546875 66 c 0
EndSplineSet
Validated: 524289
EndChar

